
<!-- Generator: visioncortex VTracer 0.6.4 -->
<svg version="1.1" xmlns="http://www.w3.org/2000/svg" viewBox="0 0 1024 1024" preserveAspectRatio="xMidYMid meet">
<path d="M0 0 C337.92 0 675.84 0 1024 0 C1024 337.92 1024 675.84 1024 1024 C686.08 1024 348.16 1024 0 1024 C0 686.08 0 348.16 0 0 Z " fill="#FEFEFE" transform="translate(0,0)"/>
<path d="M0 0 C9.623 7.621 16.212 17.97 18 30.25 C17.985 31.148 17.969 32.047 17.953 32.973 C17.907 42.188 21.296 48.143 26.138 55.714 C26.63 56.489 27.122 57.264 27.629 58.062 C28.083 58.75 28.538 59.437 29.006 60.145 C30.192 62.658 30.182 64.503 30 67.25 C23.25 70.25 23.25 70.25 21 70.25 C21.495 73.715 21.495 73.715 22 77.25 C21.01 77.25 20.02 77.25 19 77.25 C19.99 78.735 19.99 78.735 21 80.25 C20.483 83.767 20.483 83.767 19 85.25 C18.868 86.831 18.77 88.415 18.688 90 C18.284 94.553 17.427 97.031 14 100.25 C11.652 101.424 10.117 101.419 7.5 101.496 C6.613 101.529 5.726 101.562 4.812 101.596 C2.938 101.657 1.063 101.714 -0.812 101.768 C-1.699 101.802 -2.586 101.836 -3.5 101.871 C-4.315 101.896 -5.129 101.921 -5.969 101.947 C-8.224 102.078 -8.224 102.078 -10 104.25 C-10.368 106.183 -10.368 106.183 -10.414 108.383 C-10.453 109.188 -10.491 109.994 -10.531 110.824 C-10.562 111.666 -10.593 112.508 -10.625 113.375 C-10.664 114.224 -10.702 115.074 -10.742 115.949 C-10.837 118.049 -10.919 120.15 -11 122.25 C-13.97 122.25 -16.94 122.25 -20 122.25 C-20.009 121.081 -20.018 119.912 -20.027 118.707 C-20.738 113.006 -24.396 110.509 -28.562 106.938 C-35.613 100.455 -35.613 100.455 -37.062 95.941 C-37.062 91.443 -36.511 89.017 -34 85.25 C-33.833 82.625 -33.833 82.625 -34 80.25 C-37.465 80.745 -37.465 80.745 -41 81.25 C-40.621 84.541 -40.621 84.541 -39 87.25 C-39.104 88.445 -39.104 88.445 -39.211 89.664 C-39.46 94.537 -39.507 98.29 -36.485 102.221 C-33.877 104.96 -31.163 107.507 -28.285 109.959 C-27.612 110.548 -26.939 111.136 -26.246 111.742 C-25.313 112.506 -25.313 112.506 -24.361 113.285 C-23 115.25 -23 115.25 -23 122.25 C-31.25 122.25 -39.5 122.25 -48 122.25 C-48 119.28 -48 116.31 -48 113.25 C-46.02 112.26 -46.02 112.26 -44 111.25 C-42.601 108.451 -42.747 106.345 -43 103.25 C-44.545 101.213 -45.721 100.389 -48 99.25 C-48.058 95.458 -48.094 91.667 -48.125 87.875 C-48.142 86.795 -48.159 85.715 -48.176 84.602 C-48.185 83.055 -48.185 83.055 -48.195 81.477 C-48.211 80.047 -48.211 80.047 -48.227 78.588 C-48 76.25 -48 76.25 -46 74.25 C-45.833 71.666 -45.833 71.666 -46 69.25 C-47.656 68.868 -49.325 68.536 -51 68.25 C-52.283 69.31 -52.283 69.31 -52.125 71.75 C-52.283 74.19 -52.283 74.19 -51 75.25 C-50.663 79.158 -50.675 83.08 -50.625 87 C-50.569 88.647 -50.569 88.647 -50.512 90.328 C-50.422 98.544 -50.422 98.544 -53.516 102.324 C-54.335 102.96 -55.155 103.595 -56 104.25 C-56.329 107.359 -56.329 107.359 -55 110.25 C-54.154 110.869 -53.309 111.487 -52.438 112.125 C-51.231 113.177 -51.231 113.177 -50 114.25 C-50 116.89 -50 119.53 -50 122.25 C-56.6 122.25 -63.2 122.25 -70 122.25 C-68.249 113.225 -68.249 113.225 -67.199 109.113 C-63.974 96.442 -63.891 87.999 -70.078 76.379 C-71.873 73.457 -73.831 70.898 -76 68.25 C-83.642 56.285 -84.761 40.938 -82.496 27.191 C-81.832 24.758 -81.031 22.55 -80 20.25 C-79.671 19.509 -79.343 18.768 -79.004 18.004 C-72.82 5.658 -63.016 -2.338 -50.25 -7.125 C-33.306 -11.872 -14.637 -9.903 0 0 Z " fill="#374045" transform="translate(843,453.75)"/>
<path d="M0 0 C8.318 7.428 13.562 17.719 16.148 28.461 C17.08 46.472 13.288 59.382 3.586 74.523 C-2.261 83.709 -3.028 91.912 -0.797 102.531 C-0.126 105.48 0.603 108.409 1.363 111.336 C2.114 114.23 2.75 117.154 3.336 120.086 C-3.264 120.086 -9.864 120.086 -16.664 120.086 C-16.664 117.116 -16.664 114.146 -16.664 111.086 C-15.344 110.756 -14.024 110.426 -12.664 110.086 C-12.415 108.652 -12.19 107.213 -11.977 105.773 C-11.849 104.973 -11.721 104.172 -11.59 103.348 C-11.444 101.017 -11.444 101.017 -13.02 99.355 C-14.649 98.013 -14.649 98.013 -16.664 97.086 C-16.664 89.166 -16.664 81.246 -16.664 73.086 C-16.004 72.756 -15.344 72.426 -14.664 72.086 C-14.621 70.42 -14.623 68.752 -14.664 67.086 C-15.731 65.79 -15.731 65.79 -18.227 66.023 C-19.031 66.044 -19.835 66.065 -20.664 66.086 C-21.352 68.44 -21.352 68.44 -21.664 71.086 C-20.674 72.571 -20.674 72.571 -19.664 74.086 C-19.437 76.538 -19.437 76.538 -19.469 79.41 C-19.475 80.438 -19.482 81.466 -19.488 82.525 C-19.513 84.133 -19.513 84.133 -19.539 85.773 C-19.548 86.857 -19.557 87.94 -19.566 89.057 C-19.59 91.733 -19.623 94.41 -19.664 97.086 C-20.303 97.375 -20.943 97.663 -21.602 97.961 C-23.816 98.914 -23.816 98.914 -24.664 101.086 C-25.164 104.001 -25.164 104.001 -24.664 107.086 C-23.839 107.684 -23.014 108.282 -22.164 108.898 C-21.339 109.62 -20.514 110.342 -19.664 111.086 C-19.664 114.056 -19.664 117.026 -19.664 120.086 C-27.584 120.086 -35.504 120.086 -43.664 120.086 C-43.664 113.086 -43.664 113.086 -42.303 111.121 C-41.681 110.612 -41.059 110.103 -40.418 109.578 C-39.745 108.99 -39.073 108.402 -38.379 107.795 C-37.314 106.887 -37.314 106.887 -36.227 105.961 C-30.949 101.153 -27.683 98.014 -27.289 90.711 C-27.385 88.834 -27.5 86.958 -27.664 85.086 C-27.334 84.756 -27.004 84.426 -26.664 84.086 C-26.497 81.586 -26.497 81.586 -26.664 79.086 C-27.731 77.79 -27.731 77.79 -30.227 78.023 C-31.031 78.044 -31.835 78.065 -32.664 78.086 C-32.664 80.066 -32.664 82.046 -32.664 84.086 C-32.004 84.416 -31.344 84.746 -30.664 85.086 C-29.578 89.405 -29.487 92.771 -30.664 97.086 C-33.426 100.711 -36.779 103.71 -40.24 106.656 C-43.781 109.754 -46.037 111.732 -46.637 116.539 C-46.646 117.71 -46.655 118.88 -46.664 120.086 C-49.634 120.086 -52.604 120.086 -55.664 120.086 C-55.72 118.297 -55.72 118.297 -55.777 116.473 C-55.843 114.906 -55.909 113.34 -55.977 111.773 C-56.01 110.595 -56.01 110.595 -56.045 109.393 C-56.08 108.635 -56.116 107.878 -56.152 107.098 C-56.179 106.401 -56.205 105.705 -56.232 104.987 C-56.799 102.493 -57.612 101.593 -59.664 100.086 C-61.7 99.633 -61.7 99.633 -63.938 99.68 C-64.762 99.658 -65.588 99.636 -66.438 99.613 C-67.296 99.604 -68.155 99.595 -69.039 99.586 C-79.494 99.475 -79.494 99.475 -83.664 96.086 C-85.046 93.321 -84.759 91.04 -84.727 87.961 C-84.718 86.865 -84.709 85.77 -84.699 84.641 C-84.688 83.798 -84.676 82.955 -84.664 82.086 C-85.654 81.756 -86.644 81.426 -87.664 81.086 C-87.334 79.106 -87.004 77.126 -86.664 75.086 C-87.324 75.086 -87.984 75.086 -88.664 75.086 C-88.334 72.776 -88.004 70.466 -87.664 68.086 C-89.056 67.9 -89.056 67.9 -90.477 67.711 C-93.664 67.086 -93.664 67.086 -96.664 65.086 C-97.182 61.304 -96.389 58.985 -94.512 55.73 C-94.065 54.943 -93.618 54.157 -93.158 53.346 C-92.686 52.538 -92.213 51.731 -91.727 50.898 C-91.258 50.079 -90.789 49.26 -90.307 48.416 C-89.441 46.903 -88.571 45.393 -87.696 43.886 C-85.796 40.572 -85.538 38.211 -85.425 34.373 C-84.948 19.569 -80.177 10.117 -69.414 -0.164 C-50.152 -16.609 -19.69 -14.147 0 0 Z " fill="#373F44" transform="translate(252.6640625,455.9140625)"/>
<path d="M0 0 C1.395 0.007 2.789 0.019 4.184 0.035 C4.895 0.04 5.605 0.044 6.338 0.049 C8.099 0.061 9.86 0.079 11.621 0.098 C15.716 7.876 19.06 15.873 22.309 24.035 C23.268 26.441 24.23 28.846 25.195 31.25 C25.614 32.302 26.032 33.354 26.464 34.437 C27.593 37.246 27.593 37.246 29.621 40.098 C30.082 38.92 30.082 38.92 30.552 37.718 C31.715 34.743 32.88 31.768 34.046 28.794 C34.546 27.518 35.045 26.242 35.544 24.966 C38.802 16.633 42.141 8.341 45.621 0.098 C48.267 0.071 50.913 0.051 53.559 0.035 C54.313 0.027 55.068 0.018 55.846 0.01 C57.771 0.001 59.696 0.045 61.621 0.098 C63.4 1.877 62.749 4.481 62.75 6.887 C62.754 8.125 62.757 9.363 62.76 10.638 C62.758 12 62.756 13.361 62.754 14.723 C62.755 16.109 62.756 17.495 62.757 18.881 C62.758 21.79 62.756 24.699 62.751 27.607 C62.746 31.344 62.749 35.08 62.755 38.816 C62.759 41.679 62.758 44.543 62.755 47.406 C62.754 48.784 62.755 50.162 62.757 51.54 C62.76 53.463 62.755 55.386 62.75 57.309 C62.75 58.405 62.749 59.501 62.748 60.63 C62.621 63.098 62.621 63.098 61.621 64.098 C57.331 64.098 53.041 64.098 48.621 64.098 C48.291 51.888 47.961 39.678 47.621 27.098 C42.587 38.669 37.624 50.129 33.621 62.098 C30.981 62.098 28.341 62.098 25.621 62.098 C21.874 54.96 18.878 47.572 15.871 40.098 C15.36 38.833 14.848 37.569 14.336 36.305 C13.095 33.237 11.857 30.168 10.621 27.098 C10.596 28.183 10.571 29.268 10.545 30.386 C10.451 34.399 10.351 38.411 10.249 42.424 C10.205 44.163 10.164 45.902 10.124 47.641 C10.066 50.136 10.002 52.631 9.938 55.125 C9.912 56.298 9.912 56.298 9.887 57.496 C9.735 62.984 9.735 62.984 8.621 64.098 C6.623 64.196 4.622 64.227 2.621 64.223 C1.528 64.225 0.435 64.228 -0.691 64.23 C-3.379 64.098 -3.379 64.098 -4.379 63.098 C-4.478 61.17 -4.507 59.239 -4.508 57.309 C-4.511 56.071 -4.515 54.833 -4.518 53.557 C-4.516 52.196 -4.514 50.834 -4.512 49.473 C-4.512 48.086 -4.513 46.7 -4.515 45.314 C-4.516 42.405 -4.514 39.497 -4.509 36.588 C-4.504 32.852 -4.507 29.116 -4.513 25.379 C-4.516 22.516 -4.515 19.652 -4.513 16.789 C-4.512 15.411 -4.513 14.033 -4.515 12.655 C-4.518 10.732 -4.513 8.809 -4.508 6.887 C-4.508 5.791 -4.507 4.694 -4.506 3.565 C-4.309 -0.259 -3.951 0.114 0 0 Z " fill="#3B4348" transform="translate(610.37890625,477.90234375)"/>
<path d="M0 0 C1.167 -0.004 1.167 -0.004 2.357 -0.009 C3.997 -0.011 5.636 -0.005 7.276 0.007 C9.774 0.023 12.27 0.007 14.768 -0.012 C16.366 -0.01 17.964 -0.006 19.562 0 C20.674 -0.009 20.674 -0.009 21.807 -0.018 C26.552 0.045 29.84 0.843 33.848 3.398 C37.215 8.449 36.258 14.341 36.285 20.273 C36.318 21.553 36.351 22.834 36.385 24.152 C36.438 33.336 36.438 33.336 33.996 37.734 C29.374 40.177 25.194 40.142 20.035 40.148 C7.133 39.682 7.133 39.682 -4.027 44.961 C-7.997 48.398 -7.997 48.398 -10.152 48.398 C-9.492 45.428 -8.832 42.458 -8.152 39.398 C-9.472 38.738 -10.792 38.078 -12.152 37.398 C-14.537 35.367 -15.129 34.468 -16.152 31.398 C-16.408 27.799 -16.384 24.194 -16.402 20.586 C-16.423 19.6 -16.444 18.615 -16.465 17.6 C-16.494 12.17 -16.448 7.962 -13.152 3.398 C-8.957 0.145 -5.125 -0.042 0 0 Z " fill="#25A7EC" transform="translate(887.15234375,449.6015625)"/>
<path d="M0 0 C1.174 -0.009 1.174 -0.009 2.373 -0.017 C4.028 -0.027 5.684 -0.033 7.34 -0.037 C9.867 -0.047 12.392 -0.078 14.918 -0.109 C16.529 -0.116 18.139 -0.121 19.75 -0.125 C20.878 -0.144 20.878 -0.144 22.03 -0.162 C26.557 -0.143 29.442 0.363 33.008 3.203 C36.052 6.323 36.392 8.589 36.406 12.887 C36.412 14.525 36.412 14.525 36.418 16.197 C36.406 17.334 36.395 18.47 36.383 19.641 C36.394 20.773 36.406 21.906 36.418 23.072 C36.414 24.166 36.41 25.26 36.406 26.387 C36.403 27.382 36.399 28.378 36.396 29.404 C35.937 32.714 35.029 34.553 33.008 37.203 C31.688 37.863 30.368 38.523 29.008 39.203 C29.503 43.658 29.503 43.658 30.008 48.203 C26.841 46.62 24.817 45.263 22.121 43.125 C16.132 39.088 10.217 39.385 3.195 39.453 C0.793 39.445 -1.609 39.43 -4.012 39.406 C-5.591 39.416 -5.591 39.416 -7.202 39.427 C-10.079 39.196 -11.645 38.861 -13.992 37.203 C-17.37 32.362 -16.402 25.975 -16.43 20.328 C-16.463 19.156 -16.495 17.985 -16.529 16.777 C-16.589 7.137 -16.589 7.137 -13.652 3.445 C-9.33 -0.198 -5.398 0.03 0 0 Z " fill="#25A7EC" transform="translate(120.9921875,449.796875)"/>
<path d="M0 0 C4.62 0 9.24 0 14 0 C14.33 11.22 14.66 22.44 15 34 C16.918 31.772 18.836 29.545 20.812 27.25 C21.412 26.556 22.011 25.861 22.628 25.146 C23.108 24.587 23.588 24.029 24.082 23.453 C24.863 22.556 24.863 22.556 25.659 21.642 C27.121 19.946 27.121 19.946 28.375 17.562 C30.686 15.341 32.863 15.593 35.951 15.648 C36.689 15.682 37.427 15.715 38.188 15.75 C38.937 15.768 39.687 15.786 40.459 15.805 C42.307 15.852 44.153 15.924 46 16 C44.464 19.565 42.316 22.039 39.688 24.875 C36.353 28.51 33.118 32.178 30 36 C31.384 39.834 33.164 42.95 35.477 46.301 C36.147 47.277 36.817 48.254 37.508 49.26 C38.206 50.267 38.905 51.275 39.625 52.312 C40.331 53.339 41.038 54.366 41.766 55.424 C43.506 57.952 45.251 60.477 47 63 C46.67 63.66 46.34 64.32 46 65 C40.956 66.042 35.889 66.962 31 65 C26.527 60.837 23.729 55.186 20.999 49.788 C20.011 47.83 20.011 47.83 18 46 C16.382 47.026 16.382 47.026 15 49 C14.624 51.629 14.399 54.051 14.312 56.688 C14.278 57.389 14.244 58.091 14.209 58.814 C14.127 60.542 14.062 62.271 14 64 C9.38 64 4.76 64 0 64 C0 42.88 0 21.76 0 0 Z " fill="#3A4247" transform="translate(436,477)"/>
<path d="M0 0 C4.895 2.64 8.552 7.134 10.539 12.277 C10.707 14.996 10.772 17.608 10.734 20.324 C10.732 21.095 10.729 21.867 10.726 22.661 C10.715 25.117 10.69 27.572 10.664 30.027 C10.654 31.695 10.645 33.363 10.637 35.031 C10.615 39.113 10.58 43.195 10.539 47.277 C5.919 47.277 1.299 47.277 -3.461 47.277 C-3.956 44.802 -3.956 44.802 -4.461 42.277 C-5.358 43.205 -5.358 43.205 -6.273 44.152 C-9.956 47.729 -12.166 48.588 -17.211 48.652 C-22.906 48.542 -26.023 47.865 -30.461 44.277 C-33.816 39.624 -34.359 34.846 -33.461 29.277 C-31.193 24.742 -28.979 22.471 -24.461 20.277 C-21.217 19.507 -17.95 19.04 -14.648 18.59 C-13.323 18.396 -13.323 18.396 -11.971 18.197 C-9.802 17.881 -7.632 17.574 -5.461 17.277 C-5.418 15.611 -5.42 13.944 -5.461 12.277 C-7.128 10.611 -9.117 11.067 -11.398 11.027 C-12.294 11.002 -13.19 10.976 -14.113 10.949 C-14.888 11.058 -15.663 11.166 -16.461 11.277 C-17.451 12.762 -17.451 12.762 -18.461 14.277 C-21.5 14.57 -21.5 14.57 -25.086 14.465 C-26.274 14.438 -27.463 14.411 -28.688 14.383 C-29.603 14.348 -30.518 14.313 -31.461 14.277 C-31.393 10.863 -31.264 8.236 -29.012 5.547 C-21.062 -1.437 -10.173 -2.987 0 0 Z " fill="#394146" transform="translate(390.4609375,493.72265625)"/>
<path d="M0 0 C5.775 2.682 9.086 7.068 12.152 12.566 C13.625 17.218 13.823 21.47 13.34 26.316 C12.34 27.316 12.34 27.316 9.289 27.43 C7.94 27.43 6.591 27.424 5.242 27.414 C4.179 27.412 4.179 27.412 3.094 27.41 C0.822 27.404 -1.45 27.392 -3.723 27.379 C-5.26 27.374 -6.797 27.369 -8.334 27.365 C-12.109 27.354 -15.885 27.337 -19.66 27.316 C-17.783 32.212 -17.783 32.212 -14.66 36.316 C-12.096 36.674 -12.096 36.674 -9.223 36.629 C-8.255 36.646 -7.286 36.662 -6.289 36.68 C-3.621 36.586 -3.621 36.586 -2.199 34.809 C-0.66 33.316 -0.66 33.316 2.258 33.023 C3.337 33.058 4.416 33.093 5.527 33.129 C6.614 33.156 7.701 33.183 8.82 33.211 C10.067 33.263 10.067 33.263 11.34 33.316 C12.004 35.094 12.004 35.094 12.34 37.316 C9.548 42.197 4.982 46.168 -0.395 47.863 C-8.745 49.533 -17.157 49.245 -24.602 44.941 C-27.968 42.284 -29.902 39.185 -31.66 35.316 C-32.203 34.162 -32.203 34.162 -32.758 32.984 C-35.143 25.932 -34.709 17.582 -31.66 10.816 C-24.961 -0.834 -12.332 -3.169 0 0 Z " fill="#394146" transform="translate(715.66015625,493.68359375)"/>
<path d="M0 0 C4.151 2.503 7.078 6.035 9.234 10.348 C10.147 17.755 9.735 23.149 5.137 29.133 C4.509 29.864 3.881 30.595 3.234 31.348 C2.184 32.583 2.184 32.583 1.113 33.844 C-3.637 39.252 -8.663 44.245 -13.766 49.348 C-5.846 49.678 2.074 50.008 10.234 50.348 C10.234 53.978 10.234 57.608 10.234 61.348 C-4.616 61.348 -19.466 61.348 -34.766 61.348 C-34.766 51.348 -34.766 51.348 -32.859 48.43 C-31.575 47.306 -31.575 47.306 -30.266 46.16 C-29.349 45.331 -28.433 44.502 -27.488 43.648 C-26.59 42.889 -25.691 42.13 -24.766 41.348 C-23.411 40.182 -22.057 39.015 -20.703 37.848 C-19.754 37.034 -19.754 37.034 -18.785 36.203 C-9.581 27.921 -9.581 27.921 -5.391 16.785 C-5.474 13.408 -5.474 13.408 -7.203 11.348 C-11.179 9.796 -14.755 9.854 -18.766 11.348 C-20.782 13.588 -21.581 15.514 -22.766 18.348 C-26.726 18.348 -30.686 18.348 -34.766 18.348 C-35.331 12.923 -34.472 9.733 -31.398 5.211 C-23.233 -4.107 -10.836 -4.814 0 0 Z " fill="#384045" transform="translate(552.765625,479.65234375)"/>
<path d="M0 0 C17.16 0 34.32 0 52 0 C52 3.63 52 7.26 52 11 C45.73 11 39.46 11 33 11 C33 27.83 33 44.66 33 62 C28.38 62 23.76 62 19 62 C19 45.17 19 28.34 19 11 C12.73 11 6.46 11 0 11 C0 7.37 0 3.74 0 0 Z " fill="#353D42" transform="translate(306,479)"/>
<path d="M0 0 C4.62 0 9.24 0 14 0 C14.567 17.207 15.099 34.408 15.125 51.625 C15.13 52.862 15.134 54.099 15.139 55.374 C15.137 56.501 15.135 57.628 15.133 58.789 C15.132 59.776 15.131 60.763 15.129 61.78 C15 64 15 64 14 65 C9.38 65 4.76 65 0 65 C0 43.55 0 22.1 0 0 Z " fill="#3E464B" transform="translate(411,477)"/>
<path d="M0 0 C4.556 0.556 4.556 0.556 6 2 C6.188 4.438 6.188 4.438 6 7 C5.34 7.66 4.68 8.32 4 9 C3.629 11.422 3.629 11.422 3.586 14.227 C3.528 15.773 3.528 15.773 3.469 17.352 C3.438 18.432 3.407 19.512 3.375 20.625 C3.317 22.257 3.317 22.257 3.258 23.922 C3.163 26.614 3.078 29.307 3 32 C4.207 32.433 4.207 32.433 5.438 32.875 C8 34 8 34 9 36 C9.407 39.744 9.499 41.368 7.125 44.375 C5 46 5 46 3 46 C3 48.97 3 51.94 3 55 C11.25 55 19.5 55 28 55 C27.449 48.337 27.449 48.337 23.656 44.492 C22.987 43.904 22.317 43.316 21.628 42.71 C20.926 42.104 20.223 41.499 19.5 40.875 C14.365 36.166 11.037 33.003 10.688 25.688 C10.753 24.639 10.819 23.591 10.887 22.512 C10.924 21.683 10.961 20.854 11 20 C10.34 19.34 9.68 18.68 9 18 C9.375 15.375 9.375 15.375 10 13 C12.312 12.312 12.312 12.312 15 12 C16.875 13.125 16.875 13.125 18 15 C17.579 19.421 17.579 19.421 16 21 C14.743 24.975 14.783 28.013 16 32 C18.832 35.567 22.195 38.583 25.664 41.52 C30.796 46.026 30.796 46.026 31.469 49.237 C31.469 51.457 31.469 51.457 31 55 C32.32 55.33 33.64 55.66 35 56 C21.846 59.946 5.476 60.588 -8 58 C-7.67 57.01 -7.34 56.02 -7 55 C-4.36 55 -1.72 55 1 55 C0.8 50.939 0.8 50.939 0 47 C-1.626 45.618 -3.293 44.281 -5 43 C-6.062 40.062 -6.062 40.062 -6 37 C-4.188 34.125 -4.188 34.125 -2 32 C-1.34 32 -0.68 32 0 32 C-0.138 28.021 -0.287 24.042 -0.438 20.062 C-0.477 18.926 -0.516 17.79 -0.557 16.619 C-0.599 15.54 -0.64 14.46 -0.684 13.348 C-0.72 12.347 -0.757 11.347 -0.795 10.317 C-0.747 8.039 -0.747 8.039 -2 7 C-2.188 4.562 -2.188 4.562 -2 2 C-1.34 1.34 -0.68 0.68 0 0 Z " fill="#E0E1E2" transform="translate(792,521)"/>
<path d="M0 0 C4.382 3.689 8.589 7.726 11 13 C11 13.99 11 14.98 11 16 C7.465 14.561 5.994 12.881 3.875 9.75 C-1.479 2.618 -9.436 -1.709 -18 -4 C-21.47 -4.405 -24.885 -4.421 -28.375 -4.375 C-29.257 -4.387 -30.138 -4.398 -31.047 -4.41 C-37.465 -4.382 -42.962 -3.14 -49 -1 C-49 -0.34 -49 0.32 -49 1 C-48.01 1.33 -47.02 1.66 -46 2 C-46 4.333 -46 6.667 -46 9 C-45.67 9.99 -45.34 10.98 -45 12 C-46.65 12 -48.3 12 -50 12 C-50 13.32 -50 14.64 -50 16 C-51.459 15.913 -52.918 15.805 -54.375 15.688 C-55.187 15.629 -55.999 15.571 -56.836 15.512 C-59 15 -59 15 -61 12 C-61.66 12 -62.32 12 -63 12 C-64.332 13.685 -64.332 13.685 -65.562 15.812 C-66.214 16.874 -66.214 16.874 -66.879 17.957 C-71.198 25.827 -70.169 38.913 -68.211 47.434 C-67.284 49.758 -66.288 51.858 -65 54 C-64.423 54.99 -63.845 55.98 -63.25 57 C-62.837 57.66 -62.425 58.32 -62 59 C-62 59.66 -62 60.32 -62 61 C-63.84 60.777 -63.84 60.777 -66 60 C-72.99 50.198 -75.356 37.766 -74 26 C-70.441 12.494 -63.967 3.174 -52 -4 C-36.78 -12.729 -14.067 -9.426 0 0 Z " fill="#E2E3E4" transform="translate(840,460)"/>
<path d="M0 0 C2.562 0.188 2.562 0.188 4.562 2.188 C4.688 4.812 4.688 4.812 4.562 7.188 C3.572 7.518 2.583 7.847 1.562 8.188 C1.562 16.107 1.562 24.028 1.562 32.188 C3.213 32.847 4.863 33.508 6.562 34.188 C7.983 37.028 7.877 39.042 7.562 42.188 C5.688 44.562 5.688 44.562 3.562 46.188 C2.903 46.188 2.243 46.188 1.562 46.188 C1.562 49.158 1.562 52.128 1.562 55.188 C3.213 55.188 4.863 55.188 6.562 55.188 C6.233 56.178 5.903 57.168 5.562 58.188 C-15.519 59.829 -15.519 59.829 -24.438 58.188 C-25.097 57.528 -25.757 56.867 -26.438 56.188 C-25.438 55.188 -25.438 55.188 -23.121 55.074 C-22.121 55.079 -21.12 55.084 -20.09 55.09 C-19.01 55.093 -17.931 55.096 -16.818 55.1 C-15.114 55.112 -15.114 55.112 -13.375 55.125 C-11.665 55.132 -11.665 55.132 -9.92 55.139 C-7.092 55.151 -4.265 55.167 -1.438 55.188 C-1.438 52.217 -1.438 49.247 -1.438 46.188 C-2.757 45.528 -4.077 44.867 -5.438 44.188 C-7.438 42.188 -7.438 42.188 -7.812 39.312 C-7.438 36.188 -7.438 36.188 -5.562 33.812 C-3.438 32.188 -3.438 32.188 -1.438 32.188 C-1.547 28.416 -1.678 24.646 -1.812 20.875 C-1.843 19.803 -1.874 18.731 -1.906 17.627 C-1.945 16.599 -1.984 15.571 -2.023 14.512 C-2.055 13.564 -2.086 12.616 -2.119 11.639 C-2.286 8.934 -2.286 8.934 -4.438 6.188 C-3.735 0.287 -3.735 0.287 0 0 Z M-12 12 C-9.438 12.188 -9.438 12.188 -7.438 14.188 C-7.25 16.75 -7.25 16.75 -7.438 19.188 C-7.767 19.518 -8.097 19.847 -8.438 20.188 C-8.368 20.984 -8.298 21.781 -8.227 22.602 C-7.978 27.465 -7.943 31.222 -10.937 35.158 C-13.518 37.898 -16.215 40.439 -19.065 42.897 C-23.552 46.725 -23.552 46.725 -25.406 52.133 C-25.417 53.141 -25.427 54.149 -25.438 55.188 C-26.428 54.857 -27.417 54.528 -28.438 54.188 C-28.902 51.137 -28.902 51.137 -28.438 47.188 C-26.292 44.424 -23.649 42.271 -21 40 C-14.254 33.886 -14.254 33.886 -12 25.25 C-12.072 22.421 -12.072 22.421 -12.438 20.188 C-13.428 19.857 -14.417 19.528 -15.438 19.188 C-15.48 17.188 -15.478 15.187 -15.438 13.188 C-14.438 12.188 -14.438 12.188 -12 12 Z M-28.438 55.188 C-26.438 56.188 -26.438 56.188 -26.438 56.188 Z " fill="#DADCDD" transform="translate(234.4375,520.8125)"/>
<path d="M0 0 C8.607 6.438 13.041 14.749 16.387 24.785 C17.28 34.969 17.754 45.773 12.387 54.785 C11.867 55.736 11.867 55.736 11.336 56.707 C10.324 58.41 10.324 58.41 8.387 60.785 C7.397 60.785 6.407 60.785 5.387 60.785 C7.054 56.442 9.101 52.397 11.266 48.285 C14.866 40.256 14.406 29.958 11.387 21.785 C10.418 19.665 9.393 17.6 8.289 15.547 C7.387 13.785 7.387 13.785 6.387 10.785 C5.995 11.28 5.603 11.775 5.199 12.285 C2.836 14.241 1.372 14.027 -1.613 13.785 C-1.613 14.775 -1.613 15.765 -1.613 16.785 C-3.263 16.785 -4.913 16.785 -6.613 16.785 C-6.613 15.465 -6.613 14.145 -6.613 12.785 C-8.263 12.785 -9.913 12.785 -11.613 12.785 C-11.107 10.616 -10.613 8.785 -9.613 6.785 C-10.273 6.785 -10.933 6.785 -11.613 6.785 C-11.613 5.465 -11.613 4.145 -11.613 2.785 C-10.293 2.785 -8.973 2.785 -7.613 2.785 C-8.253 -0.273 -8.253 -0.273 -10.335 -1.149 C-16.12 -3.035 -21.351 -3.727 -27.426 -3.652 C-28.3 -3.644 -29.175 -3.636 -30.075 -3.627 C-42.58 -3.302 -51.798 0.654 -60.465 9.723 C-62.46 11.992 -64.259 14.077 -65.613 16.785 C-66.603 16.785 -67.593 16.785 -68.613 16.785 C-66.463 9.141 -59.085 2.139 -52.613 -2.215 C-36.174 -10.293 -15.493 -9.899 0 0 Z " fill="#E0E1E2" transform="translate(245.61328125,459.21484375)"/>
<path d="M0 0 C2.523 0.435 3.732 0.709 5.5 2.625 C5.995 3.079 6.49 3.533 7 4 C9.163 3.772 9.163 3.772 11 3 C12.062 4.812 12.062 4.812 13 7 C12.67 7.99 12.34 8.98 12 10 C12.99 10.33 13.98 10.66 15 11 C15.33 12.65 15.66 14.3 16 16 C15.01 16.66 14.02 17.32 13 18 C13 18.804 13 19.609 13 20.438 C13 23 13 23 11.812 24.875 C10 26 10 26 7.312 25.688 C6.549 25.461 5.786 25.234 5 25 C5 25.99 5 26.98 5 28 C4.34 28.66 3.68 29.32 3 30 C3.516 30.908 4.031 31.815 4.562 32.75 C6 36 6 36 5.688 38.375 C5.461 38.911 5.234 39.447 5 40 C3.02 40.495 3.02 40.495 1 41 C1 40.34 1 39.68 1 39 C1.66 39 2.32 39 3 39 C3 38.34 3 37.68 3 37 C2.01 36.67 1.02 36.34 0 36 C0.041 34.907 0.082 33.814 0.125 32.688 C0.321 28.911 0.321 28.911 -2 26 C-4.584 25.75 -4.584 25.75 -7 26 C-7.33 26.66 -7.66 27.32 -8 28 C-8.058 24.604 -8.094 21.209 -8.125 17.812 C-8.142 16.853 -8.159 15.893 -8.176 14.904 C-8.182 13.973 -8.189 13.042 -8.195 12.082 C-8.206 11.228 -8.216 10.375 -8.227 9.495 C-7.972 6.693 -7.155 4.553 -6 2 C-4.68 2.33 -3.36 2.66 -2 3 C-1.34 2.01 -0.68 1.02 0 0 Z " fill="#239DDE" transform="translate(778,476)"/>
<path d="M0 0 C1.65 0.33 3.3 0.66 5 1 C5 1.99 5 2.98 5 4 C6.65 3.34 8.3 2.68 10 2 C13.148 9.136 13.428 16.29 13 24 C12.67 24.66 12.34 25.32 12 26 C10.02 25.67 8.04 25.34 6 25 C5.67 26.32 5.34 27.64 5 29 C3.35 29 1.7 29 0 29 C-0.66 27.68 -1.32 26.36 -2 25 C-3.65 25.33 -5.3 25.66 -7 26 C-8.429 23.646 -9.087 22.52 -8.625 19.75 C-8.419 19.173 -8.213 18.595 -8 18 C-8.99 18 -9.98 18 -11 18 C-11 16.02 -11 14.04 -11 12 C-10.01 11.67 -9.02 11.34 -8 11 C-8.309 9.824 -8.309 9.824 -8.625 8.625 C-8.749 7.759 -8.873 6.892 -9 6 C-7 4 -7 4 -4.375 3.875 C-3.591 3.916 -2.808 3.957 -2 4 C-1.34 2.68 -0.68 1.36 0 0 Z " fill="#249DDF" transform="translate(247,476)"/>
<path d="M0 0 C0.625 2.312 0.625 2.312 1 5 C0.01 6.485 0.01 6.485 -1 8 C-2.328 11.992 -2.292 14.992 -1 19 C1.845 22.555 5.196 25.583 8.664 28.521 C13.796 33.025 13.796 33.025 14.469 36.237 C14.469 38.457 14.469 38.457 14 42 C15.32 42.33 16.64 42.66 18 43 C4.846 46.946 -11.524 47.588 -25 45 C-24.67 44.01 -24.34 43.02 -24 42 C-12.45 42 -0.9 42 11 42 C10.449 35.337 10.449 35.337 6.656 31.492 C5.987 30.904 5.317 30.316 4.628 29.71 C3.926 29.104 3.223 28.499 2.5 27.875 C-2.635 23.166 -5.963 20.003 -6.312 12.688 C-6.247 11.639 -6.181 10.591 -6.113 9.512 C-6.076 8.683 -6.039 7.854 -6 7 C-6.66 6.34 -7.32 5.68 -8 5 C-7.75 2.438 -7.75 2.438 -7 0 C-4.333 -1.333 -2.833 -0.671 0 0 Z " fill="#DBDDDE" transform="translate(809,534)"/>
<path d="M0 0 C8.91 0 17.82 0 27 0 C27 3.63 27 7.26 27 11 C18.09 11 9.18 11 0 11 C0 7.37 0 3.74 0 0 Z " fill="#3C4448" transform="translate(570,510)"/>
<path d="M0 0 C6.93 0 13.86 0 21 0 C21 0.99 21 1.98 21 3 C15.72 3 10.44 3 5 3 C5.206 4.609 5.412 6.217 5.625 7.875 C5.667 11.939 5.287 13.611 2.844 16.922 C-3.137 22.868 -6.211 25.054 -14.492 25.523 C-17.381 26.072 -18.726 27.198 -21 29 C-23.625 29 -23.625 29 -26 28 C-27.438 25.688 -27.438 25.688 -28 23 C-27.375 20.75 -27.375 20.75 -26 19 C-24.125 18.062 -24.125 18.062 -22 18 C-21.107 18.719 -21.107 18.719 -20.195 19.453 C-16.805 21.842 -13.891 21.721 -9.836 21.602 C-5.54 20.69 -3.31 18.629 -0.461 15.379 C1.893 11.546 2 8.458 2 4 C1.469 4.482 0.938 4.964 0.391 5.461 C-0.316 6.093 -1.022 6.724 -1.75 7.375 C-2.446 8.001 -3.142 8.628 -3.859 9.273 C-5.845 10.875 -7.68 11.965 -10 13 C-9.424 9.432 -8.13 7.748 -5.562 5.25 C-4.945 4.636 -4.328 4.023 -3.691 3.391 C-2 2 -2 2 0 2 C0 1.34 0 0.68 0 0 Z " fill="#CED0D1" transform="translate(212,492)"/>
<path d="M0 0 C8.58 0 17.16 0 26 0 C26 3.63 26 7.26 26 11 C17.42 11 8.84 11 0 11 C0 7.37 0 3.74 0 0 Z " fill="#343D42" transform="translate(485,510)"/>
<path d="M0 0 C2.562 0.188 2.562 0.188 4.562 2.188 C4.688 4.812 4.688 4.812 4.562 7.188 C3.572 7.518 2.583 7.847 1.562 8.188 C1.562 16.107 1.562 24.028 1.562 32.188 C3.213 32.847 4.863 33.508 6.562 34.188 C7.983 37.028 7.877 39.042 7.562 42.188 C5.562 44.562 5.562 44.562 3.562 46.188 C3.232 45.528 2.903 44.867 2.562 44.188 C1.799 44.27 1.036 44.352 0.25 44.438 C-2.438 44.188 -2.438 44.188 -4.25 42.188 C-4.642 41.528 -5.034 40.867 -5.438 40.188 C-6.097 40.847 -6.757 41.508 -7.438 42.188 C-7.774 38.485 -7.915 36.792 -5.562 33.812 C-3.438 32.188 -3.438 32.188 -1.438 32.188 C-1.547 28.416 -1.678 24.646 -1.812 20.875 C-1.843 19.803 -1.874 18.731 -1.906 17.627 C-1.945 16.599 -1.984 15.571 -2.023 14.512 C-2.055 13.564 -2.086 12.616 -2.119 11.639 C-2.286 8.934 -2.286 8.934 -4.438 6.188 C-3.735 0.287 -3.735 0.287 0 0 Z " fill="#C6C9CB" transform="translate(234.4375,520.8125)"/>
<path d="M0 0 C18.203 -1.913 18.203 -1.913 23.777 2.449 C26.522 5.057 28.816 7.914 31 11 C30.67 11.99 30.34 12.98 30 14 C28.894 13.064 27.791 12.126 26.688 11.188 C25.765 10.404 25.765 10.404 24.824 9.605 C23.146 8.128 21.561 6.6 20 5 C19.403 9.179 19.184 11.648 21.395 15.312 C24.275 18.598 26.513 20.705 30.875 21.57 C35.455 21.656 38.129 21.581 42 19 C44.688 19.375 44.688 19.375 47 20 C47.381 21.991 47.713 23.993 48 26 C47 27 47 27 43.438 27.062 C42.303 27.042 41.169 27.021 40 27 C40 26.34 40 25.68 40 25 C39.189 25.128 38.378 25.255 37.543 25.387 C32.109 25.874 28.409 25.877 23.688 22.938 C19.682 19.512 16.453 16.117 15.32 10.82 C15.312 7.812 15.312 7.812 16 3 C10.39 3 4.78 3 -1 3 C-0.67 2.01 -0.34 1.02 0 0 Z " fill="#C3C5C8" transform="translate(796,492)"/>
<path d="M0 0 C0.33 0 0.66 0 1 0 C1 3.3 1 6.6 1 10 C0.67 10 0.34 10 0 10 C0 6.7 0 3.4 0 0 Z M-44 10 C-29.48 10 -14.96 10 0 10 C0 10.33 0 10.66 0 11 C-2.31 11 -4.62 11 -7 11 C-7.082 11.619 -7.165 12.237 -7.25 12.875 C-8 15 -8 15 -9.766 16.094 C-16.735 18.92 -26.635 18.875 -34 18 C-36.793 16.672 -36.793 16.672 -39 15 C-39.33 14.01 -39.66 13.02 -40 12 C-41.32 11.34 -42.64 10.68 -44 10 Z " fill="#C7CACC" transform="translate(563,531)"/>
<path d="M0 0 C2.375 0.75 2.375 0.75 3.375 1.75 C3.416 3.416 3.418 5.084 3.375 6.75 C2.49 7.14 1.605 7.529 0.693 7.931 C-2.852 9.874 -4.98 11.89 -7.707 14.855 C-8.648 15.849 -9.59 16.842 -10.533 17.834 C-11.992 19.385 -13.442 20.942 -14.876 22.515 C-22.959 31.335 -22.959 31.335 -27.33 32.424 C-29.824 32.426 -29.824 32.426 -33.625 31.75 C-34.285 33.07 -34.945 34.39 -35.625 35.75 C-41.5 34.875 -41.5 34.875 -42.625 33.75 C-42.812 30.812 -42.812 30.812 -42.625 27.75 C-41.965 27.09 -41.305 26.43 -40.625 25.75 C-37.328 26.08 -36.002 26.373 -33.625 28.75 C-29.505 29.252 -27.379 29.262 -23.903 26.902 C-23.059 26.054 -22.216 25.206 -21.348 24.332 C-20.423 23.407 -19.498 22.482 -18.545 21.529 C-18.076 21.042 -17.608 20.555 -17.125 20.052 C-15.688 18.563 -14.221 17.108 -12.748 15.654 C-7.645 11.104 -7.645 11.104 -5.427 5.05 C-5.493 4.291 -5.558 3.532 -5.625 2.75 C-3.897 0.021 -3.252 -0.31 0 0 Z " fill="#D7DBDD" transform="translate(227.625,500.25)"/>
<path d="M0 0 C-0.33 0.99 -0.66 1.98 -1 3 C-1.536 2.86 -2.072 2.72 -2.624 2.576 C-15.184 -0.49 -30.299 -1.111 -42 5 C-48.269 8.939 -54.632 14.263 -58 21 C-58.99 21 -59.98 21 -61 21 C-58.85 13.356 -51.472 6.353 -45 2 C-31.824 -4.474 -13.653 -6.036 0 0 Z " fill="#E1E2E3" transform="translate(238,455)"/>
<path d="M0 0 C2.625 0.375 2.625 0.375 5 1 C5.124 1.568 5.247 2.137 5.375 2.723 C6.908 8.462 8.904 11.34 13.555 14.961 C15.53 16.608 17.204 18.226 18.945 20.102 C19.46 20.65 19.975 21.199 20.506 21.764 C21.525 22.86 22.532 23.968 23.523 25.089 C26.241 27.962 27.639 28.962 31.625 29.379 C35.098 28.989 38.551 28.563 42 28 C43.125 31.75 43.125 31.75 42 34 C40.35 34 38.7 34 37 34 C37 33.34 37 32.68 37 32 C36.264 32.058 35.528 32.116 34.77 32.176 C26.716 32.548 26.716 32.548 23.062 29.75 C22.382 28.842 21.701 27.935 21 27 C20.237 26.278 19.474 25.556 18.688 24.812 C17 23 17 23 17 21 C16.432 20.763 15.863 20.526 15.277 20.281 C11.641 18.236 9.143 15.122 6.316 12.094 C3.932 9.939 2.01 9.033 -1 8 C-2 7 -2 7 -2.188 4.562 C-2 2 -2 2 0 0 Z " fill="#D5D7D8" transform="translate(800,500)"/>
<path d="M0 0 C3.5 0.812 3.5 0.812 5.438 1.938 C7.15 4.96 6.857 7.418 6.5 10.812 C5.438 13.188 5.438 13.188 3.5 14.812 C0.125 15.812 0.125 15.812 -3.5 15.812 C-6.682 14.014 -8.111 12.761 -9.5 9.375 C-9.5 6.018 -8.508 4.466 -6.5 1.812 C-3.5 -0.188 -3.5 -0.188 0 0 Z " fill="#374046" transform="translate(780.5,483.1875)"/>
<path d="M0 0 C3.5 0.812 3.5 0.812 5.438 1.938 C7.15 4.96 6.857 7.418 6.5 10.812 C5.438 13.188 5.438 13.188 3.5 14.812 C0.125 15.812 0.125 15.812 -3.5 15.812 C-6.682 14.014 -8.111 12.761 -9.5 9.375 C-9.5 6.018 -8.508 4.466 -6.5 1.812 C-3.5 -0.188 -3.5 -0.188 0 0 Z " fill="#36434B" transform="translate(250.5,483.1875)"/>
<path d="M0 0 C1.013 0.005 2.026 0.009 3.07 0.014 C5.547 0.025 8.023 0.042 10.5 0.062 C8.885 2.851 7.493 4.705 4.399 5.818 C-1.884 7.144 -8.222 7.472 -14.625 7.688 C-15.581 7.726 -16.538 7.765 -17.523 7.805 C-19.849 7.898 -22.174 7.984 -24.5 8.062 C-23.695 4.273 -23.695 4.273 -21.938 2.375 C-15.57 -1.054 -7.037 -0.06 0 0 Z " fill="#CDD7DC" transform="translate(907.5,488.9375)"/>
<path d="M0 0 C0.33 0 0.66 0 1 0 C1 1.98 1 3.96 1 6 C5.29 6 9.58 6 14 6 C12.68 6.33 11.36 6.66 10 7 C8.716 8.984 8.716 8.984 8 11 C7.299 10.893 6.598 10.786 5.875 10.676 C0.077 9.943 -3.881 9.928 -9.23 12.281 C-11.995 13.404 -14.067 13.446 -17 13 C-22.579 9.842 -22.579 9.842 -24 7 C-19.225 5.859 -14.813 6.046 -9.938 6.258 C-6.495 5.956 -4.752 5.055 -2 3 C-1.34 2.01 -0.68 1.02 0 0 Z " fill="#D2D4D6" transform="translate(386,535)"/>
<path d="M0 0 C4.417 -0.087 8.833 -0.14 13.25 -0.188 C14.504 -0.213 15.759 -0.238 17.051 -0.264 C18.859 -0.278 18.859 -0.278 20.703 -0.293 C22.368 -0.317 22.368 -0.317 24.067 -0.341 C27.35 0.041 28.682 0.682 31 3 C31.33 3.99 31.66 4.98 32 6 C27.44 7.52 23.013 6.954 18.25 6.75 C16.784 6.709 16.784 6.709 15.289 6.668 C9.487 6.426 5.167 5.684 0 3 C0 2.01 0 1.02 0 0 Z M33 5 C35 6 35 6 35 6 Z " fill="#C9D6DD" transform="translate(111,489)"/>
<path d="M0 0 C3.875 1.875 3.875 1.875 5 3 C6.477 3.099 7.958 3.131 9.438 3.133 C10.779 3.135 10.779 3.135 12.148 3.137 C13.56 3.131 13.56 3.131 15 3.125 C15.941 3.129 16.882 3.133 17.852 3.137 C18.746 3.135 19.641 3.134 20.562 3.133 C21.802 3.131 21.802 3.131 23.066 3.129 C25.007 3.213 25.007 3.213 26 2 C28.438 1.812 28.438 1.812 31 2 C31.66 2.66 32.32 3.32 33 4 C32.444 8.556 32.444 8.556 31 10 C28.562 10.188 28.562 10.188 26 10 C25.34 9.34 24.68 8.68 24 8 C21.936 7.663 21.936 7.663 19.57 7.656 C18.692 7.627 17.815 7.597 16.91 7.566 C15.991 7.544 15.072 7.523 14.125 7.5 C12.315 7.456 10.505 7.405 8.695 7.344 C7.489 7.316 7.489 7.316 6.258 7.287 C3.8 6.975 2.137 6.225 0 5 C-0.398 5.505 -0.797 6.011 -1.207 6.531 C-1.737 7.181 -2.267 7.831 -2.812 8.5 C-3.335 9.15 -3.857 9.799 -4.395 10.469 C-6 12 -6 12 -9 12 C-7.472 8.562 -5.498 5.81 -3 3 C-2.34 3 -1.68 3 -1 3 C-0.67 2.01 -0.34 1.02 0 0 Z " fill="#C4C6C9" transform="translate(810,470)"/>
<path d="M0 0 C5.154 1.364 8.066 4.726 11 9 C11 9.66 11 10.32 11 11 C7.634 9.557 5.49 7.667 3 5 C2.082 5.491 2.082 5.491 1.145 5.992 C-3.356 7.435 -7.62 7.211 -12.312 7.125 C-13.244 7.116 -14.175 7.107 -15.135 7.098 C-17.423 7.074 -19.712 7.041 -22 7 C-22.33 7.99 -22.66 8.98 -23 10 C-25.375 10.125 -25.375 10.125 -28 10 C-28.66 9.34 -29.32 8.68 -30 8 C-29.625 4.875 -29.625 4.875 -29 2 C-27 1.957 -25 1.959 -23 2 C-22.67 2.33 -22.34 2.66 -22 3 C-20.514 3.157 -19.021 3.251 -17.527 3.316 C-16.179 3.379 -16.179 3.379 -14.803 3.443 C-13.384 3.502 -13.384 3.502 -11.938 3.562 C-10.988 3.606 -10.039 3.649 -9.061 3.693 C-6.707 3.8 -4.354 3.902 -2 4 C-1.34 2.68 -0.68 1.36 0 0 Z " fill="#C9CCCE" transform="translate(216,470)"/>
<path d="M0 0 C6.153 5.068 9.512 12.535 12 20 C12.893 30.184 13.367 40.988 8 50 C7.653 50.634 7.306 51.268 6.949 51.922 C5.938 53.625 5.938 53.625 4 56 C3.01 56 2.02 56 1 56 C2.667 51.657 4.714 47.612 6.879 43.5 C10.479 35.471 10.019 25.173 7 17 C6.032 14.879 5.006 12.815 3.902 10.762 C3 9 3 9 2 6 C1.34 5.67 0.68 5.34 0 5 C0 3.35 0 1.7 0 0 Z " fill="#D7D9DA" transform="translate(250,464)"/>
<path d="M0 0 C1.333 2 2.667 4 4 6 C6.475 6.495 6.475 6.495 9 7 C8.67 10.63 8.34 14.26 8 18 C9.65 18 11.3 18 13 18 C12.505 19.485 12.505 19.485 12 21 C-9.081 22.641 -9.081 22.641 -18 21 C-18.66 20.34 -19.32 19.68 -20 19 C-19 18 -19 18 -16.683 17.886 C-15.683 17.892 -14.683 17.897 -13.652 17.902 C-12.573 17.906 -11.493 17.909 -10.381 17.912 C-8.676 17.925 -8.676 17.925 -6.938 17.938 C-5.227 17.944 -5.227 17.944 -3.482 17.951 C-0.655 17.963 2.173 17.979 5 18 C5 15.03 5 12.06 5 9 C3.68 8.34 2.36 7.68 1 7 C0 6 0 6 -0.062 2.938 C-0.042 1.968 -0.021 0.999 0 0 Z M-20 12 C-19.67 12 -19.34 12 -19 12 C-19 13.98 -19 15.96 -19 18 C-19.33 18 -19.66 18 -20 18 C-20 16.02 -20 14.04 -20 12 Z M-22 18 C-20 19 -20 19 -20 19 Z " fill="#D7D9DB" transform="translate(228,558)"/>
<path d="M0 0 C17.16 0 34.32 0 52 0 C52 0.33 52 0.66 52 1 C34.84 1 17.68 1 0 1 C0 0.67 0 0.34 0 0 Z M52 1 C52.33 1 52.66 1 53 1 C53 4.63 53 8.26 53 12 C52.67 12 52.34 12 52 12 C52 8.37 52 4.74 52 1 Z M33 12 C39.27 12 45.54 12 52 12 C52 12.33 52 12.66 52 13 C49.69 13 47.38 13 45 13 C44.567 14.207 44.567 14.207 44.125 15.438 C43 18 43 18 41 19 C38.667 19.04 36.333 19.043 34 19 C34 21.31 34 23.62 34 26 C33.67 26 33.34 26 33 26 C33 21.38 33 16.76 33 12 Z " fill="#AEB2B5" transform="translate(306,478)"/>
<path d="M0 0 C0.197 3.408 0.327 6.172 -0.938 9.375 C-4.238 11.975 -7.87 12.224 -12 12 C-14.562 10.562 -14.562 10.562 -16 9 C-15.652 6.425 -15.29 4.452 -13.875 2.25 C-9.871 -0.419 -4.676 -0.142 0 0 Z " fill="#D6D8D9" transform="translate(386,520)"/>
<path d="M0 0 C2.921 2.662 5.031 5.743 7.25 9 C7.977 10.052 8.704 11.104 9.453 12.188 C9.964 13.116 10.474 14.044 11 15 C10.67 15.99 10.34 16.98 10 18 C7.085 16.926 5.222 16.222 3 14 C1.016 13.286 -0.983 12.614 -3 12 C-3 14.31 -3 16.62 -3 19 C-3.33 19 -3.66 19 -4 19 C-4.108 16.582 -4.187 14.169 -4.25 11.75 C-4.284 11.068 -4.317 10.386 -4.352 9.684 C-4.422 6.078 -4.292 4.359 -1.984 1.516 C-1.33 1.015 -0.675 0.515 0 0 Z M-17 19 C-12.71 19 -8.42 19 -4 19 C-4 19.33 -4 19.66 -4 20 C-8.29 20 -12.58 20 -17 20 C-17 19.67 -17 19.34 -17 19 Z " fill="#CBCDD0" transform="translate(454,522)"/>
<path d="M0 0 C0.559 0.217 1.119 0.433 1.695 0.656 C12.269 4.328 22.655 4.281 33 0 C32.411 2.651 31.651 4.454 29.543 6.223 C23.418 9.82 16.916 9.862 10 9 C5.208 7.537 1.547 5.457 -1 1 C-0.67 0.67 -0.34 0.34 0 0 Z " fill="#D3D5D7" transform="translate(689,538)"/>
<path d="M0 0 C3.125 0.375 3.125 0.375 6 1 C6.188 3.875 6.188 3.875 6 7 C3 9 3 9 0.875 8.688 C-1 8 -1 8 -2 7 C-3.925 6.842 -5.855 6.749 -7.785 6.684 C-8.955 6.642 -10.125 6.6 -11.33 6.557 C-13.178 6.498 -13.178 6.498 -15.062 6.438 C-16.916 6.373 -16.916 6.373 -18.807 6.307 C-21.871 6.2 -24.935 6.098 -28 6 C-28.33 5.01 -28.66 4.02 -29 3 C-27.789 2.97 -27.789 2.97 -26.553 2.94 C-22.91 2.845 -19.268 2.735 -15.625 2.625 C-14.354 2.594 -13.083 2.563 -11.773 2.531 C-10.562 2.493 -9.35 2.454 -8.102 2.414 C-6.981 2.383 -5.86 2.351 -4.706 2.319 C-1.853 2.266 -1.853 2.266 0 0 Z " fill="#92C0D7" transform="translate(824,482)"/>
<path d="M0 0 C0.99 0.33 1.98 0.66 3 1 C3 3.31 3 5.62 3 8 C5.646 7.86 8.292 7.713 10.938 7.562 C11.692 7.523 12.447 7.484 13.225 7.443 C16.919 7.56 16.919 7.56 20 6 C22.438 5.812 22.438 5.812 25 6 C25.66 6.66 26.32 7.32 27 8 C26.444 12.556 26.444 12.556 25 14 C22.562 14.188 22.562 14.188 20 14 C19.34 13.34 18.68 12.68 18 12 C15.123 11.719 12.321 11.534 9.438 11.438 C1.12 11.12 1.12 11.12 0 10 C-0.072 8.314 -0.084 6.625 -0.062 4.938 C-0.053 4.018 -0.044 3.099 -0.035 2.152 C-0.024 1.442 -0.012 0.732 0 0 Z " fill="#C7CACC" transform="translate(823,535)"/>
<path d="M0 0 C0 3.63 0 7.26 0 11 C-5.61 11 -11.22 11 -17 11 C-17.33 11.99 -17.66 12.98 -18 14 C-20 14.043 -22 14.041 -24 14 C-25 13 -25 13 -25.25 10.062 C-25.167 9.052 -25.085 8.041 -25 7 C-22 5 -22 5 -19.875 5.312 C-18 6 -18 6 -17 7 C-14.65 7.235 -12.294 7.414 -9.938 7.562 C-8.002 7.688 -8.002 7.688 -6.027 7.816 C-4.529 7.907 -4.529 7.907 -3 8 C-3 5.69 -3 3.38 -3 1 C-1 0 -1 0 0 0 Z " fill="#EFF0F0" transform="translate(205,535)"/>
<path d="M0 0 C2.625 0.375 2.625 0.375 5 1 C5.688 3.312 5.688 3.312 6 6 C4.875 7.875 4.875 7.875 3 9 C0.312 8.688 0.312 8.688 -2 8 C-2 7.34 -2 6.68 -2 6 C-7.208 5.757 -11.415 5.752 -15.629 9.07 C-17.173 10.693 -18.675 12.358 -20.125 14.066 C-20.744 14.704 -21.362 15.343 -22 16 C-22.99 16 -23.98 16 -25 16 C-22.594 10.58 -18.827 6.407 -14 3 C-10.729 2.247 -7.854 2.059 -4.504 2.098 C-1.824 2.277 -1.824 2.277 0 0 Z " fill="#D5D6D8" transform="translate(821,460)"/>
<path d="M0 0 C1.875 0.688 1.875 0.688 2.875 1.688 C3.669 1.688 4.463 1.688 5.281 1.688 C11.728 1.688 15.378 2.391 20.062 7 C22.641 9.811 24.291 11.879 24.875 15.688 C21.64 14.304 19.999 12.781 17.812 10.062 C15.519 7.665 14.343 6.775 11.047 6.16 C8.229 6.127 5.646 6.168 2.875 6.688 C2.215 7.348 1.555 8.007 0.875 8.688 C-3.681 8.132 -3.681 8.132 -5.125 6.688 C-5.375 4.25 -5.375 4.25 -5.125 1.688 C-2.125 -0.312 -2.125 -0.312 0 0 Z " fill="#CACCCE" transform="translate(207.125,460.3125)"/>
<path d="M0 0 C0.33 0.33 0.66 0.66 1 1 C2.925 1.158 4.855 1.251 6.785 1.316 C7.955 1.358 9.125 1.4 10.33 1.443 C12.178 1.502 12.178 1.502 14.062 1.562 C15.298 1.606 16.534 1.649 17.807 1.693 C20.871 1.8 23.935 1.902 27 2 C26.67 2.99 26.34 3.98 26 5 C25.248 5.025 24.496 5.05 23.721 5.076 C20.335 5.192 16.949 5.314 13.562 5.438 C12.378 5.477 11.194 5.516 9.975 5.557 C8.288 5.619 8.288 5.619 6.566 5.684 C5.524 5.72 4.482 5.757 3.408 5.795 C1.05 5.735 1.05 5.735 0 7 C-2.438 7.188 -2.438 7.188 -5 7 C-5.66 6.34 -6.32 5.68 -7 5 C-6.75 2.438 -6.75 2.438 -6 0 C-3.497 -1.251 -2.597 -0.838 0 0 Z " fill="#D5D7D9" transform="translate(206,483)"/>
<path d="M0 0 C3.343 0.533 5.048 1.82 7.23 4.355 C7.23 5.675 7.23 6.995 7.23 8.355 C0.96 8.355 -5.31 8.355 -11.77 8.355 C-8.933 1.264 -7.445 -0.255 0 0 Z " fill="#DEDFE1" transform="translate(707.76953125,503.64453125)"/>
<path d="M0 0 C11.55 0 23.1 0 35 0 C35 0.99 35 1.98 35 3 C31.063 3.2 27.125 3.383 23.188 3.562 C22.087 3.619 20.987 3.675 19.854 3.732 C12.802 4.044 6.009 3.845 -1 3 C-0.67 2.01 -0.34 1.02 0 0 Z " fill="#D6D8DA" transform="translate(785,576)"/>
<path d="M0 0 C2.562 0.188 2.562 0.188 4.562 2.188 C4.875 4.688 4.875 4.688 4.562 7.188 C3.572 7.847 2.583 8.508 1.562 9.188 C1.146 11.706 1.146 11.706 1.27 14.633 C1.284 16.247 1.284 16.247 1.299 17.895 C1.324 19.022 1.349 20.15 1.375 21.312 C1.389 22.448 1.402 23.584 1.416 24.754 C1.451 27.566 1.501 30.376 1.562 33.188 C0.572 33.188 -0.417 33.188 -1.438 33.188 C-1.457 32.476 -1.477 31.765 -1.498 31.032 C-1.593 27.813 -1.702 24.594 -1.812 21.375 C-1.859 19.696 -1.859 19.696 -1.906 17.982 C-1.945 16.909 -1.984 15.836 -2.023 14.73 C-2.055 13.741 -2.086 12.751 -2.119 11.731 C-2.275 8.947 -2.275 8.947 -4.438 6.188 C-3.735 0.287 -3.735 0.287 0 0 Z " fill="#D4D5D7" transform="translate(234.4375,520.8125)"/>
<path d="M0 0 C6.93 0 13.86 0 21 0 C21 0.99 21 1.98 21 3 C19.88 3.037 18.76 3.075 17.605 3.113 C16.133 3.179 14.66 3.245 13.188 3.312 C12.45 3.335 11.712 3.358 10.951 3.381 C6.669 3.556 6.669 3.556 2.988 5.543 C2.662 6.024 2.336 6.505 2 7 C2 6.01 2 5.02 2 4 C1.469 4.482 0.938 4.964 0.391 5.461 C-0.669 6.408 -0.669 6.408 -1.75 7.375 C-2.446 8.001 -3.142 8.628 -3.859 9.273 C-5.845 10.875 -7.68 11.965 -10 13 C-9.424 9.432 -8.13 7.748 -5.562 5.25 C-4.945 4.636 -4.328 4.023 -3.691 3.391 C-2 2 -2 2 0 2 C0 1.34 0 0.68 0 0 Z " fill="#D8DADB" transform="translate(212,492)"/>
<path d="M0 0 C10.36 1.322 18.378 7.145 25 15 C28 19.219 28 19.219 28 23 C24.465 21.561 22.994 19.881 20.875 16.75 C15.309 9.337 7.616 5.872 -1 3 C-0.67 2.01 -0.34 1.02 0 0 Z " fill="#E0E2E3" transform="translate(823,453)"/>
<path d="M0 0 C1 3 1 3 0.398 4.832 C-1.967 9.409 -4.551 13.168 -8 17 C-3.05 17.33 1.9 17.66 7 18 C7 18.33 7 18.66 7 19 C-0.92 19 -8.84 19 -17 19 C-13.436 14.842 -10.127 11.02 -6.25 7.25 C-3.808 4.875 -1.897 2.846 0 0 Z " fill="#D1D4D6" transform="translate(555,511)"/>
<path d="M0 0 C6.27 0 12.54 0 19 0 C19 16.83 19 33.66 19 51 C18.67 51 18.34 51 18 51 C17.67 36.48 17.34 21.96 17 7 C14.69 6.34 12.38 5.68 10 5 C10 4.01 10 3.02 10 2 C6.7 1.67 3.4 1.34 0 1 C0 0.67 0 0.34 0 0 Z " fill="#B9BCBF" transform="translate(306,490)"/>
<path d="M0 0 C0.744 0.01 1.487 0.021 2.253 0.032 C3.462 0.041 3.462 0.041 4.695 0.051 C5.957 0.076 5.957 0.076 7.246 0.102 C8.52 0.116 8.52 0.116 9.82 0.129 C11.92 0.153 14.02 0.189 16.121 0.227 C14.371 4.102 14.371 4.102 12.121 5.227 C8.924 5.491 5.734 5.671 2.531 5.833 C-1.301 5.991 -1.301 5.991 -4.879 7.227 C-3.811 0.46 -3.811 0.46 0 0 Z " fill="#D0D2D4" transform="translate(836.87939453125,554.77294921875)"/>
<path d="M0 0 C2.875 1.562 2.875 1.562 5 4 C5.312 7.75 5.312 7.75 5 11 C4.34 10.01 3.68 9.02 3 8 C0.667 7.957 -1.667 7.96 -4 8 C-6.375 7.312 -6.375 7.312 -8 6 C-8.75 3.375 -8.75 3.375 -9 1 C-5.667 -0.111 -3.495 -0.35 0 0 Z M-11 3 C-10.34 3.66 -9.68 4.32 -9 5 C-9.66 6.32 -10.32 7.64 -11 9 C-11.66 8.67 -12.32 8.34 -13 8 C-12.34 6.35 -11.68 4.7 -11 3 Z " fill="#CCCFD1" transform="translate(543,489)"/>
<path d="M0 0 C0.33 0 0.66 0 1 0 C1.33 3.96 1.66 7.92 2 12 C2.33 9.03 2.66 6.06 3 3 C3.33 3 3.66 3 4 3 C4.026 3.967 4.052 4.934 4.078 5.93 C4.531 16.332 6.405 24.048 12 33 C12 33.66 12 34.32 12 35 C10.16 34.777 10.16 34.777 8 34 C0.696 23.758 -0.474 12.175 0 0 Z " fill="#DCDEDF" transform="translate(766,486)"/>
<path d="M0 0 C0.66 0 1.32 0 2 0 C1.67 0.66 1.34 1.32 1 2 C0.67 1.34 0.34 0.68 0 0 Z M0 2 C1.32 2.66 2.64 3.32 4 4 C3.01 5.32 2.02 6.64 1 8 C-0.65 7.67 -2.3 7.34 -4 7 C-4 7.99 -4 8.98 -4 10 C-4.66 10.66 -5.32 11.32 -6 12 C-5.484 12.908 -4.969 13.815 -4.438 14.75 C-3 18 -3 18 -3.312 20.375 C-3.539 20.911 -3.766 21.447 -4 22 C-5.32 22.33 -6.64 22.66 -8 23 C-8 22.34 -8 21.68 -8 21 C-7.34 21 -6.68 21 -6 21 C-6 20.34 -6 19.68 -6 19 C-6.99 18.67 -7.98 18.34 -9 18 C-8.979 16.928 -8.959 15.855 -8.938 14.75 C-8.986 11.852 -9.132 9.714 -10 7 C-9.34 6.67 -8.68 6.34 -8 6 C-7.34 6.33 -6.68 6.66 -6 7 C-6 6.34 -6 5.68 -6 5 C-4.02 4.67 -2.04 4.34 0 4 C0 3.34 0 2.68 0 2 Z " fill="#35A3DB" transform="translate(787,494)"/>
<path d="M0 0 C2.5 1.188 2.5 1.188 4.5 3.188 C4.312 5.688 4.312 5.688 3.5 8.188 C0.5 10.188 0.5 10.188 -2.062 10.125 C-4.5 9.188 -4.5 9.188 -5.938 6.875 C-6.5 4.188 -6.5 4.188 -5.75 1.938 C-3.852 -0.72 -3.144 -1.022 0 0 Z " fill="#4BBCF1" transform="translate(190.5,510.8125)"/>
<path d="M0 0 C3.625 0.375 3.625 0.375 7 1 C7.33 3.31 7.66 5.62 8 8 C4.776 10.149 3.733 10.383 0 10 C-2 8 -2 8 -2.25 5 C-2 2 -2 2 0 0 Z " fill="#E9EFF2" transform="translate(178,493)"/>
<path d="M0 0 C2.562 0.312 2.562 0.312 4.438 1.438 C6.115 4.234 5.311 6.249 4.562 9.312 C1.188 9.938 1.188 9.938 -2.438 10.312 C-4.438 8.312 -4.438 8.312 -4.688 5.312 C-4.377 1.584 -3.782 0.485 0 0 Z " fill="#535D62" transform="translate(793.4375,554.6875)"/>
<path d="M0 0 C2.562 0.312 2.562 0.312 4.438 1.5 C5.562 3.312 5.562 3.312 5.375 5.875 C4.562 8.312 4.562 8.312 2.562 10.312 C0.062 10.562 0.062 10.562 -2.438 10.312 C-4.438 8.312 -4.438 8.312 -4.688 5.312 C-4.377 1.584 -3.782 0.485 0 0 Z " fill="#42525B" transform="translate(234.4375,554.6875)"/>
<path d="M0 0 C2 2 2 2 2.312 5 C2.158 6.485 2.158 6.485 2 8 C-1 10 -1 10 -3.562 9.75 C-6 9 -6 9 -8 7 C-7.75 3.938 -7.75 3.938 -7 1 C-4.487 -0.256 -2.783 -0.209 0 0 Z " fill="#209BDE" transform="translate(782,486)"/>
<path d="M0 0 C0.66 0.66 1.32 1.32 2 2 C1.444 6.556 1.444 6.556 0 8 C-2.438 8.25 -2.438 8.25 -5 8 C-5.66 7.01 -6.32 6.02 -7 5 C-8.924 4.495 -8.924 4.495 -11.133 4.488 C-12.341 4.435 -12.341 4.435 -13.574 4.381 C-14.416 4.358 -15.258 4.336 -16.125 4.312 C-16.974 4.278 -17.824 4.244 -18.699 4.209 C-20.799 4.126 -22.899 4.062 -25 4 C-25 3.67 -25 3.34 -25 3 C-23.463 2.927 -23.463 2.927 -21.895 2.852 C-20.534 2.776 -19.173 2.701 -17.812 2.625 C-17.139 2.594 -16.465 2.563 -15.771 2.531 C-10.23 2.207 -5.479 -0.592 0 0 Z " fill="#EDEEEE" transform="translate(841,472)"/>
<path d="M0 0 C19.382 -1.739 19.382 -1.739 24.621 2.227 C27.024 4.703 29.096 7.126 31 10 C30.67 10.99 30.34 11.98 30 13 C29.553 12.613 29.105 12.227 28.645 11.828 C25.148 8.816 21.626 5.857 18 3 C18 5.97 18 8.94 18 12 C17.67 12 17.34 12 17 12 C16.505 7.05 16.505 7.05 16 2 C10.72 1.67 5.44 1.34 0 1 C0 0.67 0 0.34 0 0 Z " fill="#E4E5E6" transform="translate(796,493)"/>
<path d="M0 0 C5.154 1.364 8.066 4.726 11 9 C11 9.66 11 10.32 11 11 C7.634 9.557 5.49 7.667 3 5 C2.01 5.33 1.02 5.66 0 6 C-1.627 6.081 -3.258 6.108 -4.887 6.098 C-5.825 6.094 -6.762 6.091 -7.729 6.088 C-8.705 6.08 -9.681 6.071 -10.688 6.062 C-12.17 6.056 -12.17 6.056 -13.682 6.049 C-16.121 6.037 -18.561 6.021 -21 6 C-21 5.67 -21 5.34 -21 5 C-14.73 4.67 -8.46 4.34 -2 4 C-1.34 2.68 -0.68 1.36 0 0 Z " fill="#CACCCE" transform="translate(216,470)"/>
<path d="M0 0 C2.5 0.25 2.5 0.25 4.5 2.25 C4.868 5.12 4.875 6.658 3.312 9.125 C1.5 10.25 1.5 10.25 -1.125 10 C-3.5 9.25 -3.5 9.25 -4.5 8.25 C-4.688 5.312 -4.688 5.312 -4.5 2.25 C-2.5 0.25 -2.5 0.25 0 0 Z " fill="#41B9F1" transform="translate(249.5,485.75)"/>
<path d="M0 0 C2.562 0.188 2.562 0.188 4.562 2.188 C4.75 4.75 4.75 4.75 4.562 7.188 C4.232 7.518 3.903 7.847 3.562 8.188 C3.328 10.37 3.149 12.56 3 14.75 C2.874 16.546 2.874 16.546 2.746 18.379 C2.686 19.306 2.625 20.233 2.562 21.188 C2.232 21.188 1.903 21.188 1.562 21.188 C1.562 17.227 1.562 13.268 1.562 9.188 C-0.912 8.197 -0.912 8.197 -3.438 7.188 C-3.48 5.188 -3.478 3.187 -3.438 1.188 C-2.438 0.188 -2.438 0.188 0 0 Z " fill="#4AABDA" transform="translate(222.4375,532.8125)"/>
<path d="M0 0 C2.5 0.188 2.5 0.188 5 1 C7 4 7 4 6.625 6.688 C6.419 7.451 6.213 8.214 6 9 C3.688 9.625 3.688 9.625 1 10 C0.01 9.34 -0.98 8.68 -2 8 C-2.312 5 -2.312 5 -2 2 C-1.34 1.34 -0.68 0.68 0 0 Z " fill="#44ACE1" transform="translate(187,526)"/>
<path d="M0 0 C2.562 0.25 2.562 0.25 5 1 C5.33 1.66 5.66 2.32 6 3 C4.625 5 4.625 5 3 7 C2.34 7 1.68 7 1 7 C1 15.25 1 23.5 1 32 C0.67 32 0.34 32 0 32 C-0.025 31.278 -0.05 30.556 -0.076 29.813 C-0.192 26.562 -0.314 23.313 -0.438 20.062 C-0.477 18.926 -0.516 17.79 -0.557 16.619 C-0.599 15.54 -0.64 14.46 -0.684 13.348 C-0.72 12.347 -0.757 11.347 -0.795 10.317 C-0.747 8.039 -0.747 8.039 -2 7 C-2.188 4.562 -2.188 4.562 -2 2 C-1.34 1.34 -0.68 0.68 0 0 Z " fill="#B1B4B6" transform="translate(792,521)"/>
<path d="M0 0 C0.33 0 0.66 0 1 0 C1 2.64 1 5.28 1 8 C-4.61 8 -10.22 8 -16 8 C-16.33 8.99 -16.66 9.98 -17 11 C-17.99 11 -18.98 11 -20 11 C-20.33 11.66 -20.66 12.32 -21 13 C-22 12 -22 12 -22.25 9.062 C-22.167 8.052 -22.085 7.041 -22 6 C-19 4 -19 4 -16.875 4.312 C-15 5 -15 5 -14 6 C-11.65 6.235 -9.294 6.414 -6.938 6.562 C-5.002 6.688 -5.002 6.688 -3.027 6.816 C-1.529 6.907 -1.529 6.907 0 7 C0 4.69 0 2.38 0 0 Z " fill="#ADB1B3" transform="translate(202,536)"/>
<path d="M0 0 C4.556 0.556 4.556 0.556 6 2 C6.188 4.938 6.188 4.938 6 8 C5.34 8.66 4.68 9.32 4 10 C-0.875 8.125 -0.875 8.125 -2 7 C-2.188 4.562 -2.188 4.562 -2 2 C-1.34 1.34 -0.68 0.68 0 0 Z " fill="#D7D9DA" transform="translate(800,500)"/>
<path d="M0 0 C2.339 0.287 4.674 0.619 7 1 C7.688 3.312 7.688 3.312 8 6 C6.875 7.875 6.875 7.875 5 9 C0.579 8.579 0.579 8.579 -1 7 C-1.125 4 -1.125 4 -1 1 C-0.67 0.67 -0.34 0.34 0 0 Z " fill="#D8E8EF" transform="translate(845,493)"/>
<path d="M0 0 C5.28 0 10.56 0 16 0 C16.66 1.65 17.32 3.3 18 5 C15.729 4.886 13.458 4.758 11.188 4.625 C9.923 4.555 8.658 4.486 7.355 4.414 C4 4 4 4 1 2 C0.67 1.34 0.34 0.68 0 0 Z " fill="#D3D5D7" transform="translate(177,555)"/>
<path d="M0 0 C0.625 1.875 0.625 1.875 1 4 C0.34 4.66 -0.32 5.32 -1 6 C-1.371 8.52 -1.371 8.52 -1.414 11.445 C-1.453 12.522 -1.491 13.598 -1.531 14.707 C-1.562 15.835 -1.593 16.963 -1.625 18.125 C-1.664 19.261 -1.702 20.396 -1.742 21.566 C-1.837 24.377 -1.922 27.188 -2 30 C-2.66 30 -3.32 30 -4 30 C-4.116 25.75 -4.187 21.501 -4.25 17.25 C-4.284 16.043 -4.317 14.837 -4.352 13.594 C-4.364 12.434 -4.377 11.273 -4.391 10.078 C-4.412 9.01 -4.433 7.942 -4.454 6.841 C-3.896 3.35 -2.687 2.203 0 0 Z " fill="#EBECED" transform="translate(797,524)"/>
<path d="M0 0 C0.33 0 0.66 0 1 0 C1.767 12.593 1.767 12.593 -0.113 16.043 C-1.5 17.375 -1.5 17.375 -4 19 C-4 17.68 -4 16.36 -4 15 C-4.99 15.495 -4.99 15.495 -6 16 C-4.252 10.533 -2.342 5.242 0 0 Z " fill="#D7D8DA" transform="translate(658,503)"/>
<path d="M0 0 C0.688 2.312 0.688 2.312 1 5 C-0.188 6.875 -0.188 6.875 -2 8 C-4.974 7.73 -5.854 7.146 -8 5 C-7.75 2.438 -7.75 2.438 -7 0 C-4.333 -1.333 -2.833 -0.671 0 0 Z " fill="#3FB6EE" transform="translate(809,534)"/>
<path d="M0 0 C0.66 0 1.32 0 2 0 C0.74 6.3 -1.294 11.699 -5 17 C-6.485 17.99 -6.485 17.99 -8 19 C-8 15.256 -7.924 14.362 -6.25 11.328 C-5.889 10.664 -5.528 10 -5.156 9.316 C-4.775 8.634 -4.393 7.953 -4 7.25 C-3.428 6.204 -3.428 6.204 -2.844 5.137 C-1.903 3.42 -0.953 1.71 0 0 Z " fill="#D7D8D9" transform="translate(260,502)"/>
<path d="M0 0 C1.145 0.34 1.145 0.34 2.312 0.688 C3 3 3 3 3.312 5.688 C2.188 7.562 2.188 7.562 0.312 8.688 C-2.375 8.375 -2.375 8.375 -4.688 7.688 C-5.375 5.375 -5.375 5.375 -5.688 2.688 C-4.001 -0.123 -3.278 -0.381 0 0 Z " fill="#86CCEA" transform="translate(823.6875,460.3125)"/>
<path d="M0 0 C2.562 0.188 2.562 0.188 4.562 2.188 C4.688 4.812 4.688 4.812 4.562 7.188 C2.583 7.188 0.602 7.188 -1.438 7.188 C-1.768 7.847 -2.097 8.508 -2.438 9.188 C-4.438 6.188 -4.438 6.188 -4.125 3.562 C-3.164 0.243 -3.164 0.243 0 0 Z " fill="#C8CACC" transform="translate(234.4375,520.8125)"/>
<path d="M0 0 C0.66 0 1.32 0 2 0 C2.061 0.843 2.121 1.686 2.184 2.555 C2.267 3.65 2.351 4.746 2.438 5.875 C2.519 6.966 2.6 8.056 2.684 9.18 C2.83 11.947 2.83 11.947 4 14 C3.34 14.66 2.68 15.32 2 16 C0.516 14.883 0.516 14.883 -1 13 C-1.328 10.117 -1.328 10.117 -1.25 6.875 C-1.235 5.8 -1.219 4.725 -1.203 3.617 C-1 1 -1 1 0 0 Z " fill="#C4C9CC" transform="translate(805,541)"/>
<path d="M0 0 C0.763 0.206 1.526 0.413 2.312 0.625 C2.694 2.616 3.026 4.618 3.312 6.625 C2.312 7.625 2.312 7.625 -1.25 7.688 C-2.384 7.667 -3.519 7.646 -4.688 7.625 C-5.018 5.645 -5.347 3.665 -5.688 1.625 C-2.688 -0.375 -2.688 -0.375 0 0 Z " fill="#29AAED" transform="translate(840.6875,511.375)"/>
<path d="M0 0 C0.536 0.784 1.072 1.567 1.625 2.375 C4.302 5.334 6.184 6.046 10 7 C10 7.66 10 8.32 10 9 C8.935 9.073 8.935 9.073 7.848 9.148 C6.929 9.223 6.009 9.298 5.062 9.375 C4.146 9.445 3.229 9.514 2.285 9.586 C1.531 9.723 0.777 9.859 0 10 C-0.33 10.66 -0.66 11.32 -1 12 C-1.027 10.375 -1.046 8.75 -1.062 7.125 C-1.074 6.22 -1.086 5.315 -1.098 4.383 C-1 2 -1 2 0 0 Z " fill="#2499DA" transform="translate(771,492)"/>
<path d="M0 0 C1.145 0.34 1.145 0.34 2.312 0.688 C2.438 3.062 2.438 3.062 2.312 5.688 C1.653 6.348 0.992 7.007 0.312 7.688 C-2.312 7.312 -2.312 7.312 -4.688 6.688 C-5.375 4.875 -5.375 4.875 -5.688 2.688 C-3.973 -0.075 -3.262 -0.379 0 0 Z " fill="#3F474C" transform="translate(786.6875,463.3125)"/>
<path d="M0 0 C1.98 0.66 3.96 1.32 6 2 C5.625 3.938 5.625 3.938 5 6 C4.01 6.495 4.01 6.495 3 7 C2.67 7.99 2.34 8.98 2 10 C1.34 9.67 0.68 9.34 0 9 C0.33 8.34 0.66 7.68 1 7 C0.34 7 -0.32 7 -1 7 C-0.67 4.69 -0.34 2.38 0 0 Z M-2 7 C-1.34 7.66 -0.68 8.32 0 9 C-1.25 10.562 -1.25 10.562 -3 12 C-5.188 11.688 -5.188 11.688 -7 11 C-6.361 10.711 -5.721 10.423 -5.062 10.125 C-2.848 9.172 -2.848 9.172 -2 7 Z " fill="#249EE0" transform="translate(788,487)"/>
<path d="M0 0 C0.381 1.991 0.713 3.993 1 6 C0 7 0 7 -2.438 7.188 C-5 7 -5 7 -7 5 C-6.75 2.438 -6.75 2.438 -6 0 C-3.509 -1.245 -2.589 -0.777 0 0 Z " fill="#4FBEF1" transform="translate(206,483)"/>
<path d="M0 0 C0.99 0.33 1.98 0.66 3 1 C3 6.94 3 12.88 3 19 C2.01 19.33 1.02 19.66 0 20 C0 13.4 0 6.8 0 0 Z " fill="#E0E2E3" transform="translate(259,483)"/>
<path d="M0 0 C0.33 0 0.66 0 1 0 C1.33 3.96 1.66 7.92 2 12 C2.33 9.03 2.66 6.06 3 3 C3.33 3 3.66 3 4 3 C4.054 5.625 4.094 8.249 4.125 10.875 C4.142 11.621 4.159 12.368 4.176 13.137 C4.193 15.092 4.103 17.047 4 19 C3.34 19.66 2.68 20.32 2 21 C-0.621 14.12 -0.182 7.278 0 0 Z " fill="#BAC7CD" transform="translate(766,486)"/>
<path d="M0 0 C1.32 0.66 2.64 1.32 4 2 C4 2.66 4 3.32 4 4 C4.66 4.33 5.32 4.66 6 5 C5.216 5.103 4.433 5.206 3.625 5.312 C0.67 5.776 0.67 5.776 -1 9 C-1.99 8.67 -2.98 8.34 -4 8 C-3.401 4.644 -2.154 2.622 0 0 Z " fill="#3B4348" transform="translate(777,471)"/>
<path d="M0 0 C1.675 0.286 3.344 0.618 5 1 C5.382 2.656 5.714 4.325 6 6 C5 7 5 7 2.5 7.125 C0 7 0 7 -1 6 C-1.125 3.5 -1.125 3.5 -1 1 C-0.67 0.67 -0.34 0.34 0 0 Z " fill="#3E464A" transform="translate(241,463)"/>
<path d="M0 0 C2.625 0.375 2.625 0.375 5 1 C4.67 3.31 4.34 5.62 4 8 C1.562 7.25 1.562 7.25 -1 6 C-1.938 4 -1.938 4 -2 2 C-1.34 1.34 -0.68 0.68 0 0 Z " fill="#247CB0" transform="translate(792,557)"/>
<path d="M0 0 C0.99 0.33 1.98 0.66 3 1 C2.67 1.66 2.34 2.32 2 3 C1.34 3 0.68 3 0 3 C-0.247 3.557 -0.495 4.114 -0.75 4.688 C-2.239 7.442 -3.884 9.692 -6 12 C-6.99 12 -7.98 12 -9 12 C-7.472 8.562 -5.498 5.81 -3 3 C-2.34 3 -1.68 3 -1 3 C-0.67 2.01 -0.34 1.02 0 0 Z " fill="#DADBDD" transform="translate(810,470)"/>
<path d="M0 0 C2.125 0.938 2.125 0.938 4 2 C2.35 2.66 0.7 3.32 -1 4 C-1 4.99 -1 5.98 -1 7 C1.64 7 4.28 7 7 7 C5.312 9.062 5.312 9.062 3 11 C0.375 11.062 0.375 11.062 -2 10 C-3.438 7.688 -3.438 7.688 -4 5 C-3.25 2.75 -3.25 2.75 -2 1 C-1.34 0.67 -0.68 0.34 0 0 Z " fill="#2293D1" transform="translate(188,510)"/>
<path d="M0 0 C3 -0.312 3 -0.312 6 0 C8 2 8 2 8.125 5.125 C8.084 6.074 8.043 7.023 8 8 C5.291 9.354 2.991 9.065 0 9 C0 8.67 0 8.34 0 8 C1.65 8 3.3 8 5 8 C5 6.35 5 4.7 5 3 C2.69 3 0.38 3 -2 3 C-1.34 2.01 -0.68 1.02 0 0 Z " fill="#2291CF" transform="translate(837,526)"/>
<path d="M0 0 C2.051 0.033 4.102 0.065 6.152 0.098 C4.402 3.973 4.402 3.973 2.152 5.098 C0.153 5.138 -1.848 5.141 -3.848 5.098 C-2.729 0.144 -2.729 0.144 0 0 Z " fill="#D6D8DA" transform="translate(344.84765625,491.90234375)"/>
<path d="M0 0 C0.784 0.041 1.567 0.082 2.375 0.125 C1.736 0.373 1.096 0.62 0.438 0.875 C-1.812 1.941 -1.812 1.941 -2.375 4.25 C-2.458 4.869 -2.54 5.488 -2.625 6.125 C-0.975 6.455 0.675 6.785 2.375 7.125 C3.365 5.805 4.355 4.485 5.375 3.125 C5.562 5.5 5.562 5.5 5.375 8.125 C2.151 10.274 1.108 10.508 -2.625 10.125 C-4.625 8.125 -4.625 8.125 -4.875 5.125 C-4.554 1.275 -3.941 0.188 0 0 Z " fill="#41AEE5" transform="translate(180.625,492.875)"/>
<path d="M0 0 C3.149 1.369 5.048 2.875 7.25 5.5 C7.771 6.108 8.292 6.717 8.828 7.344 C10 9 10 9 10 11 C5.907 9.426 2.64 6.459 0 3 C0 2.01 0 1.02 0 0 Z " fill="#DADBDD" transform="translate(222,465)"/>
<path d="M0 0 C2 3 2 3 4 6 C6.563 6.73 6.563 6.73 9 7 C8.691 7.536 8.381 8.072 8.062 8.625 C6.822 11.398 6.409 14 6 17 C5.67 17 5.34 17 5 17 C5 14.36 5 11.72 5 9 C4.361 8.691 3.721 8.381 3.062 8.062 C1 7 1 7 0 6 C-0.041 4 -0.043 2 0 0 Z " fill="#D1D3D5" transform="translate(228,558)"/>
<path d="M0 0 C1.125 3.75 1.125 3.75 0 6 C-1.65 6 -3.3 6 -5 6 C-5.66 4.35 -6.32 2.7 -7 1 C-4.537 -0.231 -2.72 -0.072 0 0 Z " fill="#59C2F1" transform="translate(842,528)"/>
<path d="M0 0 C2.31 0 4.62 0 7 0 C7 1.65 7 3.3 7 5 C5 6 5 6 1.875 5.062 C0.926 4.712 -0.022 4.361 -1 4 C-0.67 2.68 -0.34 1.36 0 0 Z " fill="#D9DBDC" transform="translate(317,491)"/>
<path d="M0 0 C0.66 0.66 1.32 1.32 2 2 C0.333 4.045 -0.525 4.926 -3.177 5.341 C-3.999 5.325 -4.821 5.309 -5.668 5.293 C-6.561 5.283 -7.453 5.274 -8.373 5.264 C-9.766 5.226 -9.766 5.226 -11.188 5.188 C-12.128 5.174 -13.068 5.16 -14.037 5.146 C-16.359 5.111 -18.679 5.062 -21 5 C-21 4.67 -21 4.34 -21 4 C-14.73 3.67 -8.46 3.34 -2 3 C-2 2.34 -2 1.68 -2 1 C-1.34 0.67 -0.68 0.34 0 0 Z " fill="#ECECED" transform="translate(216,471)"/>
<path d="M0 0 C0.976 0.009 1.952 0.018 2.957 0.027 C3.693 0.039 4.429 0.051 5.188 0.062 C5.188 0.392 5.188 0.723 5.188 1.062 C4.489 1.184 3.79 1.305 3.07 1.43 C1.705 1.681 1.705 1.681 0.312 1.938 C-0.592 2.1 -1.497 2.262 -2.43 2.43 C-4.978 2.893 -4.978 2.893 -6.812 5.062 C-9.438 4.688 -9.438 4.688 -11.812 4.062 C-11.482 3.072 -11.153 2.082 -10.812 1.062 C-7.139 0.21 -3.768 -0.045 0 0 Z " fill="#E4E5E6" transform="translate(214.8125,463.9375)"/>
<path d="M0 0 C1.65 0 3.3 0 5 0 C5.33 1.32 5.66 2.64 6 4 C5.216 3.794 4.433 3.587 3.625 3.375 C2.759 3.251 1.893 3.128 1 3 C0.34 3.66 -0.32 4.32 -1 5 C-3.756 4.983 -6.388 4.861 -9.125 4.625 C-9.879 4.568 -10.633 4.512 -11.41 4.453 C-13.274 4.312 -15.137 4.157 -17 4 C-17 3.67 -17 3.34 -17 3 C-11.72 3 -6.44 3 -1 3 C-0.67 2.01 -0.34 1.02 0 0 Z " fill="#EAEAEB" transform="translate(843,541)"/>
<path d="M0 0 C0.66 0 1.32 0 2 0 C5.115 4.153 5.115 4.153 4.688 7.312 C4.461 7.869 4.234 8.426 4 9 C2.68 9.33 1.36 9.66 0 10 C0 9.34 0 8.68 0 8 C0.66 8 1.32 8 2 8 C2 7.34 2 6.68 2 6 C1.01 5.67 0.02 5.34 -1 5 C-0.67 3.35 -0.34 1.7 0 0 Z " fill="#D2D4D5" transform="translate(779,507)"/>
<path d="M0 0 C2.64 0 5.28 0 8 0 C8 1.32 8 2.64 8 4 C5.36 4 2.72 4 0 4 C0 2.68 0 1.36 0 0 Z " fill="#D2E8F2" transform="translate(882,476)"/>
<path d="M0 0 C2.64 0 5.28 0 8 0 C8 1.32 8 2.64 8 4 C5.36 4 2.72 4 0 4 C0 2.68 0 1.36 0 0 Z " fill="#CCE6F2" transform="translate(139,476)"/>
<path d="M0 0 C1.675 0.286 3.344 0.618 5 1 C4.67 2.65 4.34 4.3 4 6 C2.35 6 0.7 6 -1 6 C-1.043 4.334 -1.041 2.666 -1 1 C-0.67 0.67 -0.34 0.34 0 0 Z " fill="#37A6DD" transform="translate(233,557)"/>
<path d="M0 0 C2.64 0 5.28 0 8 0 C8 1.32 8 2.64 8 4 C5.69 4 3.38 4 1 4 C0.67 2.68 0.34 1.36 0 0 Z " fill="#D2EAF5" transform="translate(893,459)"/>
<path d="M0 0 C0.928 0.278 0.928 0.278 1.875 0.562 C4.042 1.237 4.042 1.237 6 0 C5.125 4.875 5.125 4.875 4 6 C2.334 6.041 0.666 6.043 -1 6 C-1 3 -1 3 0 0 Z " fill="#D2D3D5" transform="translate(844,543)"/>
<path d="M0 0 C0.33 0 0.66 0 1 0 C1 3.63 1 7.26 1 11 C-1.31 11 -3.62 11 -6 11 C-6.33 10.34 -6.66 9.68 -7 9 C-5.02 9 -3.04 9 -1 9 C-1.021 7.701 -1.041 6.401 -1.062 5.062 C-1.084 3.708 -1.071 2.352 -1 1 C-0.67 0.67 -0.34 0.34 0 0 Z " fill="#F1F2F2" transform="translate(204,535)"/>
<path d="M0 0 C2.64 0 5.28 0 8 0 C8 1.32 8 2.64 8 4 C5.36 4 2.72 4 0 4 C0 2.68 0 1.36 0 0 Z " fill="#E2EBEF" transform="translate(905,476)"/>
<path d="M0 0 C2.31 0 4.62 0 7 0 C7 1.32 7 2.64 7 4 C4.69 4 2.38 4 0 4 C0 2.68 0 1.36 0 0 Z " fill="#D2E9F3" transform="translate(128,476)"/>
<path d="M0 0 C2.64 0 5.28 0 8 0 C8 1.32 8 2.64 8 4 C5.36 4 2.72 4 0 4 C0 2.68 0 1.36 0 0 Z " fill="#DCEDF4" transform="translate(116,476)"/>
<path d="M0 0 C0.66 0 1.32 0 2 0 C2 3.3 2 6.6 2 10 C1.01 10 0.02 10 -1 10 C-2.231 4.585 -2.231 4.585 -1.062 1.625 C-0.537 0.821 -0.537 0.821 0 0 Z " fill="#C6C9CB" transform="translate(248,507)"/>
<path d="M0 0 C1.65 0 3.3 0 5 0 C5.33 1.65 5.66 3.3 6 5 C5.01 5.66 4.02 6.32 3 7 C3 6.34 3 5.68 3 5 C1.68 4.67 0.36 4.34 -1 4 C-0.67 2.68 -0.34 1.36 0 0 Z M4 2 C5 4 5 4 5 4 Z " fill="#BCBFC2" transform="translate(837,473)"/>
<path d="M0 0 C2.31 0 4.62 0 7 0 C7 1.32 7 2.64 7 4 C4.36 4 1.72 4 -1 4 C-0.67 2.68 -0.34 1.36 0 0 Z " fill="#DBEDF4" transform="translate(883,470)"/>
<path d="M0 0 C1.32 0 2.64 0 4 0 C4 1.65 4 3.3 4 5 C1.509 5.687 -0.379 6 -3 6 C-2.427 3.133 -2.139 2.139 0 0 Z " fill="#CED0D2" transform="translate(225,500)"/>
<path d="M0 0 C2.64 0 5.28 0 8 0 C7.67 1.32 7.34 2.64 7 4 C4.69 4 2.38 4 0 4 C0 2.68 0 1.36 0 0 Z " fill="#D0E7F1" transform="translate(894,476)"/>
<path d="M0 0 C1.98 0 3.96 0 6 0 C6.33 1.32 6.66 2.64 7 4 C4.36 4 1.72 4 -1 4 C-0.67 2.68 -0.34 1.36 0 0 Z " fill="#D7EAF2" transform="translate(895,470)"/>
<path d="M0 0 C1.98 0 3.96 0 6 0 C6.33 1.32 6.66 2.64 7 4 C4.36 4 1.72 4 -1 4 C-0.67 2.68 -0.34 1.36 0 0 Z " fill="#E0F0F7" transform="translate(906,464)"/>
<path d="M0 0 C0.743 0.247 1.485 0.495 2.25 0.75 C1.322 1.09 1.322 1.09 0.375 1.438 C-2.381 3.14 -2.635 4.777 -3.75 7.75 C-5.235 8.74 -5.235 8.74 -6.75 9.75 C-7.077 6.15 -7.154 4.334 -5.062 1.312 C-2.75 -0.25 -2.75 -0.25 0 0 Z " fill="#BCBFC1" transform="translate(233.75,553.25)"/>
<path d="M0 0 C2.31 0.33 4.62 0.66 7 1 C7 1.99 7 2.98 7 4 C4.36 4 1.72 4 -1 4 C-0.67 2.68 -0.34 1.36 0 0 Z " fill="#E9F3F8" transform="translate(117,470)"/>
<path d="M0 0 C1.293 0.956 2.584 1.915 3.875 2.875 C4.594 3.409 5.314 3.942 6.055 4.492 C8 6 8 6 10 8 C9.67 8.99 9.34 9.98 9 11 C7.494 9.548 5.995 8.088 4.5 6.625 C3.247 5.407 3.247 5.407 1.969 4.164 C0 2 0 2 0 0 Z " fill="#E9EAEB" transform="translate(805,508)"/>
<path d="M0 0 C5.75 0.875 5.75 0.875 8 2 C7.67 2.99 7.34 3.98 7 5 C4.36 4.34 1.72 3.68 -1 3 C-0.67 2.01 -0.34 1.02 0 0 Z " fill="#DADCDD" transform="translate(823,453)"/>
<path d="M0 0 C0.99 0.33 1.98 0.66 3 1 C2.319 1.619 2.319 1.619 1.625 2.25 C-0.091 3.934 -0.091 3.934 -1.062 6.125 C-2 8 -2 8 -4 9 C-3.385 3.462 -3.385 3.462 -1.438 1.125 C-0.963 0.754 -0.489 0.383 0 0 Z M3 1 C5 2 5 2 5 2 Z " fill="#CBCDCF" transform="translate(790,553)"/>
<path d="M0 0 C1.32 0 2.64 0 4 0 C4 0.66 4 1.32 4 2 C3.01 2.33 2.02 2.66 1 3 C1.33 4.65 1.66 6.3 2 8 C0.68 7.67 -0.64 7.34 -2 7 C-2.125 4.625 -2.125 4.625 -2 2 C-1.34 1.34 -0.68 0.68 0 0 Z " fill="#E7E8E9" transform="translate(800,500)"/>
<path d="M0 0 C2.64 0 5.28 0 8 0 C8 0.99 8 1.98 8 3 C5.36 3 2.72 3 0 3 C0 2.01 0 1.02 0 0 Z " fill="#EBF1F4" transform="translate(905,471)"/>
<path d="M0 0 C2.64 0 5.28 0 8 0 C8 0.99 8 1.98 8 3 C5.36 3 2.72 3 0 3 C0 2.01 0 1.02 0 0 Z " fill="#EEF1F3" transform="translate(139,471)"/>
<path d="M0 0 C2.64 0 5.28 0 8 0 C8 0.99 8 1.98 8 3 C5.36 3 2.72 3 0 3 C0 2.01 0 1.02 0 0 Z " fill="#ECF4F8" transform="translate(127,471)"/>
<path d="M0 0 C2.64 0 5.28 0 8 0 C8 0.99 8 1.98 8 3 C5.36 3 2.72 3 0 3 C0 2.01 0 1.02 0 0 Z " fill="#F4F7F8" transform="translate(894,465)"/>
<path d="M0 0 C2.64 0 5.28 0 8 0 C8 0.99 8 1.98 8 3 C5.36 3 2.72 3 0 3 C0 2.01 0 1.02 0 0 Z " fill="#F5F8FA" transform="translate(128,465)"/>
<path d="M0 0 C2.64 0 5.28 0 8 0 C8 0.99 8 1.98 8 3 C5.36 3 2.72 3 0 3 C0 2.01 0 1.02 0 0 Z " fill="#F8F8F9" transform="translate(116,465)"/>
<path d="M0 0 C0.33 0 0.66 0 1 0 C1 1.98 1 3.96 1 6 C-0.98 6.33 -2.96 6.66 -5 7 C-5.33 6.34 -5.66 5.68 -6 5 C-5.381 4.732 -4.762 4.464 -4.125 4.188 C-1.7 3.044 -1.7 3.044 0 0 Z " fill="#D1D3D5" transform="translate(386,535)"/>
<path d="M0 0 C0.66 0.33 1.32 0.66 2 1 C2.625 3.562 2.625 3.562 3 6 C1.35 5.67 -0.3 5.34 -2 5 C-2 2 -2 2 0 0 Z " fill="#7CCCEF" transform="translate(821,460)"/>
<path d="M0 0 C1.32 0 2.64 0 4 0 C4 1.65 4 3.3 4 5 C2.68 5 1.36 5 0 5 C-0.562 3.062 -0.562 3.062 -1 1 C-0.67 0.67 -0.34 0.34 0 0 Z " fill="#DAEAF1" transform="translate(838,513)"/>
<path d="M0 0 C0.99 0 1.98 0 3 0 C3.33 1.32 3.66 2.64 4 4 C2.35 4.33 0.7 4.66 -1 5 C-0.67 3.35 -0.34 1.7 0 0 Z " fill="#E4EAEC" transform="translate(188,513)"/>
<path d="M0 0 C0.66 0.33 1.32 0.66 2 1 C2 2.65 2 4.3 2 6 C0.68 6.33 -0.64 6.66 -2 7 C-2.33 6.34 -2.66 5.68 -3 5 C-2.01 4.01 -1.02 3.02 0 2 C-0.99 1.67 -1.98 1.34 -3 1 C-2.01 0.67 -1.02 0.34 0 0 Z " fill="#D8DADB" transform="translate(229,501)"/>
<path d="M0 0 C0.66 0 1.32 0 2 0 C1.67 0.66 1.34 1.32 1 2 C0.67 1.34 0.34 0.68 0 0 Z M0 2 C1.32 2.66 2.64 3.32 4 4 C3.01 5.485 3.01 5.485 2 7 C0.35 6.67 -1.3 6.34 -3 6 C-2.67 5.34 -2.34 4.68 -2 4 C-1.34 4 -0.68 4 0 4 C0 3.34 0 2.68 0 2 Z " fill="#3CB4ED" transform="translate(787,494)"/>
<path d="M0 0 C2.31 0 4.62 0 7 0 C7 0.99 7 1.98 7 3 C4.69 3 2.38 3 0 3 C0 2.01 0 1.02 0 0 Z " fill="#FBFBFB" transform="translate(128,459)"/>
<path d="M0 0 C0.99 0 1.98 0 3 0 C3 1.65 3 3.3 3 5 C1.68 5 0.36 5 -1 5 C-1.33 4.01 -1.66 3.02 -2 2 C-1.34 1.34 -0.68 0.68 0 0 Z " fill="#45BCF2" transform="translate(778,488)"/>
<path d="M0 0 C1.207 0.031 1.207 0.031 2.438 0.062 C2.438 0.722 2.438 1.383 2.438 2.062 C1.798 2.166 1.159 2.269 0.5 2.375 C-0.181 2.602 -0.861 2.829 -1.562 3.062 C-1.893 4.053 -2.222 5.043 -2.562 6.062 C-3.222 6.062 -3.882 6.062 -4.562 6.062 C-3.49 0.085 -3.49 0.085 0 0 Z " fill="#D0D2D4" transform="translate(234.5625,520.9375)"/>
<path d="M0 0 C2.475 0.495 2.475 0.495 5 1 C5.33 2.65 5.66 4.3 6 6 C5.01 6 4.02 6 3 6 C3 4.68 3 3.36 3 2 C2.01 1.67 1.02 1.34 0 1 C0 0.67 0 0.34 0 0 Z " fill="#2EAEEE" transform="translate(778,486)"/>
<path d="M0 0 C0.33 0 0.66 0 1 0 C1.25 2.75 1.25 2.75 1 6 C-1 8.375 -1 8.375 -3 10 C-3.33 9.01 -3.66 8.02 -4 7 C-2.68 6.34 -1.36 5.68 0 5 C0 3.35 0 1.7 0 0 Z " fill="#BEC1C3" transform="translate(241,557)"/>
<path d="M0 0 C0.66 0 1.32 0 2 0 C1.67 1.65 1.34 3.3 1 5 C-0.65 5 -2.3 5 -4 5 C-4 4.34 -4 3.68 -4 3 C-3.01 2.67 -2.02 2.34 -1 2 C-0.67 1.34 -0.34 0.68 0 0 Z " fill="#E2E3E4" transform="translate(186,544)"/>
<path d="M0 0 C2.438 0.75 2.438 0.75 5 2 C5.812 4.125 5.812 4.125 6 6 C3.378 4.951 2.206 4.351 0.75 1.875 C0.503 1.256 0.255 0.638 0 0 Z " fill="#C8CACC" transform="translate(795,553)"/>
<path d="M0 0 C1.32 0 2.64 0 4 0 C4 1.32 4 2.64 4 4 C2.68 4 1.36 4 0 4 C0 2.68 0 1.36 0 0 Z " fill="#92D2EE" transform="translate(792,558)"/>
<path d="M0 0 C0.99 0.33 1.98 0.66 3 1 C2.67 2.32 2.34 3.64 2 5 C1.01 4.67 0.02 4.34 -1 4 C-0.67 2.68 -0.34 1.36 0 0 Z " fill="#575F63" transform="translate(793,523)"/>
<path d="M0 0 C2.125 0.938 2.125 0.938 4 2 C2.793 2.433 2.793 2.433 1.562 2.875 C-1.133 3.733 -1.133 3.733 -2 6 C-2.66 5.67 -3.32 5.34 -4 5 C-2.25 1.125 -2.25 1.125 0 0 Z " fill="#218FCC" transform="translate(188,510)"/>
<path d="M0 0 C0.33 0 0.66 0 1 0 C1.043 1.666 1.041 3.334 1 5 C0 6 0 6 -3.062 6.062 C-4.517 6.032 -4.517 6.032 -6 6 C-5.381 5.752 -4.762 5.505 -4.125 5.25 C-1.649 3.794 -1.049 2.622 0 0 Z " fill="#5FBBE6" transform="translate(185,496)"/>
<path d="M0 0 C0.33 0 0.66 0 1 0 C1 2.64 1 5.28 1 8 C0.01 7.34 -0.98 6.68 -2 6 C-1.125 1.125 -1.125 1.125 0 0 Z " fill="#E9EAEB" transform="translate(769,481)"/>
<path d="M0 0 C1.32 0 2.64 0 4 0 C4 1.32 4 2.64 4 4 C2.68 3.67 1.36 3.34 0 3 C0 2.01 0 1.02 0 0 Z " fill="#DFE5E7" transform="translate(838,529)"/>
<path d="M0 0 C1.546 2.319 2.796 4.506 4 7 C3.01 7 2.02 7 1 7 C0 6 0 6 -0.062 2.938 C-0.042 1.968 -0.021 0.999 0 0 Z " fill="#DCDDDF" transform="translate(228,558)"/>
<path d="M0 0 C-0.33 1.32 -0.66 2.64 -1 4 C-2.32 4.33 -3.64 4.66 -5 5 C-5 3 -5 3 -3.625 1.375 C-2 0 -2 0 0 0 Z " fill="#E9EAEB" transform="translate(784,512)"/>
<path d="M0 0 C2 1.375 2 1.375 4 3 C4 3.66 4 4.32 4 5 C3.01 5.33 2.02 5.66 1 6 C0 5 0 5 -0.062 2.438 C-0.042 1.633 -0.021 0.829 0 0 Z " fill="#5C6569" transform="translate(777,510)"/>
<path d="M0 0 C0.99 0 1.98 0 3 0 C3.33 0.99 3.66 1.98 4 3 C2.68 3.33 1.36 3.66 0 4 C0 2.68 0 1.36 0 0 Z " fill="#8FD2EF" transform="translate(233,558)"/>
<path d="M0 0 C0.99 0 1.98 0 3 0 C2.67 1.32 2.34 2.64 2 4 C1.01 3.67 0.02 3.34 -1 3 C-0.67 2.01 -0.34 1.02 0 0 Z " fill="#565E62" transform="translate(844,543)"/>
<path d="M0 0 C0.66 0.33 1.32 0.66 2 1 C2 2.32 2 3.64 2 5 C1.01 5 0.02 5 -1 5 C-0.67 3.35 -0.34 1.7 0 0 Z " fill="#FAFBFB" transform="translate(189,528)"/>
<path d="M0 0 C0.66 0 1.32 0 2 0 C2.66 1.65 3.32 3.3 4 5 C3.01 5 2.02 5 1 5 C0.67 3.35 0.34 1.7 0 0 Z " fill="#E1E2E3" transform="translate(246,512)"/>
<path d="M0 0 C0.99 0 1.98 0 3 0 C2.67 1.32 2.34 2.64 2 4 C1.01 3.67 0.02 3.34 -1 3 C-0.67 2.01 -0.34 1.02 0 0 Z " fill="#4F565A" transform="translate(189,474)"/>
<path d="M0 0 C1.98 0.495 1.98 0.495 4 1 C3.361 1.268 2.721 1.536 2.062 1.812 C-0.331 2.887 -0.331 2.887 -1 6 C-0.67 4.02 -0.34 2.04 0 0 Z " fill="#CED0D2" transform="translate(187,472)"/>
<path d="M0 0 C0.99 0.33 1.98 0.66 3 1 C2.67 1.99 2.34 2.98 2 4 C1.01 3.67 0.02 3.34 -1 3 C-0.67 2.01 -0.34 1.02 0 0 Z " fill="#475156" transform="translate(183,543)"/>
<path d="M0 0 C1.938 0.312 1.938 0.312 4 1 C4.33 1.99 4.66 2.98 5 4 C3.35 3.67 1.7 3.34 0 3 C0 2.01 0 1.02 0 0 Z " fill="#BEC1C3" transform="translate(183,540)"/>
<path d="M0 0 C0.33 0.66 0.66 1.32 1 2 C-1.475 3.485 -1.475 3.485 -4 5 C-4 3.68 -4 2.36 -4 1 C-2.68 0.67 -1.36 0.34 0 0 Z " fill="#E1E2E3" transform="translate(237,527)"/>
<path d="M0 0 C0.99 0 1.98 0 3 0 C3 1.32 3 2.64 3 4 C2.01 4 1.02 4 0 4 C0 2.68 0 1.36 0 0 Z " fill="#454E53" transform="translate(233,523)"/>
<path d="M0 0 C0.66 1.32 1.32 2.64 2 4 C0.515 4.99 0.515 4.99 -1 6 C-0.67 4.02 -0.34 2.04 0 0 Z " fill="#2675A5" transform="translate(771,492)"/>
<path d="M0 0 C4.875 1.75 4.875 1.75 6 4 C4.35 3.67 2.7 3.34 1 3 C0.67 2.01 0.34 1.02 0 0 Z " fill="#2190CE" transform="translate(245,492)"/>
<path d="M0 0 C1.32 0 2.64 0 4 0 C4 0.99 4 1.98 4 3 C2.68 3 1.36 3 0 3 C0 2.01 0 1.02 0 0 Z " fill="#4D5559" transform="translate(204,463)"/>
<path d="M0 0 C0.66 0.99 1.32 1.98 2 3 C1.67 3.99 1.34 4.98 1 6 C0.34 5.34 -0.32 4.68 -1 4 C-0.625 1.875 -0.625 1.875 0 0 Z " fill="#E2E3E4" transform="translate(791,524)"/>
<path d="M0 0 C1.32 0 2.64 0 4 0 C3.67 0.99 3.34 1.98 3 3 C2.01 3 1.02 3 0 3 C0 2.01 0 1.02 0 0 Z " fill="#4D555A" transform="translate(800,503)"/>
<path d="M0 0 C1.32 0 2.64 0 4 0 C3.67 0.99 3.34 1.98 3 3 C2.01 3 1.02 3 0 3 C0 2.01 0 1.02 0 0 Z " fill="#51585D" transform="translate(225,503)"/>
<path d="M0 0 C1.938 0.375 1.938 0.375 4 1 C4.33 1.66 4.66 2.32 5 3 C4.34 3 3.68 3 3 3 C2.67 3.66 2.34 4.32 2 5 C1.34 3.35 0.68 1.7 0 0 Z " fill="#DDDFE0" transform="translate(190,472)"/>
<path d="M0 0 C0.66 0.33 1.32 0.66 2 1 C2 1.99 2 2.98 2 4 C0.68 3.67 -0.64 3.34 -2 3 C-1.34 2.01 -0.68 1.02 0 0 Z " fill="#324D5E" transform="translate(822,462)"/>
<path d="M0 0 C0.99 0.99 1.98 1.98 3 3 C1.68 3 0.36 3 -1 3 C-0.67 2.01 -0.34 1.02 0 0 Z " fill="#355466" transform="translate(805,535)"/>
<path d="M0 0 C0.99 0.33 1.98 0.66 3 1 C1.68 2.32 0.36 3.64 -1 5 C-0.67 3.35 -0.34 1.7 0 0 Z " fill="#CED0D2" transform="translate(653,514)"/>
<path d="M0 0 C0.99 0 1.98 0 3 0 C2.67 1.32 2.34 2.64 2 4 C1.34 3.67 0.68 3.34 0 3 C0 2.01 0 1.02 0 0 Z " fill="#3B4348" transform="translate(837,474)"/>
<path d="M0 0 C0.99 0.33 1.98 0.66 3 1 C2.67 1.99 2.34 2.98 2 4 C1.01 3.01 0.02 2.02 -1 1 C-0.67 0.67 -0.34 0.34 0 0 Z " fill="#E3E4E5" transform="translate(846,541)"/>
<path d="M0 0 C0.66 1.32 1.32 2.64 2 4 C1.34 4.66 0.68 5.32 0 6 C-1 3 -1 3 0 0 Z " fill="#C5C7C9" transform="translate(232,524)"/>
<path d="M0 0 C0.66 0.33 1.32 0.66 2 1 C1.67 1.99 1.34 2.98 1 4 C0.67 3.34 0.34 2.68 0 2 C-0.99 1.67 -1.98 1.34 -3 1 C-2.01 0.67 -1.02 0.34 0 0 Z " fill="#D2D4D5" transform="translate(804,501)"/>
<path d="M0 0 C0.99 0 1.98 0 3 0 C3 0.99 3 1.98 3 3 C2.01 3 1.02 3 0 3 C0 2.01 0 1.02 0 0 Z " fill="#8FD2EF" transform="translate(778,489)"/>
<path d="M0 0 C0.66 0.33 1.32 0.66 2 1 C2 1.99 2 2.98 2 4 C1.01 3.67 0.02 3.34 -1 3 C-0.67 2.01 -0.34 1.02 0 0 Z " fill="#36576A" transform="translate(825,484)"/>
<path d="M0 0 C0.99 0.33 1.98 0.66 3 1 C2.01 2.485 2.01 2.485 1 4 C0.67 2.68 0.34 1.36 0 0 Z " fill="#D0D2D4" transform="translate(180,545)"/>
<path d="M0 0 C0.66 0 1.32 0 2 0 C2 0.99 2 1.98 2 3 C1.01 3 0.02 3 -1 3 C-0.67 2.01 -0.34 1.02 0 0 Z " fill="#FEFEFE" transform="translate(189,514)"/>
<path d="M0 0 C0.99 0.33 1.98 0.66 3 1 C2.67 1.66 2.34 2.32 2 3 C1.34 3 0.68 3 0 3 C0 2.01 0 1.02 0 0 Z " fill="#30576F" transform="translate(222,536)"/>
<path d="M0 0 C0.66 0 1.32 0 2 0 C1.67 0.99 1.34 1.98 1 3 C0.34 2.34 -0.32 1.68 -1 1 C-0.67 0.67 -0.34 0.34 0 0 Z " fill="#374045" transform="translate(845,544)"/>
<path d="M0 0 C0.99 0.33 1.98 0.66 3 1 C2.34 1.66 1.68 2.32 1 3 C0.67 2.01 0.34 1.02 0 0 Z " fill="#286B94" transform="translate(202,485)"/>
</svg>