
<!-- Generator: visioncortex VTracer 0.6.4 -->
<svg version="1.1" xmlns="http://www.w3.org/2000/svg" viewBox="0 0 777 187" preserveAspectRatio="xMidYMid meet">
<path d="M0 0 C256.41 0 512.82 0 777 0 C777 61.71 777 123.42 777 187 C520.59 187 264.18 187 0 187 C0 125.29 0 63.58 0 0 Z " fill="#F9F9F9" transform="translate(0,0)"/>
<path d="M0 0 C9.517 8.04 16.517 19.753 18.625 32.125 C18.642 33.47 18.634 34.815 18.605 36.16 C18.421 48.821 22.239 55.841 30.312 65.51 C33.65 69.617 33.65 69.617 33.5 72.625 C32.421 75.708 31.46 76.55 28.625 78.125 C25.875 78.812 25.875 78.812 23.625 79.125 C23.955 80.115 24.285 81.105 24.625 82.125 C24.665 84.458 24.669 86.792 24.625 89.125 C23.999 89.33 23.372 89.535 22.727 89.746 C21.909 90.016 21.092 90.285 20.25 90.562 C19.438 90.829 18.626 91.096 17.789 91.371 C15.615 92.077 15.615 92.077 13.625 93.125 C16.925 94.445 20.225 95.765 23.625 97.125 C22.096 117.212 22.096 117.212 16.625 122.125 C10.885 125.802 5.567 125.579 -1.006 125.652 C-1.781 125.674 -2.557 125.696 -3.355 125.719 C-4.056 125.726 -4.756 125.733 -5.477 125.74 C-7.928 126.237 -8.816 127.211 -10.375 129.125 C-12.121 133.762 -11.809 139.117 -12.094 144.008 C-12.375 147.125 -12.375 147.125 -13.375 149.125 C-36.805 149.125 -60.235 149.125 -84.375 149.125 C-82.375 138.125 -82.375 138.125 -80.375 133.125 C-77.529 122.163 -76.679 110.625 -81.375 100.125 C-81.692 99.395 -82.009 98.666 -82.336 97.914 C-84.922 92.394 -88.108 87.319 -91.375 82.188 C-101.749 65.79 -107.187 48.953 -103.188 29.438 C-99.228 14.133 -89.858 2.462 -76.688 -6.062 C-52.985 -19.764 -21.366 -16.239 0 0 Z " fill="#EAEAEA" transform="translate(179.375,24.875)"/>
<path d="M0 0 C9.517 8.04 16.517 19.753 18.625 32.125 C18.642 33.47 18.634 34.815 18.605 36.16 C18.421 48.821 22.239 55.841 30.312 65.51 C33.65 69.617 33.65 69.617 33.5 72.625 C32.421 75.708 31.46 76.55 28.625 78.125 C25.875 78.812 25.875 78.812 23.625 79.125 C23.955 80.115 24.285 81.105 24.625 82.125 C24.665 84.458 24.669 86.792 24.625 89.125 C18.728 91.418 13.959 92.47 7.625 92.125 C7.625 90.475 7.625 88.825 7.625 87.125 C11.087 85.073 12.219 85.125 16.625 85.125 C16.625 81.825 16.625 78.525 16.625 75.125 C22.375 72.125 22.375 72.125 24.625 72.125 C24.178 71.424 23.73 70.722 23.27 70 C20.046 64.941 16.832 59.878 13.668 54.781 C12.68 53.212 11.653 51.668 10.625 50.125 C10.37 48.123 10.37 48.123 10.352 45.844 C10.334 45.007 10.316 44.17 10.298 43.308 C10.282 42.423 10.266 41.537 10.25 40.625 C9.724 26.091 5.533 16.592 -5 6.438 C-18.111 -4.451 -34.944 -6.843 -51.375 -5.875 C-54.566 -5.564 -57.347 -4.922 -60.375 -3.875 C-61.453 -3.506 -62.53 -3.138 -63.641 -2.758 C-74.484 1.396 -84.901 8.523 -90.375 19.125 C-96.739 33.939 -97.054 47.982 -91.375 63.125 C-88.493 69.887 -85.168 76.318 -80.695 82.168 C-71.07 96.436 -67.249 111.219 -70.357 128.257 C-71.28 132.936 -72.231 136.838 -74.375 141.125 C-56.225 141.125 -38.075 141.125 -19.375 141.125 C-19.375 137.165 -19.375 133.205 -19.375 129.125 C-17.875 125.375 -17.875 125.375 -16.375 123.125 C-18.046 122.506 -18.046 122.506 -19.75 121.875 C-20.844 121.457 -20.844 121.457 -21.961 121.031 C-23.582 120.423 -25.213 119.84 -26.852 119.281 C-33.204 117 -37.598 113.875 -42.375 109.125 C-42.045 107.475 -41.715 105.825 -41.375 104.125 C-38.432 105.498 -35.975 107.127 -33.375 109.062 C-28.019 112.671 -22.648 113.904 -16.375 115.125 C-15.029 115.432 -15.029 115.432 -13.656 115.746 C-6.231 117.329 3.976 119.426 10.992 115.953 C13.192 113.491 13.186 111.828 13.312 108.562 C13.559 103.257 13.559 103.257 14.625 101.125 C13.656 100.981 12.686 100.836 11.688 100.688 C8.625 100.125 8.625 100.125 7.625 99.125 C7.584 97.459 7.582 95.791 7.625 94.125 C13.789 93.795 17.937 94.804 23.625 97.125 C22.096 117.212 22.096 117.212 16.625 122.125 C10.885 125.802 5.567 125.579 -1.006 125.652 C-1.781 125.674 -2.557 125.696 -3.355 125.719 C-4.056 125.726 -4.756 125.733 -5.477 125.74 C-7.928 126.237 -8.816 127.211 -10.375 129.125 C-12.121 133.762 -11.809 139.117 -12.094 144.008 C-12.375 147.125 -12.375 147.125 -13.375 149.125 C-36.805 149.125 -60.235 149.125 -84.375 149.125 C-82.375 138.125 -82.375 138.125 -80.375 133.125 C-77.529 122.163 -76.679 110.625 -81.375 100.125 C-81.692 99.395 -82.009 98.666 -82.336 97.914 C-84.922 92.394 -88.108 87.319 -91.375 82.188 C-101.749 65.79 -107.187 48.953 -103.188 29.438 C-99.228 14.133 -89.858 2.462 -76.688 -6.062 C-52.985 -19.764 -21.366 -16.239 0 0 Z " fill="#6D6E6F" transform="translate(179.375,24.875)"/>
<path d="M0 0 C5.489 4.371 10.297 10.021 11.59 17.062 C12.483 25.313 10.873 31.426 6.082 38.191 C1.425 43.899 -4.229 49.173 -11.586 50.738 C-15.29 51.052 -18.823 51.028 -22.53 50.896 C-31.101 50.616 -37.474 50.981 -45.195 54.969 C-47.41 56.062 -47.41 56.062 -50.41 56.062 C-50.634 52.145 -49.851 49.665 -48.41 46.062 C-48.017 42.841 -48.058 41.577 -49.91 38.875 C-50.405 38.277 -50.9 37.679 -51.41 37.062 C-51.41 36.403 -51.41 35.743 -51.41 35.062 C-52.07 35.062 -52.73 35.062 -53.41 35.062 C-53.967 33.67 -53.967 33.67 -54.535 32.25 C-56.747 28.49 -58.57 27.899 -62.41 26.062 C-63.09 23.977 -63.09 23.977 -63.41 22.062 C-62.173 21.609 -60.935 21.155 -59.66 20.688 C-54.881 18.331 -54.034 15.448 -52.379 10.59 C-49.382 2.771 -42.622 -1.32 -35.41 -4.938 C-23.31 -9.778 -10.477 -7.053 0 0 Z " fill="#929395" transform="translate(273.41015625,93.9375)"/>
<path d="M0 0 C2.97 0 5.94 0 9 0 C9.248 0.949 9.495 1.898 9.75 2.875 C10.704 6.009 10.704 6.009 12.812 7.438 C15.542 8.139 17.285 7.679 20 7 C24.681 7 25.621 7.996 29 11 C29.66 9.02 30.32 7.04 31 5 C31.804 4.876 32.609 4.753 33.438 4.625 C34.283 4.419 35.129 4.212 36 4 C36.33 3.34 36.66 2.68 37 2 C38.938 2.375 38.938 2.375 41 3 C41.495 3.99 41.495 3.99 42 5 C44.025 5.652 44.025 5.652 46 6 C46.495 9.465 46.495 9.465 47 13 C48.32 13 49.64 13 51 13 C51 14.32 51 15.64 51 17 C51.66 17.33 52.32 17.66 53 18 C53 17.01 53 16.02 53 15 C53.99 15.33 54.98 15.66 56 16 C55.67 17.32 55.34 18.64 55 20 C52.75 20.75 52.75 20.75 50 21 C48.646 19.687 47.312 18.354 46 17 C43.796 16.905 43.796 16.905 42 18 C41.505 19.485 41.505 19.485 41 21 C40.093 20.691 39.185 20.381 38.25 20.062 C35.834 19.273 33.472 18.571 31 18 C31 16.35 31 14.7 31 13 C29.68 13.99 28.36 14.98 27 16 C27.447 20.479 27.447 20.479 30 24 C31.32 24.33 32.64 24.66 34 25 C34 28.3 34 31.6 34 35 C32.02 35.66 30.04 36.32 28 37 C26.948 39.61 26.948 39.61 27 43 C30.98 50.645 38.432 56.828 44.875 62.375 C45.523 62.947 46.172 63.52 46.84 64.109 C48.432 65.503 50.054 66.863 51.691 68.203 C58.617 74.311 58.617 74.311 59.785 79.461 C60 83 60 83 59.938 86.312 C59.694 89.154 59.694 89.154 62 91 C62.25 94 62.25 94 62 97 C60 99 60 99 57.562 99.312 C55 99 55 99 53.125 97.875 C52 96 52 96 52.188 92.875 C52.456 91.926 52.724 90.978 53 90 C53.66 89.67 54.32 89.34 55 89 C55.724 84.811 55.866 81.178 55 77 C51.87 72.669 48.075 69.401 44 66 C42.603 64.772 41.207 63.543 39.812 62.312 C39.19 61.781 38.567 61.25 37.926 60.703 C34.456 57.635 31.235 54.312 28 51 C27.134 51.495 27.134 51.495 26.25 52 C23.379 53.276 21.067 53.344 18.062 52.375 C15.059 51.829 13.595 52.429 11 54 C9.628 57.03 9.628 57.03 9 60 C6.03 60 3.06 60 0 60 C-0.412 59.051 -0.825 58.102 -1.25 57.125 C-3.018 53.968 -3.642 53.049 -7 52 C-7.99 52 -8.98 52 -10 52 C-10.33 52.66 -10.66 53.32 -11 54 C-13.379 53.824 -14.702 53.303 -16.379 51.598 C-17.621 50.094 -18.814 48.549 -20 47 C-19.629 46.278 -19.257 45.556 -18.875 44.812 C-17.763 42.044 -17.763 42.044 -18.562 39.312 C-20.343 36.448 -21.817 35.922 -25 35 C-25 31.7 -25 28.4 -25 25 C-24.216 24.752 -23.433 24.505 -22.625 24.25 C-19.993 23.217 -19.993 23.217 -18.625 21.375 C-17.76 18.759 -17.76 18.759 -18.688 15.062 C-19.039 12.973 -19.039 12.973 -19 11 C-16.562 8 -16.562 8 -14 6 C-13.438 6.338 -12.876 6.675 -12.297 7.023 C-9.603 8.169 -8.12 8.047 -5.25 7.625 C-4.051 7.459 -4.051 7.459 -2.828 7.289 C-2.225 7.194 -1.622 7.098 -1 7 C-0.67 4.69 -0.34 2.38 0 0 Z " fill="#A3A4A5" transform="translate(121,26)"/>
<path d="M0 0 C0.703 0.004 1.405 0.008 2.129 0.012 C2.831 0.008 3.534 0.004 4.258 0 C9.502 0.01 9.502 0.01 10.629 1.137 C10.723 2.947 10.746 4.761 10.742 6.574 C10.742 8.316 10.742 8.316 10.742 10.093 C10.737 11.357 10.732 12.62 10.727 13.922 C10.725 15.208 10.724 16.494 10.722 17.819 C10.718 21.243 10.709 24.668 10.698 28.092 C10.687 31.584 10.683 35.076 10.678 38.568 C10.667 45.424 10.649 52.281 10.629 59.137 C6.339 59.137 2.049 59.137 -2.371 59.137 C-2.866 41.812 -2.866 41.812 -3.371 24.137 C-5.021 28.757 -6.671 33.377 -8.371 38.137 C-10.999 45.035 -13.97 51.586 -17.371 58.137 C-20.341 58.137 -23.311 58.137 -26.371 58.137 C-29.555 51.475 -32.386 44.704 -35.059 37.824 C-35.356 37.06 -35.653 36.296 -35.959 35.508 C-37.54 31.406 -38.978 27.316 -40.371 23.137 C-40.701 34.687 -41.031 46.237 -41.371 58.137 C-45.331 58.137 -49.291 58.137 -53.371 58.137 C-53.371 39.327 -53.371 20.517 -53.371 1.137 C-48.421 1.137 -43.471 1.137 -38.371 1.137 C-34.165 9.22 -30.756 17.612 -27.262 26.021 C-26.79 27.149 -26.318 28.276 -25.832 29.438 C-25.195 30.971 -25.195 30.971 -24.544 32.536 C-23.388 35.289 -23.388 35.289 -21.371 38.137 C-20.899 36.868 -20.899 36.868 -20.418 35.574 C-16.497 25.181 -16.497 25.181 -14.434 21.324 C-11.932 16.588 -10.21 11.532 -8.389 6.507 C-6.022 0.012 -6.022 0.012 0 0 Z " fill="#8B8D8E" transform="translate(647.37109375,69.86328125)"/>
<path d="M0 0 C9.517 8.04 16.517 19.753 18.625 32.125 C18.642 33.47 18.634 34.815 18.605 36.16 C18.421 48.821 22.239 55.841 30.312 65.51 C33.65 69.617 33.65 69.617 33.5 72.625 C32.421 75.708 31.46 76.55 28.625 78.125 C25.875 78.812 25.875 78.812 23.625 79.125 C23.955 80.115 24.285 81.105 24.625 82.125 C24.665 84.458 24.669 86.792 24.625 89.125 C18.728 91.418 13.959 92.47 7.625 92.125 C7.625 90.475 7.625 88.825 7.625 87.125 C11.087 85.073 12.219 85.125 16.625 85.125 C16.625 81.825 16.625 78.525 16.625 75.125 C22.375 72.125 22.375 72.125 24.625 72.125 C24.178 71.424 23.73 70.722 23.27 70 C20.046 64.941 16.832 59.878 13.668 54.781 C12.68 53.212 11.653 51.668 10.625 50.125 C10.37 48.123 10.37 48.123 10.352 45.844 C10.334 45.007 10.316 44.17 10.298 43.308 C10.282 42.423 10.266 41.537 10.25 40.625 C9.724 26.091 5.533 16.592 -5 6.438 C-18.111 -4.451 -34.944 -6.843 -51.375 -5.875 C-54.566 -5.564 -57.347 -4.922 -60.375 -3.875 C-61.453 -3.506 -62.53 -3.138 -63.641 -2.758 C-74.484 1.396 -84.901 8.523 -90.375 19.125 C-93.721 26.913 -95.543 34.033 -95.402 42.547 C-95.39 43.737 -95.378 44.926 -95.365 46.152 C-95.33 48.65 -95.291 51.147 -95.248 53.645 C-95.237 54.829 -95.226 56.014 -95.215 57.234 C-95.198 58.317 -95.181 59.399 -95.164 60.515 C-95.375 63.125 -95.375 63.125 -97.375 65.125 C-97.705 64.135 -98.035 63.145 -98.375 62.125 C-99.035 63.115 -99.695 64.105 -100.375 65.125 C-105.309 47.965 -106.689 31.806 -97.816 15.465 C-88.504 0.348 -75.542 -8.627 -58.375 -12.875 C-37.85 -17.169 -16.697 -12.691 0 0 Z M-100.375 59.125 C-99.375 62.125 -99.375 62.125 -99.375 62.125 Z " fill="#A5A5A6" transform="translate(179.375,24.875)"/>
<path d="M0 0 C3.43 2.562 5.281 5.189 6.621 9.211 C6.706 11.652 6.737 14.064 6.719 16.504 C6.717 17.21 6.716 17.916 6.714 18.643 C6.709 20.895 6.696 23.147 6.684 25.398 C6.679 26.926 6.674 28.454 6.67 29.982 C6.659 33.725 6.642 37.468 6.621 41.211 C2.661 41.211 -1.299 41.211 -5.379 41.211 C-5.709 39.891 -6.039 38.571 -6.379 37.211 C-7.101 38.036 -7.823 38.861 -8.566 39.711 C-12.695 43.141 -17.057 42.963 -22.234 42.773 C-26.827 41.952 -29.644 39.958 -32.379 36.211 C-33.74 32.128 -34.013 28.476 -33.379 24.211 C-30.377 19.299 -26.912 16.622 -21.379 15.211 C-16.727 14.4 -12.068 13.764 -7.379 13.211 C-7.723 10.738 -7.723 10.738 -8.379 8.211 C-11.22 6.791 -13.234 6.896 -16.379 7.211 C-16.936 7.871 -17.493 8.531 -18.066 9.211 C-21.891 12.519 -26.528 11.512 -31.379 11.211 C-31.201 6.683 -30.875 4.73 -27.691 1.398 C-19.463 -4.035 -8.727 -5.117 0 0 Z " fill="#767777" transform="translate(394.37890625,86.7890625)"/>
<path d="M0 0 C5.096 3.012 8.708 7.938 10.562 13.5 C10.562 17.13 10.562 20.76 10.562 24.5 C0.663 24.5 -9.237 24.5 -19.438 24.5 C-17.904 28.816 -17.904 28.816 -15.438 32.5 C-14.003 32.599 -12.563 32.63 -11.125 32.625 C-10.345 32.628 -9.565 32.63 -8.762 32.633 C-6.525 32.505 -4.585 32.119 -2.438 31.5 C-2.438 30.84 -2.438 30.18 -2.438 29.5 C1.523 29.5 5.482 29.5 9.562 29.5 C8.257 34.724 6.604 38.017 2.312 41.312 C-3.646 44.823 -10.771 44.371 -17.438 43.5 C-24.842 40.39 -28.903 35.568 -32.438 28.5 C-33.289 19.882 -33.292 12.765 -28.16 5.461 C-21.293 -2.356 -9.515 -4.186 0 0 Z " fill="#6B6C6D" transform="translate(699.4375,85.5)"/>
<path d="M0 0 C4.29 0 8.58 0 13 0 C13.33 10.56 13.66 21.12 14 32 C20.529 24.024 20.529 24.024 27 16 C29.812 15.626 31.976 15.517 34.75 15.688 C35.447 15.71 36.145 15.733 36.863 15.756 C38.576 15.815 40.289 15.904 42 16 C37.435 22.409 32.331 28.219 27 34 C28.603 39.119 31.757 42.89 35 47.062 C36.086 48.468 37.17 49.875 38.25 51.285 C38.73 51.903 39.209 52.52 39.703 53.156 C41.023 55.033 42.028 56.925 43 59 C37.964 59.918 32.915 60.73 28 59 C23.131 55.084 19.933 49.428 17 44 C17 43.34 17 42.68 17 42 C16.01 42.66 15.02 43.32 14 44 C13.616 46.61 13.397 49.006 13.312 51.625 C13.278 52.331 13.244 53.038 13.209 53.766 C13.126 55.51 13.062 57.255 13 59 C8.71 59 4.42 59 0 59 C0 39.53 0 20.06 0 0 Z " fill="#737474" transform="translate(436,69)"/>
<path d="M0 0 C3.823 2.452 6.733 6.084 8.754 10.125 C8.957 12.043 8.957 12.043 9.004 14.312 C9.03 15.049 9.055 15.785 9.082 16.543 C8.253 23.064 5.015 27.497 0.566 32.125 C0.122 32.607 -0.322 33.089 -0.779 33.586 C-4.711 37.779 -8.871 41.297 -13.246 45.125 C-5.656 45.455 1.934 45.785 9.754 46.125 C9.754 49.425 9.754 52.725 9.754 56.125 C-3.776 56.125 -17.306 56.125 -31.246 56.125 C-31.246 46.125 -31.246 46.125 -28.719 42.84 C-27.605 41.886 -26.467 40.961 -25.309 40.062 C-24.113 39.052 -22.919 38.041 -21.727 37.027 C-21.135 36.54 -20.544 36.052 -19.935 35.55 C-17.54 33.529 -15.329 31.348 -13.121 29.125 C-12.438 28.444 -11.755 27.764 -11.051 27.062 C-7.884 23.663 -5.897 21.27 -5.371 16.562 C-5.271 15.798 -5.17 15.034 -5.066 14.246 C-5.065 12.046 -5.065 12.046 -6.551 10.367 C-9.125 8.481 -11.146 8.802 -14.246 9.125 C-17.933 11.14 -17.933 11.14 -19.246 17.125 C-23.536 17.125 -27.826 17.125 -32.246 17.125 C-32.246 10.081 -30.791 7.265 -26.246 2.125 C-19.185 -3.759 -8.161 -3.544 0 0 Z " fill="#919394" transform="translate(538.24609375,71.875)"/>
<path d="M0 0 C1.938 0.375 1.938 0.375 4 1 C4.495 1.99 4.495 1.99 5 3 C12.59 3.33 20.18 3.66 28 4 C28 4.99 28 5.98 28 7 C28.66 7.33 29.32 7.66 30 8 C13.17 8.99 13.17 8.99 -4 10 C-4.33 10.99 -4.66 11.98 -5 13 C-4.036 13.037 -3.072 13.075 -2.078 13.113 C-0.183 13.212 -0.183 13.212 1.75 13.312 C3.629 13.4 3.629 13.4 5.547 13.488 C9.031 14.005 10.479 14.625 13 17 C12.024 17.061 11.048 17.121 10.043 17.184 C8.135 17.309 8.135 17.309 6.188 17.438 C4.923 17.519 3.658 17.6 2.355 17.684 C-0.992 17.872 -0.992 17.872 -4 19 C-4 19.66 -4 20.32 -4 21 C0.291 21.254 4.582 21.474 8.875 21.688 C10.098 21.76 11.322 21.833 12.582 21.908 C13.749 21.963 14.915 22.018 16.117 22.074 C17.196 22.132 18.275 22.189 19.386 22.249 C20.249 22.167 21.111 22.085 22 22 C22.66 21.01 23.32 20.02 24 19 C24 20.32 24 21.64 24 23 C24.701 23.124 25.403 23.248 26.125 23.375 C29.175 24.038 32.041 25.014 35 26 C35.66 26 36.32 26 37 26 C37.99 26 38.98 26 40 26 C37.932 31.584 32.198 35.464 27 38 C22.204 38.932 17.727 39.006 12.881 38.834 C4.309 38.554 -2.064 38.918 -9.785 42.906 C-12 44 -12 44 -15 44 C-15.224 40.082 -14.441 37.603 -13 34 C-12.607 30.778 -12.647 29.514 -14.5 26.812 C-14.995 26.214 -15.49 25.616 -16 25 C-16 24.34 -16 23.68 -16 23 C-16.66 23 -17.32 23 -18 23 C-18.371 22.072 -18.743 21.144 -19.125 20.188 C-21.337 16.428 -23.16 15.837 -27 14 C-27.68 11.914 -27.68 11.914 -28 10 C-27.434 9.734 -26.868 9.469 -26.285 9.195 C-25.552 8.842 -24.818 8.489 -24.062 8.125 C-23.332 7.777 -22.601 7.429 -21.848 7.07 C-19.837 6.132 -19.837 6.132 -19 4 C-18.01 4.33 -17.02 4.66 -16 5 C-13.705 4.906 -13.705 4.906 -11.312 4.562 C-10.1 4.41 -10.1 4.41 -8.863 4.254 C-7.941 4.128 -7.941 4.128 -7 4 C-6.67 3.01 -6.34 2.02 -6 1 C-5.34 1.66 -4.68 2.32 -4 3 C-3.01 3 -2.02 3 -1 3 C-0.67 2.01 -0.34 1.02 0 0 Z " fill="#737474" transform="translate(238,106)"/>
<path d="M0 0 C0.33 0.66 0.66 1.32 1 2 C1.99 2 2.98 2 4 2 C3.505 3.176 3.01 4.351 2.5 5.562 C0.771 10.292 -0.176 14.287 1.914 19.109 C4.482 23.649 6.817 26.533 12 28 C17.007 28.253 21.446 27.89 25.5 24.75 C29.577 20.266 30.282 16.82 30.137 10.938 C29.969 8.566 29.576 6.305 29 4 C31.667 3.333 34.333 2.667 37 2 C37.577 2.804 38.155 3.609 38.75 4.438 C40.902 7.379 40.902 7.379 45 8 C45 11.3 45 14.6 45 18 C43.02 18.66 41.04 19.32 39 20 C37.948 22.61 37.948 22.61 38 26 C41.98 33.645 49.432 39.828 55.875 45.375 C56.523 45.947 57.172 46.52 57.84 47.109 C59.432 48.503 61.054 49.863 62.691 51.203 C69.617 57.311 69.617 57.311 70.785 62.461 C71 66 71 66 70.938 69.312 C70.694 72.154 70.694 72.154 73 74 C73.25 77 73.25 77 73 80 C71 82 71 82 68.562 82.312 C66 82 66 82 64.125 80.875 C63 79 63 79 63.188 75.875 C63.456 74.926 63.724 73.978 64 73 C64.66 72.67 65.32 72.34 66 72 C66.724 67.811 66.866 64.178 66 60 C62.87 55.669 59.075 52.401 55 49 C53.603 47.772 52.207 46.543 50.812 45.312 C50.19 44.781 49.567 44.25 48.926 43.703 C45.456 40.635 42.235 37.312 39 34 C38.134 34.495 38.134 34.495 37.25 35 C34.379 36.276 32.067 36.344 29.062 35.375 C26.059 34.829 24.595 35.429 22 37 C20.628 40.03 20.628 40.03 20 43 C17.03 43 14.06 43 11 43 C10.588 42.051 10.175 41.102 9.75 40.125 C7.982 36.968 7.358 36.049 4 35 C3.01 35 2.02 35 1 35 C0.67 35.66 0.34 36.32 0 37 C-2.379 36.824 -3.702 36.303 -5.379 34.598 C-6.621 33.094 -7.814 31.549 -9 30 C-8.629 29.278 -8.257 28.556 -7.875 27.812 C-6.763 25.044 -6.763 25.044 -7.562 22.312 C-9.343 19.448 -10.817 18.922 -14 18 C-14 14.7 -14 11.4 -14 8 C-12.948 7.691 -12.948 7.691 -11.875 7.375 C-8.597 5.807 -6.81 3.931 -4.43 1.242 C-3 0 -3 0 0 0 Z " fill="#909192" transform="translate(110,43)"/>
<path d="M0 0 C15.84 0 31.68 0 48 0 C48 3.3 48 6.6 48 10 C42.39 10 36.78 10 31 10 C31 25.51 31 41.02 31 57 C26.71 57 22.42 57 18 57 C18 41.49 18 25.98 18 10 C12.06 10 6.12 10 0 10 C0 6.7 0 3.4 0 0 Z " fill="#919293" transform="translate(312,71)"/>
<path d="M0 0 C0.703 0.004 1.405 0.008 2.129 0.012 C2.831 0.008 3.534 0.004 4.258 0 C9.502 0.01 9.502 0.01 10.629 1.137 C10.723 2.947 10.746 4.761 10.742 6.574 C10.742 7.736 10.742 8.897 10.742 10.093 C10.737 11.357 10.732 12.62 10.727 13.922 C10.725 15.208 10.724 16.494 10.722 17.819 C10.718 21.243 10.709 24.668 10.698 28.092 C10.687 31.584 10.683 35.076 10.678 38.568 C10.667 45.424 10.649 52.281 10.629 59.137 C6.339 59.137 2.049 59.137 -2.371 59.137 C-2.701 45.937 -3.031 32.737 -3.371 19.137 C-5.681 19.467 -7.991 19.797 -10.371 20.137 C-11.031 19.147 -11.691 18.157 -12.371 17.137 C-11.555 14.303 -10.664 11.728 -9.559 9.012 C-9.272 8.271 -8.985 7.529 -8.689 6.766 C-6.041 0.012 -6.041 0.012 0 0 Z " fill="#959798" transform="translate(647.37109375,69.86328125)"/>
<path d="M0 0 C3.96 0 7.92 0 12 0 C12 19.8 12 39.6 12 60 C7.71 60 3.42 60 -1 60 C-1.023 52.325 -1.041 44.649 -1.052 36.974 C-1.057 33.41 -1.064 29.847 -1.075 26.283 C-1.088 22.19 -1.093 18.097 -1.098 14.004 C-1.103 12.719 -1.108 11.433 -1.113 10.109 C-1.113 8.928 -1.113 7.746 -1.114 6.53 C-1.116 5.484 -1.118 4.438 -1.12 3.36 C-1 1 -1 1 0 0 Z " fill="#727373" transform="translate(413,68)"/>
<path d="M0 0 C4.106 2.646 7.244 5.107 8.812 9.812 C9.181 15.428 9.028 18.989 5.812 23.812 C1.742 28.28 -1.597 29.76 -7.656 30.07 C-12.752 29.551 -16.326 27.032 -19.57 23.164 C-22.239 19.039 -22.873 15.614 -22.188 10.812 C-17.948 0.978 -10.615 -3.955 0 0 Z " fill="#E8E8E9" transform="translate(132.1875,42.1875)"/>
<path d="M0 0 C1.083 0.248 1.083 0.248 2.188 0.5 C4.864 0.976 7.289 1.077 10 1 C9.482 7.864 7.517 13.619 5 20 C4.678 20.849 4.355 21.699 4.023 22.574 C1.706 28.574 -1.038 34.294 -4 40 C-6.97 40 -9.94 40 -13 40 C-16.176 33.355 -19.037 26.595 -21.75 19.75 C-22.056 18.994 -22.361 18.238 -22.676 17.459 C-24.445 12.94 -25.514 8.833 -26 4 C-22.233 4 -21.088 4.235 -18 6 C-17.67 4.68 -17.34 3.36 -17 2 C-14 8 -11 14 -8 20 C-7.674 19.143 -7.348 18.286 -7.012 17.402 C-4.776 11.553 -2.531 5.728 0 0 Z " fill="#787979" transform="translate(634,88)"/>
<path d="M0 0 C3.465 1.485 3.465 1.485 7 3 C7 2.34 7 1.68 7 1 C7.66 1 8.32 1 9 1 C17.167 16.172 17.167 16.172 16.98 25.035 C16.796 37.696 20.614 44.716 28.687 54.385 C32.025 58.492 32.025 58.492 31.875 61.5 C30.796 64.583 29.835 65.425 27 67 C24.25 67.688 24.25 67.688 22 68 C22.33 68.99 22.66 69.98 23 71 C23.04 73.333 23.044 75.667 23 78 C17.103 80.293 12.334 81.345 6 81 C6 79.35 6 77.7 6 76 C9.462 73.948 10.594 74 15 74 C15 70.7 15 67.4 15 64 C20.75 61 20.75 61 23 61 C22.329 59.948 22.329 59.948 21.645 58.875 C18.421 53.816 15.207 48.753 12.043 43.656 C11.055 42.087 10.028 40.543 9 39 C8.745 36.998 8.745 36.998 8.727 34.719 C8.7 33.463 8.7 33.463 8.673 32.182 C8.657 31.297 8.641 30.412 8.625 29.5 C8.264 18.852 6.261 10.72 0 2 C0 1.34 0 0.68 0 0 Z M2 0 C4 1 4 1 4 1 Z " fill="#939496" transform="translate(181,36)"/>
<path d="M0 0 C5.096 3.012 8.708 7.938 10.562 13.5 C10.562 17.13 10.562 20.76 10.562 24.5 C0.663 24.5 -9.237 24.5 -19.438 24.5 C-19.438 24.17 -19.438 23.84 -19.438 23.5 C-9.867 23.5 -0.298 23.5 9.562 23.5 C9.067 22.015 9.067 22.015 8.562 20.5 C7.903 20.5 7.242 20.5 6.562 20.5 C6.562 19.51 6.562 18.52 6.562 17.5 C2.46 16.485 2.46 16.485 -1.438 17.5 C-2.888 17.516 -4.341 17.466 -5.789 17.379 C-6.64 17.331 -7.491 17.282 -8.367 17.232 C-9.257 17.176 -10.146 17.12 -11.062 17.062 C-11.96 17.01 -12.857 16.958 -13.781 16.904 C-16 16.774 -18.219 16.639 -20.438 16.5 C-20.438 15.18 -20.438 13.86 -20.438 12.5 C-23.077 13.16 -25.717 13.82 -28.438 14.5 C-28.438 13.84 -28.438 13.18 -28.438 12.5 C-29.097 12.5 -29.758 12.5 -30.438 12.5 C-30.021 7.636 -28.025 5.671 -24.438 2.5 C-17.88 -2.9 -7.763 -3.415 0 0 Z " fill="#858587" transform="translate(699.4375,85.5)"/>
<path d="M0 0 C6.164 -0.33 10.312 0.679 16 3 C14.471 23.087 14.471 23.087 9 28 C4.09 31.121 0.24 31.385 -5.375 31.188 C-6.111 31.174 -6.847 31.16 -7.605 31.146 C-9.404 31.111 -11.202 31.058 -13 31 C-11.68 30.34 -10.36 29.68 -9 29 C-15.94 29.244 -19.173 31.067 -24 36 C-23.34 34.02 -22.68 32.04 -22 30 C-25.334 28.527 -28.631 27.128 -32.078 25.934 C-39.347 23.373 -44.657 20.601 -50 15 C-49.67 13.35 -49.34 11.7 -49 10 C-46.057 11.373 -43.6 13.002 -41 14.938 C-35.644 18.546 -30.273 19.779 -24 21 C-23.103 21.205 -22.206 21.41 -21.281 21.621 C-13.856 23.204 -3.649 25.301 3.367 21.828 C5.567 19.366 5.561 17.703 5.688 14.438 C5.934 9.132 5.934 9.132 7 7 C6.031 6.856 5.061 6.711 4.062 6.562 C1 6 1 6 0 5 C-0.041 3.334 -0.043 1.666 0 0 Z M-21 27 C-21.33 27.66 -21.66 28.32 -22 29 C-20.68 28.67 -19.36 28.34 -18 28 C-18.99 27.67 -19.98 27.34 -21 27 Z " fill="#777878" transform="translate(187,119)"/>
<path d="M0 0 C0.66 0.66 1.32 1.32 2 2 C1.01 2 0.02 2 -1 2 C-0.67 1.34 -0.34 0.68 0 0 Z M19 0 C19.99 0.33 20.98 0.66 22 1 C20.68 1.33 19.36 1.66 18 2 C18.33 1.34 18.66 0.68 19 0 Z M-3 2 C-2.01 2.495 -2.01 2.495 -1 3 C-1.99 3.495 -1.99 3.495 -3 4 C-3 3.34 -3 2.68 -3 2 Z M5 1 C5.66 1.66 6.32 2.32 7 3 C7.33 2.67 7.66 2.34 8 2 C9.686 1.928 11.375 1.916 13.062 1.938 C13.982 1.947 14.901 1.956 15.848 1.965 C16.558 1.976 17.268 1.988 18 2 C15.317 4.683 12.613 5.015 9 6 C7.704 7.066 7.704 7.066 7.938 9.562 C7.958 10.367 7.979 11.171 8 12 C11.323 13.662 14.625 13.314 18.188 12.5 C21.139 10.058 21.9 6.584 23 3 C23.66 3 24.32 3 25 3 C25 3.66 25 4.32 25 5 C26.32 4.34 27.64 3.68 29 3 C29.99 3.99 30.98 4.98 32 6 C32.66 5.67 33.32 5.34 34 5 C34.495 13.415 34.495 13.415 35 22 C31.04 22 27.08 22 23 22 C22.67 20.68 22.34 19.36 22 18 C20.917 19.237 20.917 19.237 19.812 20.5 C15.684 23.93 11.322 23.752 6.145 23.562 C1.552 22.741 -1.265 20.747 -4 17 C-4.961 14.118 -5.106 12.301 -5.062 9.312 C-5.053 8.504 -5.044 7.696 -5.035 6.863 C-5.024 6.248 -5.012 5.634 -5 5 C-4.092 4.711 -3.185 4.422 -2.25 4.125 C0.322 3.235 2.613 2.285 5 1 Z " fill="#696A6B" transform="translate(366,106)"/>
<path d="M0 0 C0.33 0.99 0.66 1.98 1 3 C0.446 3.471 -0.109 3.941 -0.68 4.426 C-1.404 5.048 -2.129 5.671 -2.875 6.312 C-3.594 6.927 -4.314 7.542 -5.055 8.176 C-7.192 10.041 -7.192 10.041 -9 13 C-1.08 13 6.84 13 15 13 C15 16.3 15 19.6 15 23 C1.47 23 -12.06 23 -26 23 C-26 13 -26 13 -23.77 9.836 C-22.794 9.024 -21.818 8.212 -20.812 7.375 C-19.85 6.537 -18.887 5.699 -17.895 4.836 C-14.793 2.868 -13.56 2.68 -10 3 C-8.331 2.34 -6.664 1.674 -5 1 C-4.34 1.33 -3.68 1.66 -3 2 C-2.01 1.34 -1.02 0.68 0 0 Z " fill="#737474" transform="translate(533,105)"/>
<path d="M0 0 C1.65 0 3.3 0 5 0 C5.66 1.32 6.32 2.64 7 4 C8.65 4 10.3 4 12 4 C12.826 6.892 13 8.887 13 12 C13.99 12 14.98 12 16 12 C16.312 14.812 16.312 14.812 16 18 C13.5 19.625 13.5 19.625 11 21 C11 22.32 11 23.64 11 25 C7.502 27.478 4.886 26.871 0.898 26.219 C-1.275 25.968 -2.908 26.437 -5 27 C-7.762 24.238 -7.579 21.793 -8 18 C-9.32 18 -10.64 18 -12 18 C-12 16.35 -12 14.7 -12 13 C-11.34 12.67 -10.68 12.34 -10 12 C-9.313 9.882 -9.313 9.882 -8.875 7.438 C-8.707 6.611 -8.54 5.785 -8.367 4.934 C-8.246 4.296 -8.125 3.657 -8 3 C-6.866 2.876 -5.731 2.752 -4.562 2.625 C-3.387 2.419 -2.211 2.213 -1 2 C-0.67 1.34 -0.34 0.68 0 0 Z " fill="#777878" transform="translate(110,83)"/>
<path d="M0 0 C0.66 0 1.32 0 2 0 C2.219 0.811 2.438 1.622 2.664 2.457 C5.274 11.571 8.683 19.722 14.438 27.312 C20.656 35.631 26.792 46.871 25.625 57.375 C25.459 58.964 25.459 58.964 25.289 60.586 C25.194 61.383 25.098 62.179 25 63 C24.34 63 23.68 63 23 63 C22.34 62.34 21.68 61.68 21 61 C20.67 62.98 20.34 64.96 20 67 C19.67 67 19.34 67 19 67 C18.902 66.033 18.804 65.066 18.703 64.07 C18.479 62.117 18.479 62.117 18.25 60.125 C18.111 58.849 17.972 57.573 17.828 56.258 C16.379 47.307 11.954 39.875 7 32.438 C-3.902 15.99 -3.902 15.99 -3 9 C-1 8 -1 8 0 8 C0 5.36 0 2.72 0 0 Z " fill="#797A7A" transform="translate(83,78)"/>
<path d="M0 0 C0.66 0.33 1.32 0.66 2 1 C1.01 2.32 0.02 3.64 -1 5 C-0.01 6.32 0.98 7.64 2 9 C1.541 9.594 1.082 10.189 0.609 10.801 C-6.591 20.527 -10.228 30.254 -10.027 42.422 C-10.015 43.612 -10.003 44.801 -9.99 46.027 C-9.955 48.525 -9.916 51.022 -9.873 53.52 C-9.862 54.704 -9.851 55.889 -9.84 57.109 C-9.823 58.192 -9.806 59.274 -9.789 60.39 C-10 63 -10 63 -12 65 C-12.33 64.01 -12.66 63.02 -13 62 C-13.66 62.99 -14.32 63.98 -15 65 C-19.939 47.824 -21.283 31.723 -12.457 15.352 C-8.931 9.661 -4.784 4.669 0 0 Z M-15 59 C-14 62 -14 62 -14 62 Z " fill="#939596" transform="translate(94,25)"/>
<path d="M0 0 C0.33 0 0.66 0 1 0 C1 14.19 1 28.38 1 43 C-2.96 43 -6.92 43 -11 43 C-11.025 38.392 -11.043 33.784 -11.055 29.176 C-11.06 27.609 -11.067 26.043 -11.075 24.476 C-11.088 22.22 -11.093 19.963 -11.098 17.707 C-11.103 17.011 -11.108 16.315 -11.113 15.598 C-11.114 11.935 -10.871 8.561 -10 5 C-8.515 5.99 -8.515 5.99 -7 7 C-6.01 6.67 -5.02 6.34 -4 6 C-3.01 6 -2.02 6 -1 6 C-0.67 4.02 -0.34 2.04 0 0 Z " fill="#727373" transform="translate(341,85)"/>
<path d="M0 0 C0.66 0.33 1.32 0.66 2 1 C2.495 2.485 2.495 2.485 3 4 C3.66 3.67 4.32 3.34 5 3 C5.99 4.32 6.98 5.64 8 7 C8.99 6.67 9.98 6.34 11 6 C10.513 12.333 10.513 12.333 8.125 15.438 C6 17 6 17 3 17 C2.01 17.495 2.01 17.495 1 18 C0.505 17.01 0.505 17.01 0 16 C-8.346 12.916 -16.947 12.487 -25.75 12.312 C-26.936 12.278 -28.122 12.244 -29.344 12.209 C-32.229 12.128 -35.114 12.058 -38 12 C-38 10.68 -38 9.36 -38 8 C-34.04 7.34 -30.08 6.68 -26 6 C-26 5.67 -26 5.34 -26 5 C-28.31 4.67 -30.62 4.34 -33 4 C-33 3.67 -33 3.34 -33 3 C-22.44 2.67 -11.88 2.34 -1 2 C-0.67 1.34 -0.34 0.68 0 0 Z " fill="#7F7F80" transform="translate(272,116)"/>
<path d="M0 0 C0.33 0 0.66 0 1 0 C1 14.19 1 28.38 1 43 C-2.63 43 -6.26 43 -10 43 C-10 30.13 -10 17.26 -10 4 C-7.03 4 -4.06 4 -1 4 C-0.67 2.68 -0.34 1.36 0 0 Z " fill="#727373" transform="translate(656,85)"/>
<path d="M0 0 C4.29 0 8.58 0 13 0 C13 9.57 13 19.14 13 29 C9.334 29.733 6.633 30.104 3 30 C2.67 29.34 2.34 28.68 2 28 C1.67 38.23 1.34 48.46 1 59 C0.67 59 0.34 59 0 59 C0 39.53 0 20.06 0 0 Z " fill="#868687" transform="translate(436,69)"/>
<path d="M0 0 C1.938 0.375 1.938 0.375 4 1 C4.495 1.99 4.495 1.99 5 3 C12.59 3.33 20.18 3.66 28 4 C28 4.99 28 5.98 28 7 C28.66 7.33 29.32 7.66 30 8 C13.17 8.99 13.17 8.99 -4 10 C-4.66 11.65 -5.32 13.3 -6 15 C-9.438 16.188 -9.438 16.188 -13 17 C-13.99 17.66 -14.98 18.32 -16 19 C-16.66 18.34 -17.32 17.68 -18 17 C-18.66 17.66 -19.32 18.32 -20 19 C-20.33 18.34 -20.66 17.68 -21 17 C-21.99 16.546 -22.98 16.093 -24 15.625 C-27 14 -27 14 -27.688 11.898 C-27.791 11.272 -27.894 10.645 -28 10 C-27.434 9.734 -26.868 9.469 -26.285 9.195 C-25.552 8.842 -24.818 8.489 -24.062 8.125 C-23.332 7.777 -22.601 7.429 -21.848 7.07 C-19.837 6.132 -19.837 6.132 -19 4 C-18.01 4.33 -17.02 4.66 -16 5 C-13.705 4.906 -13.705 4.906 -11.312 4.562 C-10.1 4.41 -10.1 4.41 -8.863 4.254 C-7.941 4.128 -7.941 4.128 -7 4 C-6.67 3.01 -6.34 2.02 -6 1 C-5.34 1.66 -4.68 2.32 -4 3 C-3.01 3 -2.02 3 -1 3 C-0.67 2.01 -0.34 1.02 0 0 Z " fill="#808081" transform="translate(238,106)"/>
<path d="M0 0 C2.535 1.862 4.165 3.397 5.633 6.199 C4.883 9.512 4.883 9.512 3.633 12.199 C-1.165 11.729 -4.385 10.93 -8.367 8.199 C-11.208 6.779 -13.222 6.885 -16.367 7.199 C-16.924 7.859 -17.481 8.519 -18.055 9.199 C-21.879 12.507 -26.516 11.5 -31.367 11.199 C-31.19 6.672 -30.863 4.718 -27.68 1.387 C-19.486 -4.024 -8.678 -5.174 0 0 Z M-6.367 9.199 C-6.037 9.199 -5.707 9.199 -5.367 9.199 C-5.367 10.849 -5.367 12.499 -5.367 14.199 C-6.027 13.869 -6.687 13.539 -7.367 13.199 C-7.037 11.879 -6.707 10.559 -6.367 9.199 Z " fill="#808081" transform="translate(394.3671875,86.80078125)"/>
<path d="M0 0 C0.536 0.165 1.072 0.33 1.625 0.5 C4.903 1.19 7.728 0.566 11 0 C11 1.32 11 2.64 11 4 C14.125 4.029 17.25 4.047 20.375 4.062 C21.264 4.071 22.154 4.079 23.07 4.088 C23.921 4.091 24.772 4.094 25.648 4.098 C26.827 4.106 26.827 4.106 28.029 4.114 C30.078 4.126 30.078 4.126 32 3 C34.019 3.606 36.023 4.269 38 5 C38 5.99 38 6.98 38 8 C38.66 8 39.32 8 40 8 C40.33 7.01 40.66 6.02 41 5 C41 6.98 41 8.96 41 11 C31.43 11 21.86 11 12 11 C11.67 12.32 11.34 13.64 11 15 C11 14.01 11 13.02 11 12 C10.362 12.084 9.724 12.168 9.066 12.254 C8.24 12.356 7.414 12.458 6.562 12.562 C5.739 12.667 4.915 12.771 4.066 12.879 C3.044 12.939 3.044 12.939 2 13 C1.67 12.67 1.34 12.34 1 12 C0.34 13.32 -0.32 14.64 -1 16 C-1.027 13.521 -1.047 11.042 -1.062 8.562 C-1.075 7.502 -1.075 7.502 -1.088 6.42 C-1.097 4.613 -1.052 2.806 -1 1 C-0.67 0.67 -0.34 0.34 0 0 Z " fill="#747575" transform="translate(668,98)"/>
<path d="M0 0 C0.309 0.639 0.619 1.279 0.938 1.938 C1.835 3.936 1.835 3.936 3 5 C3.66 4.34 4.32 3.68 5 3 C5.99 3.66 6.98 4.32 8 5 C8.66 5 9.32 5 10 5 C11.331 7.662 11.113 9.687 11.098 12.664 C11.094 13.786 11.091 14.907 11.088 16.062 C11.08 17.238 11.071 18.414 11.062 19.625 C11.058 20.808 11.053 21.992 11.049 23.211 C11.037 26.141 11.019 29.07 11 32 C7.04 32 3.08 32 -1 32 C-1.191 9.085 -1.191 9.085 0 0 Z " fill="#727373" transform="translate(595,96)"/>
<path d="M0 0 C8.58 0 17.16 0 26 0 C26 3.63 26 7.26 26 11 C17.42 11 8.84 11 0 11 C0 7.37 0 3.74 0 0 Z " fill="#868687" transform="translate(557,99)"/>
<path d="M0 0 C3.96 0 7.92 0 12 0 C12 9.9 12 19.8 12 30 C11.67 30 11.34 30 11 30 C10.67 26.37 10.34 22.74 10 19 C9.01 19 8.02 19 7 19 C5.02 18.34 3.04 17.68 1 17 C0.67 31.19 0.34 45.38 0 60 C-0.33 60 -0.66 60 -1 60 C-1.023 52.325 -1.041 44.649 -1.052 36.974 C-1.057 33.41 -1.064 29.847 -1.075 26.283 C-1.088 22.19 -1.093 18.097 -1.098 14.004 C-1.103 12.719 -1.108 11.433 -1.113 10.109 C-1.113 8.928 -1.113 7.746 -1.114 6.53 C-1.116 5.484 -1.118 4.438 -1.12 3.36 C-1 1 -1 1 0 0 Z " fill="#959798" transform="translate(413,68)"/>
<path d="M0 0 C4.29 0 8.58 0 13 0 C13 0.66 13 1.32 13 2 C16.63 2 20.26 2 24 2 C23.01 2.66 22.02 3.32 21 4 C21.99 4.66 22.98 5.32 24 6 C24 6.99 24 7.98 24 9 C26.97 9.33 29.94 9.66 33 10 C33 10.33 33 10.66 33 11 C21.12 11 9.24 11 -3 11 C-3 8.03 -3 5.06 -3 2 C-2.01 2 -1.02 2 0 2 C0 1.34 0 0.68 0 0 Z " fill="#666768" transform="translate(510,117)"/>
<path d="M0 0 C1.557 0.275 1.557 0.275 3.145 0.555 C5.83 1.058 8.51 1.581 11.188 2.125 C11.188 2.785 11.188 3.445 11.188 4.125 C12.058 3.833 12.058 3.833 12.945 3.535 C15.59 3.051 16.643 3.469 19.062 4.562 C22.575 6.009 25.351 6.413 29.188 6.125 C28.858 6.785 28.528 7.445 28.188 8.125 C24.233 9.414 20.34 9.103 16.244 8.959 C7.613 8.682 1.177 9.016 -6.598 13.031 C-8.812 14.125 -8.812 14.125 -11.812 14.125 C-12.477 8.975 -10.303 4.524 -7.812 0.125 C-4.967 -1.298 -3.106 -0.559 0 0 Z " fill="#68696A" transform="translate(234.8125,135.875)"/>
<path d="M0 0 C1.938 0.375 1.938 0.375 4 1 C4.33 1.66 4.66 2.32 5 3 C7.025 3.652 7.025 3.652 9 4 C9.33 6.31 9.66 8.62 10 11 C11.32 11 12.64 11 14 11 C14 12.32 14 13.64 14 15 C14.66 15.33 15.32 15.66 16 16 C16 15.01 16 14.02 16 13 C16.99 13.33 17.98 13.66 19 14 C18.67 15.32 18.34 16.64 18 18 C15.75 18.75 15.75 18.75 13 19 C11.646 17.687 10.312 16.354 9 15 C6.796 14.905 6.796 14.905 5 16 C4.67 16.99 4.34 17.98 4 19 C3.093 18.691 2.185 18.381 1.25 18.062 C-1.138 17.282 -3.562 16.609 -6 16 C-6 11.71 -6 7.42 -6 3 C-4.35 2.67 -2.7 2.34 -1 2 C-0.67 1.34 -0.34 0.68 0 0 Z " fill="#A0A1A3" transform="translate(158,28)"/>
<path d="M0 0 C4.455 0.99 4.455 0.99 9 2 C9 2.66 9 3.32 9 4 C9.66 4 10.32 4 11 4 C11.66 3.34 12.32 2.68 13 2 C18.154 6.671 22.114 12.252 26 18 C26 18.33 26 18.66 26 19 C20.957 19.919 15.925 20.712 11 19 C6.297 15.302 2.321 9.506 0 4 C0 2.68 0 1.36 0 0 Z " fill="#696A6B" transform="translate(453,109)"/>
<path d="M0 0 C6.679 1.295 11.499 7.42 16.265 11.995 C17.576 13.237 18.907 14.459 20.257 15.659 C32.046 26.152 32.046 26.152 32.857 34.185 C32.995 38.852 32.617 43.376 32 48 C32.99 48.33 33.98 48.66 35 49 C34.67 51.31 34.34 53.62 34 56 C31.394 56.931 30.358 57.149 27.75 56.062 C26.884 55.537 26.884 55.537 26 55 C25.875 52.125 25.875 52.125 26 49 C26.66 48.34 27.32 47.68 28 47 C29.268 36.489 29.268 36.489 26.715 26.5 C24.92 24.734 23.102 23.383 21 22 C19.756 20.955 18.527 19.892 17.312 18.812 C16.658 18.247 16.003 17.681 15.328 17.098 C12.326 14.393 9.436 11.59 6.562 8.75 C5.764 7.97 5.764 7.97 4.948 7.175 C2.568 4.801 1.078 3.235 0 0 Z " fill="#8A8B8C" transform="translate(137,81)"/>
<path d="M0 0 C3.252 1.417 5.314 3.125 7.75 5.688 C10.37 8.38 13.016 10.938 15.875 13.375 C16.848 14.234 16.848 14.234 17.84 15.109 C19.432 16.503 21.054 17.863 22.691 19.203 C29.617 25.311 29.617 25.311 30.785 30.461 C31 34 31 34 30.938 37.312 C30.694 40.154 30.694 40.154 33 42 C33.25 45 33.25 45 33 48 C31 50 31 50 28.562 50.312 C26 50 26 50 24.125 48.875 C23 47 23 47 23.188 43.875 C23.456 42.926 23.724 41.977 24 41 C24.99 40.505 24.99 40.505 26 40 C26.724 35.808 26.877 32.179 26 28 C22.194 22.801 17.434 18.9 12.363 14.941 C10.095 13.078 8.264 11.176 6.375 8.938 C4.73 6.999 3.135 5.128 1.289 3.379 C0 2 0 2 0 0 Z " fill="#929395" transform="translate(150,75)"/>
<path d="M0 0 C-1.981 2.682 -3.988 5.342 -6 8 C-6.429 8.593 -6.859 9.186 -7.301 9.797 C-10.145 13.54 -12.459 14.914 -17 16 C-17.99 16.33 -18.98 16.66 -20 17 C-20 16.34 -20 15.68 -20 15 C-23.629 14.849 -23.629 14.849 -27 16 C-20.77 2.419 -14.604 -2.103 0 0 Z " fill="#828283" transform="translate(478,85)"/>
<path d="M0 0 C0.66 0 1.32 0 2 0 C2.219 0.811 2.438 1.622 2.664 2.457 C4.91 10.298 7.897 16.977 12 24 C12.678 25.327 13.349 26.659 14 28 C13.34 28 12.68 28 12 28 C12.33 29.32 12.66 30.64 13 32 C12.34 31.67 11.68 31.34 11 31 C10.34 31.66 9.68 32.32 9 33 C5.075 29.075 2.25 24.949 -0.25 20 C-1.031 18.484 -1.031 18.484 -1.828 16.938 C-2.994 14.015 -3.251 12.105 -3 9 C-1 8 -1 8 0 8 C0 5.36 0 2.72 0 0 Z " fill="#838485" transform="translate(83,78)"/>
<path d="M0 0 C0.33 0 0.66 0 1 0 C1.33 1.98 1.66 3.96 2 6 C4.31 6.66 6.62 7.32 9 8 C9.66 7.34 10.32 6.68 11 6 C12.074 16.684 12.102 27.273 12 38 C11.67 38 11.34 38 11 38 C10.67 33.71 10.34 29.42 10 25 C9.01 25 8.02 25 7 25 C5.333 25 3.667 25 2 25 C0.169 21.871 -0.239 19.624 -0.195 16.016 C-0.189 15.081 -0.182 14.146 -0.176 13.184 C-0.159 12.216 -0.142 11.247 -0.125 10.25 C-0.116 9.266 -0.107 8.283 -0.098 7.27 C-0.074 4.846 -0.041 2.423 0 0 Z " fill="#7F7F80" transform="translate(413,79)"/>
<path d="M0 0 C5.61 0.222 8.269 3.851 11.875 7.688 C13.057 8.923 14.242 10.156 15.43 11.387 C16.012 11.997 16.594 12.608 17.194 13.237 C18.998 14.998 20.892 16.476 22.895 18.004 C25.66 20.322 25.962 20.835 26.832 24.578 C26.826 25.79 26.819 27.002 26.812 28.25 C26.502 33.181 26.502 33.181 29 37 C29.25 39.5 29.25 39.5 29 42 C27 44 27 44 24.562 44.312 C22 44 22 44 20.125 42.812 C19 41 19 41 19.312 38.312 C19.539 37.549 19.766 36.786 20 36 C21.485 35.505 21.485 35.505 23 35 C23.668 30.501 23.818 26.224 22 22 C17.962 16.846 12.764 12.707 7.68 8.625 C5.871 6.875 5.082 5.247 4 3 C1.966 1.732 1.966 1.732 0 1 C0 0.67 0 0.34 0 0 Z " fill="#868687" transform="translate(128,88)"/>
<path d="M0 0 C1.65 0 3.3 0 5 0 C5.33 1.32 5.66 2.64 6 4 C5.01 4 4.02 4 3 4 C3 3.01 3 2.02 3 1 C2.01 0.67 1.02 0.34 0 0 Z M-8 3 C-7.34 3 -6.68 3 -6 3 C-5.67 3.99 -5.34 4.98 -5 6 C-6.32 6.33 -7.64 6.66 -9 7 C-8.67 5.68 -8.34 4.36 -8 3 Z M-2 3 C1 4 1 4 3 6 C1.515 6.804 1.515 6.804 0 7.625 C-3.324 9.695 -3.324 9.695 -3.438 13.125 C-3.161 15.935 -3.161 15.935 -2 18 C0.322 18.407 2.657 18.744 5 19 C4.34 20.32 3.68 21.64 3 23 C1.68 23 0.36 23 -1 23 C-1.33 23.99 -1.66 24.98 -2 26 C-3.875 25.875 -3.875 25.875 -6 25 C-7.167 22.258 -8 19.994 -8 17 C-9.32 17 -10.64 17 -12 17 C-12 15.35 -12 13.7 -12 12 C-11.361 11.897 -10.721 11.794 -10.062 11.688 C-9.042 11.347 -9.042 11.347 -8 11 C-7.67 10.01 -7.34 9.02 -7 8 C-5.562 6.312 -5.562 6.312 -4 5 C-3.34 5 -2.68 5 -2 5 C-2 4.34 -2 3.68 -2 3 Z M5 5 C5.33 5.66 5.66 6.32 6 7 C5.01 6.67 4.02 6.34 3 6 C3.66 5.67 4.32 5.34 5 5 Z " fill="#767778" transform="translate(110,84)"/>
<path d="M0 0 C-0.99 0.33 -1.98 0.66 -3 1 C-3 1.66 -3 2.32 -3 3 C-13.555 8.548 -25.377 7.83 -37 8 C-37 7.01 -37 6.02 -37 5 C-25.679 -2.091 -12.827 -0.484 0 0 Z M-41 4 C-40.67 4.66 -40.34 5.32 -40 6 C-39.01 6.33 -38.02 6.66 -37 7 C-38.32 7 -39.64 7 -41 7 C-41 6.01 -41 5.02 -41 4 Z " fill="#C2C3C4" transform="translate(263,144)"/>
<path d="M0 0 C0.33 0 0.66 0 1 0 C1.3 4.165 0.453 6.65 -1.5 10.312 C-1.964 11.196 -2.428 12.079 -2.906 12.988 C-3.267 13.652 -3.628 14.316 -4 15 C-6.97 15 -9.94 15 -13 15 C-13.701 13.423 -14.386 11.838 -15.062 10.25 C-15.445 9.368 -15.828 8.487 -16.223 7.578 C-17.046 4.847 -16.977 3.631 -16 1 C-15.34 1.66 -14.68 2.32 -14 3 C-13.67 2.67 -13.34 2.34 -13 2 C-7.264 1.727 -7.264 1.727 -5 2 C-4.34 2.66 -3.68 3.32 -3 4 C-2.288 3.01 -2.288 3.01 -1.562 2 C-1.047 1.34 -0.531 0.68 0 0 Z " fill="#696A6B" transform="translate(634,113)"/>
<path d="M0 0 C0.33 0 0.66 0 1 0 C1 6.6 1 13.2 1 20 C-2.63 20 -6.26 20 -10 20 C-10 13.73 -10 7.46 -10 1 C-9.34 2.32 -8.68 3.64 -8 5 C-7.34 5.33 -6.68 5.66 -6 6 C-5.67 5.01 -5.34 4.02 -5 3 C-3.68 3.66 -2.36 4.32 -1 5 C-0.67 3.35 -0.34 1.7 0 0 Z " fill="#666768" transform="translate(656,108)"/>
<path d="M0 0 C0.33 0 0.66 0 1 0 C1 2.31 1 4.62 1 7 C4.3 6.67 7.6 6.34 11 6 C11.33 10.95 11.66 15.9 12 21 C8.04 21 4.08 21 0 21 C0 14.07 0 7.14 0 0 Z " fill="#666768" transform="translate(437,107)"/>
<path d="M0 0 C0.33 0 0.66 0 1 0 C1.027 2.563 1.047 5.125 1.062 7.688 C1.071 8.409 1.079 9.13 1.088 9.873 C1.105 13.716 0.935 17.266 0 21 C-2.97 20.67 -5.94 20.34 -9 20 C-9.33 21.65 -9.66 23.3 -10 25 C-10.33 25 -10.66 25 -11 25 C-11.027 22.604 -11.047 20.208 -11.062 17.812 C-11.071 17.139 -11.079 16.465 -11.088 15.771 C-11.106 12.046 -10.893 8.621 -10 5 C-8.515 5.99 -8.515 5.99 -7 7 C-6.01 6.67 -5.02 6.34 -4 6 C-3.01 6 -2.02 6 -1 6 C-0.67 4.02 -0.34 2.04 0 0 Z " fill="#7F7F80" transform="translate(341,85)"/>
<path d="M0 0 C3.63 0 7.26 0 11 0 C11 6.93 11 13.86 11 21 C10.67 21 10.34 21 10 21 C9.67 18.69 9.34 16.38 9 14 C8.443 14.206 7.886 14.412 7.312 14.625 C5 15 5 15 0 13 C0 8.71 0 4.42 0 0 Z " fill="#898B8C" transform="translate(438,69)"/>
<path d="M0 0 C3.312 2.188 3.312 2.188 5.312 5.188 C-4.354 5.188 -14.021 5.188 -23.688 5.188 C-23.688 3.868 -23.688 2.547 -23.688 1.188 C-16.907 -3.462 -7.348 -3.492 0 0 Z " fill="#8C8E8F" transform="translate(699.6875,85.8125)"/>
<path d="M0 0 C12.21 0 24.42 0 37 0 C37 1.32 37 2.64 37 4 C24.46 4 11.92 4 -1 4 C-0.67 2.68 -0.34 1.36 0 0 Z " fill="#D9D9DA" transform="translate(234,115)"/>
<path d="M0 0 C0.33 0.99 0.66 1.98 1 3 C1.638 3.049 2.276 3.098 2.934 3.148 C3.76 3.223 4.586 3.298 5.438 3.375 C6.261 3.445 7.085 3.514 7.934 3.586 C8.956 3.791 8.956 3.791 10 4 C11.382 6.765 11.095 9.046 11.062 12.125 C11.053 13.221 11.044 14.316 11.035 15.445 C11.024 16.288 11.012 17.131 11 18 C10.67 17.34 10.34 16.68 10 16 C9.01 16.33 8.02 16.66 7 17 C6.34 16.34 5.68 15.68 5 15 C4.01 15.99 3.02 16.98 2 18 C1.67 17.01 1.34 16.02 1 15 C0.67 17.31 0.34 19.62 0 22 C-0.33 22 -0.66 22 -1 22 C-1.027 19.271 -1.047 16.542 -1.062 13.812 C-1.071 13.044 -1.079 12.275 -1.088 11.482 C-1.105 7.515 -0.986 3.874 0 0 Z " fill="#7F7F80" transform="translate(595,85)"/>
<path d="M0 0 C6.802 -0.364 8.881 0.33 16 3 C15.34 8.61 14.68 14.22 14 20 C13.67 20 13.34 20 13 20 C13 16.7 13 13.4 13 10 C12.34 10 11.68 10 11 10 C11.34 11.609 11.34 11.609 11.688 13.25 C12 17 12 17 10.562 19.438 C10.047 19.953 9.531 20.469 9 21 C9.041 20.134 9.083 19.267 9.125 18.375 C8.995 14.868 8.192 12.278 7 9 C7 8.34 7 7.68 7 7 C6.031 6.856 5.061 6.711 4.062 6.562 C1 6 1 6 0 5 C-0.041 3.334 -0.043 1.666 0 0 Z M8 7 C8 7.66 8 8.32 8 9 C8.66 8.67 9.32 8.34 10 8 C9.34 7.67 8.68 7.34 8 7 Z " fill="#828383" transform="translate(187,119)"/>
<path d="M0 0 C0.33 0.66 0.66 1.32 1 2 C2.65 1.67 4.3 1.34 6 1 C6 1.66 6 2.32 6 3 C7.32 2.34 8.64 1.68 10 1 C10 5.052 8.386 6.795 6 10 C5.01 10.66 4.02 11.32 3 12 C2.67 11.34 2.34 10.68 2 10 C1.402 10.351 0.804 10.701 0.188 11.062 C-2 12 -2 12 -5 11 C-5.99 11.33 -6.98 11.66 -8 12 C-8 8.039 -6.651 7.171 -4 4.312 C-3.258 3.504 -2.515 2.696 -1.75 1.863 C-1.173 1.248 -0.595 0.634 0 0 Z M1 12 C1.66 12.33 2.32 12.66 3 13 C1.68 14.32 0.36 15.64 -1 17 C-1.66 16.67 -2.32 16.34 -3 16 C-1.68 14.68 -0.36 13.36 1 12 Z " fill="#828283" transform="translate(531,96)"/>
<path d="M0 0 C2.755 2.367 3.758 4.484 4.812 7.938 C5.087 8.792 5.362 9.647 5.645 10.527 C6.06 13.417 5.545 14.578 4 17 C1 16 -2 15 -5 14 C-5.949 12.039 -5.949 12.039 -6.688 9.625 C-6.939 8.834 -7.19 8.042 -7.449 7.227 C-8 5 -8 5 -8 2 C-4.233 2 -3.088 2.235 0 4 C0 2.68 0 1.36 0 0 Z " fill="#818283" transform="translate(616,90)"/>
<path d="M0 0 C4.62 0 9.24 0 14 0 C14 3.3 14 6.6 14 10 C3.821 9.062 3.821 9.062 0 8 C0 7.01 0 6.02 0 5 C-1.32 4.34 -2.64 3.68 -4 3 C-2.68 2.67 -1.36 2.34 0 2 C0 1.34 0 0.68 0 0 Z " fill="#737374" transform="translate(534,118)"/>
<path d="M0 0 C0.66 1.32 1.32 2.64 2 4 C3.32 3.67 4.64 3.34 6 3 C6.99 4.485 6.99 4.485 8 6 C8.66 5.34 9.32 4.68 10 4 C10.33 8.29 10.66 12.58 11 17 C7.04 17 3.08 17 -1 17 C-0.67 11.39 -0.34 5.78 0 0 Z " fill="#666768" transform="translate(595,111)"/>
<path d="M0 0 C-0.365 7.419 -0.365 7.419 -3.188 10 C-6.378 11.134 -8.638 11.365 -12 11 C-12.99 10.34 -13.98 9.68 -15 9 C-15.432 6.193 -15.425 4.661 -13.875 2.25 C-9.767 -0.489 -4.775 -0.114 0 0 Z " fill="#CDCECF" transform="translate(388,109)"/>
<path d="M0 0 C3.179 1.426 5.537 3.177 8.125 5.5 C8.808 6.108 9.491 6.717 10.195 7.344 C13.896 10.74 14.752 13.089 16 18 C16.268 18.907 16.536 19.815 16.812 20.75 C17 23 17 23 15.875 24.875 C14 26 14 26 11.438 25.875 C9 25 9 25 7 22 C7.359 19.039 7.847 18.153 10 16 C9.869 12.609 9.168 11.194 6.934 8.613 C6.11 7.854 5.286 7.095 4.438 6.312 C2.926 4.909 1.438 3.479 0 2 C0 1.34 0 0.68 0 0 Z " fill="#848586" transform="translate(127,99)"/>
<path d="M0 0 C2.812 1.688 2.812 1.688 5 4 C5.33 5.65 5.66 7.3 6 9 C0.06 9 -5.88 9 -12 9 C-11 4 -11 4 -8.812 1.688 C-5.453 -0.328 -3.853 -0.642 0 0 Z " fill="#D9D9DA" transform="translate(692,93)"/>
<path d="M0 0 C-0.33 0.99 -0.66 1.98 -1 3 C-6.28 3.66 -11.56 4.32 -17 5 C-17 4.34 -17 3.68 -17 3 C-18.98 3.33 -20.96 3.66 -23 4 C-23.66 3.01 -24.32 2.02 -25 1 C-16.906 -2.736 -8.295 -3.806 0 0 Z M1 1 C1.66 1.66 2.32 2.32 3 3 C2.01 2.67 1.02 2.34 0 2 C0.33 1.67 0.66 1.34 1 1 Z " fill="#8B8D8E" transform="translate(393,86)"/>
<path d="M0 0 C1.083 0.248 1.083 0.248 2.188 0.5 C4.864 0.976 7.289 1.077 10 1 C9.65 6.42 9.65 6.42 9 9 C7.062 10.375 7.062 10.375 5 11 C4.34 11.66 3.68 12.32 3 13 C2.01 13 1.02 13 0 13 C-1.671 13.311 -3.339 13.641 -5 14 C-3.7 9.101 -2.076 4.624 0 0 Z " fill="#838485" transform="translate(634,88)"/>
<path d="M0 0 C2 1.812 2 1.812 3 4 C2.852 6.436 2.186 7.71 0.875 9.75 C-2.086 11.724 -4.55 11.376 -8 11 C-10.313 7.531 -10.425 6.078 -10 2 C-7.655 -2.276 -4.194 -1.123 0 0 Z " fill="#D4D5D6" transform="translate(116,92)"/>
<path d="M0 0 C0.33 0 0.66 0 1 0 C1.369 11.522 1.369 11.522 -1 17 C-1.66 17 -2.32 17 -3 17 C-3 16.34 -3 15.68 -3 15 C-4.65 15.66 -6.3 16.32 -8 17 C-9.452 12.463 -10.235 8.819 -10 4 C-7.03 4 -4.06 4 -1 4 C-0.67 2.68 -0.34 1.36 0 0 Z " fill="#7F7F80" transform="translate(656,85)"/>
<path d="M0 0 C0.33 0 0.66 0 1 0 C1 2.97 1 5.94 1 9 C14.53 9 28.06 9 42 9 C42 9.33 42 9.66 42 10 C34.41 10 26.82 10 19 10 C19 10.99 19 11.98 19 13 C13.693 14.427 9.461 15.4 4 14 C3.67 13.01 3.34 12.02 3 11 C2.01 10.67 1.02 10.34 0 10 C0 6.7 0 3.4 0 0 Z " fill="#BDBEBF" transform="translate(506,119)"/>
<path d="M0 0 C9.24 0 18.48 0 28 0 C27.67 1.32 27.34 2.64 27 4 C18.09 4 9.18 4 0 4 C0 2.68 0 1.36 0 0 Z " fill="#E0E0E0" transform="translate(243,106)"/>
<path d="M0 0 C8.58 0 17.16 0 26 0 C26 1.32 26 2.64 26 4 C17.42 4 8.84 4 0 4 C0 2.68 0 1.36 0 0 Z " fill="#CBCBCC" transform="translate(234,124)"/>
<path d="M0 0 C0.99 1.32 1.98 2.64 3 4 C3.66 3.67 4.32 3.34 5 3 C5.66 3.33 6.32 3.66 7 4 C7 4.66 7 5.32 7 6 C7.66 5.67 8.32 5.34 9 5 C9.656 2.473 9.656 2.473 10 0 C10.33 0 10.66 0 11 0 C11 4.29 11 8.58 11 13 C7.04 13 3.08 13 -1 13 C-0.67 8.71 -0.34 4.42 0 0 Z " fill="#666768" transform="translate(331,115)"/>
<path d="M0 0 C0.99 1.485 0.99 1.485 2 3 C3.65 2.67 5.3 2.34 7 2 C7.99 3.485 7.99 3.485 9 5 C9.66 4.34 10.32 3.68 11 3 C11.33 5.97 11.66 8.94 12 12 C8.04 12 4.08 12 0 12 C0 8.04 0 4.08 0 0 Z " fill="#676869" transform="translate(413,116)"/>
<path d="M0 0 C3.297 0.33 4.623 0.623 7 3 C6.625 5.625 6.625 5.625 6 8 C3.188 8.688 3.188 8.688 0 9 C-0.412 8.526 -0.825 8.051 -1.25 7.562 C-3.967 5.137 -6.624 5.476 -10.188 5.312 C-11.46 5.247 -12.732 5.181 -14.043 5.113 C-15.019 5.076 -15.995 5.039 -17 5 C-17 4.34 -17 3.68 -17 3 C-15.94 2.951 -14.881 2.902 -13.789 2.852 C-12.401 2.777 -11.013 2.701 -9.625 2.625 C-8.577 2.579 -8.577 2.579 -7.508 2.531 C-3.298 2.405 -3.298 2.405 0 0 Z " fill="#9C9D9F" transform="translate(174,51)"/>
<path d="M0 0 C0.33 0 0.66 0 1 0 C1.026 1.12 1.052 2.24 1.078 3.395 C1.134 4.867 1.192 6.34 1.25 7.812 C1.264 8.55 1.278 9.288 1.293 10.049 C1.465 14.524 1.465 14.524 4.047 18.012 C4.691 18.338 5.336 18.664 6 19 C5.67 21.31 5.34 23.62 5 26 C2.394 26.931 1.358 27.149 -1.25 26.062 C-2.116 25.537 -2.116 25.537 -3 25 C-3.125 22.125 -3.125 22.125 -3 19 C-2.34 18.34 -1.68 17.68 -1 17 C-0.693 14.1 -0.488 11.282 -0.375 8.375 C-0.336 7.573 -0.298 6.771 -0.258 5.945 C-0.163 3.964 -0.081 1.982 0 0 Z " fill="#838484" transform="translate(166,111)"/>
<path d="M0 0 C1.48 0.114 2.959 0.241 4.438 0.375 C5.261 0.445 6.085 0.514 6.934 0.586 C7.956 0.791 7.956 0.791 9 1 C9.33 1.66 9.66 2.32 10 3 C10.99 2.34 11.98 1.68 13 1 C13.125 6.75 13.125 6.75 12 9 C9.03 9 6.06 9 3 9 C0 3.375 0 3.375 0 0 Z " fill="#838384" transform="translate(118,77)"/>
<path d="M0 0 C5.445 1.485 5.445 1.485 11 3 C10.67 4.98 10.34 6.96 10 9 C6.37 9 2.74 9 -1 9 C-1.125 2.25 -1.125 2.25 0 0 Z " fill="#7E7E7F" transform="translate(508,79)"/>
<path d="M0 0 C2.5 0.188 2.5 0.188 5 1 C7 4 7 4 6.938 6.562 C6 9 6 9 3.625 10.438 C2.759 10.623 1.893 10.809 1 11 C0.01 10.34 -0.98 9.68 -2 9 C-2.312 5.5 -2.312 5.5 -2 2 C-1.34 1.34 -0.68 0.68 0 0 Z " fill="#8F9091" transform="translate(174,69)"/>
<path d="M0 0 C3 0 3 0 4.5 1.25 C9 6.5 9 6.5 9 10 C11.97 10 14.94 10 18 10 C18 10.33 18 10.66 18 11 C16.396 11.169 14.792 11.335 13.188 11.5 C12.294 11.593 11.401 11.686 10.48 11.781 C8 12 8 12 5 12 C5 11.34 5 10.68 5 10 C4.01 10 3.02 10 2 10 C0.396 6.492 -0.22 3.856 0 0 Z " fill="#C6C7C8" transform="translate(612,118)"/>
<path d="M0 0 C0.99 0.66 1.98 1.32 3 2 C3 2.66 3 3.32 3 4 C-1.927 5.971 -5.78 6.18 -11 6 C-11 4.35 -11 2.7 -11 1 C-7.223 -1.568 -4.329 -0.944 0 0 Z " fill="#848485" transform="translate(198,111)"/>
<path d="M0 0 C0.33 0 0.66 0 1 0 C1 1.65 1 3.3 1 5 C0.67 5 0.34 5 0 5 C0 3.35 0 1.7 0 0 Z M1 5 C1.99 5.66 2.98 6.32 4 7 C4.312 10 4.312 10 4 13 C2 15 2 15 -0.438 15.312 C-3 15 -3 15 -4.875 13.75 C-6 12 -6 12 -5.688 9.812 C-5.347 8.915 -5.347 8.915 -5 8 C-5 8.99 -5 9.98 -5 11 C-4.34 11 -3.68 11 -3 11 C-2.897 10.381 -2.794 9.763 -2.688 9.125 C-2 7 -2 7 1 5 Z " fill="#878889" transform="translate(179,110)"/>
<path d="M0 0 C2.062 0.688 2.062 0.688 5.062 2.688 C5.75 5.312 5.75 5.312 6.062 7.688 C4.082 8.677 4.082 8.677 2.062 9.688 C2.062 8.037 2.062 6.388 2.062 4.688 C0.743 4.688 -0.578 4.688 -1.938 4.688 C-1.938 6.338 -1.938 7.987 -1.938 9.688 C-3.257 9.688 -4.578 9.688 -5.938 9.688 C-6.267 8.037 -6.597 6.388 -6.938 4.688 C-6.278 4.688 -5.618 4.688 -4.938 4.688 C-4.814 4.048 -4.69 3.409 -4.562 2.75 C-4.356 2.069 -4.15 1.389 -3.938 0.688 C-1.938 -0.312 -1.938 -0.312 0 0 Z " fill="#909092" transform="translate(93.9375,70.3125)"/>
<path d="M0 0 C1.65 0 3.3 0 5 0 C5 0.33 5 0.66 5 1 C3.35 1 1.7 1 0 1 C0 0.67 0 0.34 0 0 Z M3 2 C3.66 3.65 4.32 5.3 5 7 C4.031 6.835 3.061 6.67 2.062 6.5 C-1.53 5.842 -1.53 5.842 -5 7 C-5.33 6.01 -5.66 5.02 -6 4 C-6.66 3.67 -7.32 3.34 -8 3 C-4.265 2.425 -0.787 2 3 2 Z M6 4 C7.32 4 8.64 4 10 4 C9.67 5.32 9.34 6.64 9 8 C8.01 8 7.02 8 6 8 C5.67 7.01 5.34 6.02 5 5 C5.33 4.67 5.66 4.34 6 4 Z M-8 7 C-7.01 7.33 -6.02 7.66 -5 8 C-6.32 9.32 -7.64 10.64 -9 12 C-8.67 10.35 -8.34 8.7 -8 7 Z M1 7 C3 8 3 8 3 8 Z M4 8 C6 9 6 9 6 9 Z " fill="#888889" transform="translate(110,83)"/>
<path d="M0 0 C0.99 0.33 1.98 0.66 3 1 C2.67 1.66 2.34 2.32 2 3 C1.01 2.67 0.02 2.34 -1 2 C-0.67 1.34 -0.34 0.68 0 0 Z M4 0 C5.32 0 6.64 0 8 0 C8 0.66 8 1.32 8 2 C9.32 2.33 10.64 2.66 12 3 C11.01 3.66 10.02 4.32 9 5 C8.67 5.99 8.34 6.98 8 8 C6.125 7.75 6.125 7.75 4 7 C2.75 4.938 2.75 4.938 2 3 C2.66 2.01 3.32 1.02 4 0 Z M12 3 C12.66 3 13.32 3 14 3 C14.33 3.99 14.66 4.98 15 6 C13.68 5.67 12.36 5.34 11 5 C11.33 4.34 11.66 3.68 12 3 Z " fill="#808081" transform="translate(102,72)"/>
<path d="M0 0 C3.96 0 7.92 0 12 0 C11.085 3.658 9.995 5.877 8 9 C6.68 8.34 5.36 7.68 4 7 C4 6.01 4 5.02 4 4 C3.34 3.67 2.68 3.34 2 3 C2.33 2.67 2.66 2.34 3 2 C2.01 1.34 1.02 0.68 0 0 Z " fill="#7B7C7D" transform="translate(697,115)"/>
<path d="M0 0 C0.612 0.308 1.225 0.616 1.855 0.934 C3.33 1.667 4.816 2.375 6.312 3.062 C8 5 8 5 8.027 7.195 C7.772 9.488 7.437 11.735 7 14 C5.109 13.383 5.109 13.383 3 12 C1.953 9.18 1.953 9.18 1.25 5.875 C1.008 4.779 0.765 3.684 0.516 2.555 C0.345 1.712 0.175 0.869 0 0 Z " fill="#C5C6C7" transform="translate(218,130)"/>
<path d="M0 0 C5.385 0.31 7.825 3.354 11.312 7.062 C12.137 7.914 12.137 7.914 12.979 8.783 C14.328 10.18 15.665 11.589 17 13 C16.01 14.485 16.01 14.485 15 16 C13.161 14.214 11.328 12.422 9.5 10.625 C8.713 9.863 8.713 9.863 7.91 9.086 C6.568 7.762 5.28 6.384 4 5 C4 4.34 4 3.68 4 3 C2.68 2.34 1.36 1.68 0 1 C0 0.67 0 0.34 0 0 Z " fill="#88898A" transform="translate(128,88)"/>
<path d="M0 0 C0.99 1.32 1.98 2.64 3 4 C2.67 4.66 2.34 5.32 2 6 C1.845 8.323 1.75 10.65 1.684 12.977 C1.663 13.662 1.642 14.347 1.621 15.053 C1.555 17.244 1.496 19.434 1.438 21.625 C1.394 23.109 1.351 24.594 1.307 26.078 C1.2 29.719 1.098 33.359 1 37 C0.67 37 0.34 37 0 37 C0 24.79 0 12.58 0 0 Z M-12 37 C-8.04 37 -4.08 37 0 37 C0 37.33 0 37.66 0 38 C-3.96 38 -7.92 38 -12 38 C-12 37.67 -12 37.34 -12 37 Z " fill="#BDBEBF" transform="translate(606,91)"/>
<path d="M0 0 C3.179 1.426 5.537 3.177 8.125 5.5 C8.808 6.108 9.491 6.717 10.195 7.344 C13.992 10.828 13.992 10.828 14.125 13.625 C14.084 14.409 14.042 15.192 14 16 C13.67 15.01 13.34 14.02 13 13 C11.674 12.319 10.339 11.655 9 11 C7.369 9.552 5.787 8.047 4.25 6.5 C3.451 5.706 2.652 4.912 1.828 4.094 C0 2 0 2 0 0 Z " fill="#8A8A8B" transform="translate(127,99)"/>
<path d="M0 0 C3.367 1.454 5.523 3.31 8.062 5.938 C8.734 6.627 9.406 7.317 10.098 8.027 C10.725 8.678 11.353 9.329 12 10 C12.576 10.517 13.152 11.034 13.746 11.566 C15 13 15 13 15 16 C11.218 14.463 9.063 12.155 6.375 9.125 C5.599 8.261 4.823 7.398 4.023 6.508 C2.297 4.368 1.084 2.507 0 0 Z " fill="#898A8B" transform="translate(150,75)"/>
<path d="M0 0 C2.468 1.152 4.048 2.048 6 4 C6.227 5.879 6.227 5.879 6.195 8.133 C6.189 8.938 6.182 9.744 6.176 10.574 C6.159 11.416 6.142 12.258 6.125 13.125 C6.116 13.974 6.107 14.824 6.098 15.699 C6.074 17.8 6.038 19.9 6 22 C5.34 21.67 4.68 21.34 4 21 C3.702 17.623 3.584 14.289 3.521 10.902 C3.448 6.69 3.448 6.69 1.465 3.117 C0.981 2.749 0.498 2.38 0 2 C0 1.34 0 0.68 0 0 Z " fill="#7F7F80" transform="translate(163,106)"/>
<path d="M0 0 C0.784 0.041 1.567 0.083 2.375 0.125 C3 2.5 3 2.5 3.375 5.125 C2.715 5.785 2.055 6.445 1.375 7.125 C-1.25 6.75 -1.25 6.75 -3.625 6.125 C-4.25 4.25 -4.25 4.25 -4.625 2.125 C-2.625 0.125 -2.625 0.125 0 0 Z " fill="#E4E4E5" transform="translate(159.625,33.875)"/>
<path d="M0 0 C1.675 0.286 3.344 0.618 5 1 C4.67 2.65 4.34 4.3 4 6 C4.66 6.33 5.32 6.66 6 7 C3.188 7.625 3.188 7.625 0 8 C-0.99 7.34 -1.98 6.68 -3 6 C-2.01 6 -1.02 6 0 6 C-0.278 4.793 -0.278 4.793 -0.562 3.562 C-0.707 2.717 -0.851 1.871 -1 1 C-0.67 0.67 -0.34 0.34 0 0 Z " fill="#9D9D9F" transform="translate(92,74)"/>
<path d="M0 0 C0.99 0 1.98 0 3 0 C2.794 0.928 2.588 1.856 2.375 2.812 C1.633 6.152 1.633 6.152 4 9 C3.01 10.485 3.01 10.485 2 12 C0.68 11.67 -0.64 11.34 -2 11 C-2.054 9.542 -2.093 8.084 -2.125 6.625 C-2.16 5.407 -2.16 5.407 -2.195 4.164 C-2 2 -2 2 0 0 Z " fill="#98999A" transform="translate(154,33)"/>
<path d="M0 0 C2.31 0 4.62 0 7 0 C6.25 4.75 6.25 4.75 4 7 C1.375 6.625 1.375 6.625 -1 6 C-0.34 5.34 0.32 4.68 1 4 C0.681 1.892 0.681 1.892 0 0 Z " fill="#949596" transform="translate(137,118)"/>
<path d="M0 0 C0.66 0.33 1.32 0.66 2 1 C1.34 1.66 0.68 2.32 0 3 C-0.167 6.583 -0.167 6.583 0 10 C0.66 9.67 1.32 9.34 2 9 C2.33 10.98 2.66 12.96 3 15 C1.68 14.67 0.36 14.34 -1 14 C-1.33 14.99 -1.66 15.98 -2 17 C-2.054 14.541 -2.094 12.084 -2.125 9.625 C-2.142 8.926 -2.159 8.228 -2.176 7.508 C-2.193 5.671 -2.103 3.834 -2 2 C-1.34 1.34 -0.68 0.68 0 0 Z " fill="#C2C2C3" transform="translate(451,111)"/>
<path d="M0 0 C0.99 0 1.98 0 3 0 C3 1.32 3 2.64 3 4 C3.66 4.33 4.32 4.66 5 5 C5 4.01 5 3.02 5 2 C5.99 2.33 6.98 2.66 8 3 C7.67 4.32 7.34 5.64 7 7 C4.625 7.625 4.625 7.625 2 8 C0 6 0 6 -0.125 2.875 C-0.084 1.926 -0.042 0.977 0 0 Z " fill="#949597" transform="translate(169,39)"/>
<path d="M0 0 C0.33 0 0.66 0 1 0 C1.33 4.29 1.66 8.58 2 13 C1.01 13.66 0.02 14.32 -1 15 C-1.33 15.99 -1.66 16.98 -2 18 C-2.66 18 -3.32 18 -4 18 C-4 16.35 -4 14.7 -4 13 C-2.68 12.67 -1.36 12.34 0 12 C0 8.04 0 4.08 0 0 Z " fill="#7D7D7E" transform="translate(178,103)"/>
<path d="M0 0 C0.639 0.165 1.279 0.33 1.938 0.5 C4.046 1.246 4.046 1.246 6 0 C5.67 1.65 5.34 3.3 5 5 C3.02 5.33 1.04 5.66 -1 6 C-1.043 4.334 -1.041 2.666 -1 1 C-0.67 0.67 -0.34 0.34 0 0 Z " fill="#A9A9AB" transform="translate(175,54)"/>
<path d="M0 0 C3 1 3 1 5 3 C5 3.99 5 4.98 5 6 C2.69 6 0.38 6 -2 6 C-1.125 1.125 -1.125 1.125 0 0 Z " fill="#8C8D8E" transform="translate(149,123)"/>
<path d="M0 0 C0.99 0.33 1.98 0.66 3 1 C2.688 2.938 2.688 2.938 2 5 C1.01 5.33 0.02 5.66 -1 6 C-1.33 6.99 -1.66 7.98 -2 9 C-2.66 7.68 -3.32 6.36 -4 5 C-3.01 4.34 -2.02 3.68 -1 3 C-0.67 2.01 -0.34 1.02 0 0 Z " fill="#7E7E7F" transform="translate(120,87)"/>
<path d="M0 0 C3.669 2.446 5.062 5.124 7 9 C4.289 8.626 3.18 8.186 1.25 6.188 C0 4 0 4 0 0 Z " fill="#C7C8C9" transform="translate(667,119)"/>
<path d="M0 0 C0.33 0 0.66 0 1 0 C1.043 1.666 1.041 3.334 1 5 C0 6 0 6 -2.438 6.25 C-3.283 6.167 -4.129 6.085 -5 6 C-5.66 5.01 -6.32 4.02 -7 3 C-5 3 -3 3 -1 3 C-0.67 2.01 -0.34 1.02 0 0 Z " fill="#818182" transform="translate(155,126)"/>
<path d="M0 0 C1.65 0 3.3 0 5 0 C5 0.33 5 0.66 5 1 C3.35 1 1.7 1 0 1 C0 0.67 0 0.34 0 0 Z M6 4 C7.32 4 8.64 4 10 4 C9.67 5.32 9.34 6.64 9 8 C8.01 8 7.02 8 6 8 C6 6.68 6 5.36 6 4 Z M4 8 C6 9 6 9 6 9 Z " fill="#8D8D8F" transform="translate(110,83)"/>
<path d="M0 0 C0.33 2.31 0.66 4.62 1 7 C-0.32 7 -1.64 7 -3 7 C-3.33 5.35 -3.66 3.7 -4 2 C-1 0 -1 0 0 0 Z " fill="#848586" transform="translate(91,73)"/>
<path d="M0 0 C1.98 0.495 1.98 0.495 4 1 C3.67 2.32 3.34 3.64 3 5 C1.68 4.67 0.36 4.34 -1 4 C-0.67 2.68 -0.34 1.36 0 0 Z " fill="#E4E5E5" transform="translate(177,117)"/>
<path d="M0 0 C0.66 0.33 1.32 0.66 2 1 C2.625 3.562 2.625 3.562 3 6 C1.02 6.99 1.02 6.99 -1 8 C-1.042 5.667 -1.041 3.333 -1 1 C-0.67 0.67 -0.34 0.34 0 0 Z " fill="#7E7E7F" transform="translate(97,72)"/>
<path d="M0 0 C4.62 0 9.24 0 14 0 C14 0.33 14 0.66 14 1 C10.04 1.66 6.08 2.32 2 3 C2 2.34 2 1.68 2 1 C1.34 0.67 0.68 0.34 0 0 Z " fill="#C5C6C7" transform="translate(172,150)"/>
<path d="M0 0 C0.99 1.32 1.98 2.64 3 4 C2.67 4.66 2.34 5.32 2 6 C1.775 7.537 1.592 9.08 1.438 10.625 C1.354 11.442 1.27 12.26 1.184 13.102 C1.123 13.728 1.062 14.355 1 15 C0.67 15 0.34 15 0 15 C0 10.05 0 5.1 0 0 Z " fill="#CACBCC" transform="translate(606,91)"/>
<path d="M0 0 C1.32 0 2.64 0 4 0 C4.66 1.65 5.32 3.3 6 5 C3.03 4.505 3.03 4.505 0 4 C0 2.68 0 1.36 0 0 Z M2 5 C4 6 4 6 4 6 Z " fill="#808081" transform="translate(109,85)"/>
<path d="M0 0 C1.65 0 3.3 0 5 0 C5.33 1.32 5.66 2.64 6 4 C5.01 4 4.02 4 3 4 C3 3.01 3 2.02 3 1 C2.01 0.67 1.02 0.34 0 0 Z M5 5 C5.33 5.66 5.66 6.32 6 7 C5.01 6.67 4.02 6.34 3 6 C3.66 5.67 4.32 5.34 5 5 Z " fill="#717272" transform="translate(110,84)"/>
<path d="M0 0 C2.438 0.375 2.438 0.375 5 1 C5.33 1.66 5.66 2.32 6 3 C5.34 3 4.68 3 4 3 C4 3.99 4 4.98 4 6 C3.01 5.67 2.02 5.34 1 5 C1.33 3.68 1.66 2.36 2 1 C1.34 0.67 0.68 0.34 0 0 Z " fill="#B6B7B8" transform="translate(170,38)"/>
<path d="M0 0 C3.146 -0.262 4.618 -0.248 7.312 1.5 C8.148 2.242 8.148 2.242 9 3 C7.886 2.979 6.773 2.959 5.625 2.938 C2.168 2.736 2.168 2.736 0 4 C0 2.68 0 1.36 0 0 Z " fill="#A6A7A8" transform="translate(152,31)"/>
<path d="M0 0 C2.438 0.375 2.438 0.375 5 1 C5.33 1.66 5.66 2.32 6 3 C5.34 3.66 4.68 4.32 4 5 C4 4.34 4 3.68 4 3 C2.68 2.34 1.36 1.68 0 1 C0 0.67 0 0.34 0 0 Z " fill="#959697" transform="translate(128,88)"/>
<path d="M0 0 C2.475 0.495 2.475 0.495 5 1 C4.67 1.99 4.34 2.98 4 4 C2.68 4 1.36 4 0 4 C0 2.68 0 1.36 0 0 Z " fill="#E1E1E2" transform="translate(92,74)"/>
<path d="M0 0 C2 2 2 2 2 6 C0.68 5.67 -0.64 5.34 -2 5 C-1.125 1.125 -1.125 1.125 0 0 Z " fill="#C8C9CA" transform="translate(452,120)"/>
<path d="M0 0 C2.97 0 5.94 0 9 0 C7.35 1.65 5.7 3.3 4 5 C2.68 3.35 1.36 1.7 0 0 Z " fill="#D0D1D2" transform="translate(120,86)"/>
<path d="M0 0 C1.485 0.99 1.485 0.99 3 2 C3.188 4.625 3.188 4.625 3 7 C2.01 6.67 1.02 6.34 0 6 C-0.75 4.062 -0.75 4.062 -1 2 C-0.67 1.34 -0.34 0.68 0 0 Z M-2 6 C0 7 0 7 0 7 Z " fill="#8C8D8E" transform="translate(154,123)"/>
<path d="M0 0 C1.32 0.33 2.64 0.66 4 1 C4 2.32 4 3.64 4 5 C2.68 4.34 1.36 3.68 0 3 C0 2.01 0 1.02 0 0 Z " fill="#D3D4D4" transform="translate(137,77)"/>
<path d="M0 0 C0.99 0.33 1.98 0.66 3 1 C2.67 2.32 2.34 3.64 2 5 C1.01 4.67 0.02 4.34 -1 4 C-0.67 2.68 -0.34 1.36 0 0 Z " fill="#E8E9E9" transform="translate(175,72)"/>
<path d="M0 0 C1.32 0 2.64 0 4 0 C4 1.32 4 2.64 4 4 C2.68 3.67 1.36 3.34 0 3 C0 2.01 0 1.02 0 0 Z " fill="#DADADA" transform="translate(165,131)"/>
<path d="M0 0 C3.161 1.37 3.993 1.989 6 5 C3 5 3 5 1.312 3.625 C0 2 0 2 0 0 Z " fill="#7E7F7F" transform="translate(163,106)"/>
<path d="M0 0 C1.32 0 2.64 0 4 0 C3.67 0.99 3.34 1.98 3 3 C1.35 2.67 -0.3 2.34 -2 2 C-1.34 1.34 -0.68 0.68 0 0 Z " fill="#6C6D6D" transform="translate(110,104)"/>
<path d="M0 0 C1.98 0.495 1.98 0.495 4 1 C2.02 1.99 2.02 1.99 0 3 C0 2.01 0 1.02 0 0 Z M5 2 C7 3 7 3 7 3 Z " fill="#C5C6C7" transform="translate(109,108)"/>
<path d="M0 0 C0.99 0.33 1.98 0.66 3 1 C3 1.99 3 2.98 3 4 C1.68 3.67 0.36 3.34 -1 3 C-0.67 2.01 -0.34 1.02 0 0 Z " fill="#E7E8E8" transform="translate(151,125)"/>
<path d="M0 0 C0.66 0 1.32 0 2 0 C2.33 0.99 2.66 1.98 3 3 C1.68 3.33 0.36 3.66 -1 4 C-0.67 2.68 -0.34 1.36 0 0 Z " fill="#757676" transform="translate(102,87)"/>
<path d="M0 0 C1.32 0 2.64 0 4 0 C4 0.99 4 1.98 4 3 C2.68 3 1.36 3 0 3 C0 2.01 0 1.02 0 0 Z " fill="#E6E7E7" transform="translate(234,106)"/>
<path d="M0 0 C0.33 0.66 0.66 1.32 1 2 C1.99 2.33 2.98 2.66 4 3 C2.02 3.99 2.02 3.99 0 5 C-0.33 4.01 -0.66 3.02 -1 2 C-0.67 1.34 -0.34 0.68 0 0 Z " fill="#8B8B8C" transform="translate(122,93)"/>
<path d="M0 0 C0.99 0 1.98 0 3 0 C3 0.99 3 1.98 3 3 C1.68 2.67 0.36 2.34 -1 2 C-0.67 1.34 -0.34 0.68 0 0 Z " fill="#EEEEEE" transform="translate(175,54)"/>
<path d="M0 0 C0.99 0 1.98 0 3 0 C3 0.99 3 1.98 3 3 C2.01 3 1.02 3 0 3 C0 2.01 0 1.02 0 0 Z " fill="#F2F3F3" transform="translate(138,118)"/>
<path d="M0 0 C1.32 0.33 2.64 0.66 4 1 C3.67 1.99 3.34 2.98 3 4 C2.01 2.68 1.02 1.36 0 0 Z " fill="#909293" transform="translate(176,52)"/>
<path d="M0 0 C0.99 0 1.98 0 3 0 C2.34 1.32 1.68 2.64 1 4 C0.67 2.68 0.34 1.36 0 0 Z " fill="#A5A5A7" transform="translate(152,31)"/>
<path d="M0 0 C1.32 0.33 2.64 0.66 4 1 C4 1.66 4 2.32 4 3 C2.68 2.34 1.36 1.68 0 1 C0 0.67 0 0.34 0 0 Z " fill="#808081" transform="translate(139,116)"/>
<path d="M0 0 C0.66 0 1.32 0 2 0 C2 0.99 2 1.98 2 3 C1.01 2.67 0.02 2.34 -1 2 C-0.67 1.34 -0.34 0.68 0 0 Z " fill="#E9E9E9" transform="translate(172,41)"/>
</svg>